<?xml version="1.0" standalone="no"?>
<!DOCTYPE svg PUBLIC "-//W3C//DTD SVG 1.1//EN" "http://www.w3.org/Graphics/SVG/1.1/DTD/svg11.dtd" >
<svg xmlns="http://www.w3.org/2000/svg" xmlns:xlink="http://www.w3.org/1999/xlink" version="1.1">
<metadata>
Created by FontForge 20170731 at Fri Aug 31 18:49:56 2018
 By Aleksey,,,
Copyright (c) 2018 by joorgemoron@gmail.com. All rights reserved.
</metadata>
<defs>
<font id="JMHTypewriter-Black" horiz-adv-x="718" >
  <font-face 
    font-family="JMH Typewriter"
    font-weight="900"
    font-stretch="normal"
    units-per-em="1024"
    panose-1="2 0 5 6 2 0 0 2 0 4"
    ascent="819"
    descent="-205"
    x-height="559"
    cap-height="794"
    bbox="-107 -460 1044 1093"
    underline-thickness="0"
    underline-position="100"
    unicode-range="U+000D-EFF9"
  />
<missing-glyph horiz-adv-x="1075" 
 />
    <glyph glyph-name=".notdef" horiz-adv-x="1075" 
 />
    <glyph glyph-name=".null" horiz-adv-x="0" 
 />
    <glyph glyph-name="nonmarkingreturn" unicode="&#xd;" horiz-adv-x="1075" 
 />
    <glyph glyph-name="NULL" horiz-adv-x="0" 
 />
    <glyph glyph-name="NULL" horiz-adv-x="0" 
 />
    <glyph glyph-name="space" unicode=" " horiz-adv-x="462" 
 />
    <glyph glyph-name="exclam" unicode="!" horiz-adv-x="223" 
d="M14 834h23v21h130v-9h22v-12h12v-24h10v-34h12l-6 -79l-23 -2h17v-79h-10q0 -19 -3 -39t-3 -39l-23 -2h17q0 -20 -2 -44.5t-2 -47.5l-23 -1h16q0 -50 -2.5 -101t-2.5 -100l-16 -7h10v-34h11v-13h11v-11h12v-12h10v-23h12l-6 -65l-23 -2h17v-46h-14l-6 -5h3v1q1 0 1 -5
l-23 -2h17v-13h-22v-11h-33v-12h-88v12h-22v11h-10v13h-12v11h-5v140l16 8h-7l3 3h-3l17 8h-9v13h10v12h39h-26v59h-13v218h-10v91h-12v35h-9v172h9q0 5 2 14t2 11l17 9h-9v12zM3 177h11q-7 -1 -8.5 -1.5t-2.5 -0.5v2z" />
    <glyph glyph-name="quotedbl" unicode="&#x22;" horiz-adv-x="414" 
d="M8 872l18 8h-9v10h143v-10h22v-12h10v-125h-10q0 -22 -3 -45t-3 -45l-23 -2h17v-127h-15v-9l-23 -2h17v-11h-100v11h-10v11h-11v58h-11v80h-12v81h-9v125h10zM217 904l43 -14h111v-10h21v-12h6v-134l-23 -2h17v-173h-10q0 -7 -2 -15l-3 -18l-23 -2h17v-11h-11v-11h-100
v11h-10v11h-11v58h-12v103h-10v70h-7v105l17 12l-10 -4v36z" />
    <glyph glyph-name="numbersign" unicode="#" horiz-adv-x="695" 
d="M451 846h21v9h78v-9h10v-12h11v-24h12l-6 -64l-23 -2h17q0 -5 -0.5 -12t-1.5 -12l-3 -33l-23 -2h17v-23h-10v-46h-12v-57h-10v-35h110v-14h22v-11h11v-91h-11v-11h-66v-11h-103q0 -2 -0.5 -5t-0.5 -5l-23 -2h17v-46h-10v-13h22v-11h110v-14h10v-10h10v-79h-10v-11h-22
v-12h-120v-10h-23q0 -2 -1 -7.5t-2 -11.5l-2 -16v1l-23 -2h17v-33h-11v-70h-12v-80h-10q0 -2 -1 -7.5t-2 -11.5l-2 -16v1l-23 -2h17q0 -2 -0.5 -7t-1.5 -7l-3 -18l-24 -2h17q0 -2 -1 -3q-2 -4 -2 -5h1q-1 -3 -2 -6.5t-1 -6.5l-22 -2h17v-10h-99v10h-9v125h9q0 9 2 20.5
t2 17.5l17 9h-9v57h10v34h11q0 11 2 26.5t2 23.5l17 8h-10v34h11q0 15 2 29.5t2 21.5l18 9h-10v57h9q0 9 2 20.5t2 16.5l18 8h-10v58h11q0 11 2 26t2 22l17 8h-10q0 11 2.5 23.5t2.5 14.5l16 8h-9q0 16 2 33.5t2 27.5l17 9h-10v57h10q0 13 2 27.5t2 22.5l17 8h-10v70h11
q0 9 2 19.5t2 18.5l17 8h-10v12zM275 834h22v12h99v-12h6v-118l-16 -8h10q0 -2 -1 -9.5t-2 -15.5q-1 -10 -2 -21v2l-24 -2h17q0 -7 -2 -15l-3 -18l-22 -2h17v-46h-10q0 -4 -1 -13t-2 -19q-1 -11 -2 -25v2l-23 -2h17q0 -4 -0.5 -16t-1.5 -25t-2 -23l-1 -10v11l-16 -7h9v-33
h-10q0 -8 -2 -18l-4 -27l-23 -2h17v-57h-10v-57h-12v-47h-10q0 -4 -0.5 -7.5t-1.5 -8.5l-4 -27l-23 -2h17v-59h-10q0 -2 -1 -9t-2.5 -15t-2 -14.5l-0.5 -6.5v1l-23 -2h17v-69h-10v-69h-13v-46h-8v-23h-13v-10h-11v-13h-76v13h-21v22h-9v82l18 8h-9v46h10q0 13 1.5 26.5
t1.5 21.5l17 9h-9v36h10v45h11v36h-130v12h-8v92l17 8h-9v14h142v11h21q0 9 2.5 21.5t2.5 17.5l16 8h-9v24h-33v11h-99v11h-8v94l17 8h-9v16h158l16 7h-10v48h11q0 7 2 15.5t2 10.5l17 8h-9q0 16 2 33.5t2 27.5l17 8h-10q0 7 2 19.5t2 17.5l17 8h-9v59h9v46z" />
    <glyph glyph-name="dollar" unicode="$" horiz-adv-x="542" 
d="M196 925h10v12h111v-12h10v-79h12v-12h10v-12h33v-12h33v-11h32v-11h13v-12h9v-11h12v-22h6v-160l-23 -2h17v-11h-21v-11h-78v11h-33v11h-10v24h-12v69h-11v11h-10v10h-55v-10h-23v-11h-22v-12h-15q0 -1 -0.5 -4.5t-0.5 -5.5l-22 -2h17v-23h-11v-34h11v-24h10v-12h11v-13
h22v-11h34v-9h55v-14h32v-11h33v-12h33v-11h22v-12h10v-11h13v-11h21v-23h11v-12h11v-34h10v-45h12l-5 -66l-23 -2h16v-59h-10v1q-1 0 -1.5 -3t-1.5 -5h1q-1 -2 -1 -4.5t-1 -4.5q-1 -3 -1 -6v1l-22 -2h16q0 -2 -1 -3q-2 -4 -2 -5h1q-1 -3 -2 -6.5t-1 -6.5l-23 -2h17
q0 -1 -1 -4l-2 -6h1l-3 -12v1l-23 -2h16v-11h-9v-12h-23v-10h-11v-13h-21v-11h-23v-12h-33v-11h-10v-11h-12v-104h-10q0 -21 -2.5 -44.5t-2.5 -44.5l-23 -2h17v-24h-100v11h-10v13h-11v195h-23v11h-44v11h-54v12h-22v11h-23v13h-10v22h-8v151l18 8h-10v35h22v13h77v-13h21
v-25h11v-33h12v-23h11v-11h11v-12h11v-10h10v-13h23v-11h55v11h22v13h21v10h15v4l18 8h-10v11h10q0 1 1 2l2 6h-1q0 1 0.5 2.5t0.5 2.5t1 2l17 8h-10v37h-11v11h-10v12h-12v11h-11v12h-21v12h-35v11h-31v11h-33v12h-43v11h-23v11h-22v13h-23v10h-10v12h-11v11h-13v12h-9v24
h-11v24h-8v162l18 8h-10v22h11v23h10q0 -2 1 -2t3 2l4 4h-3l-1 -1v2l17 9h-9v22h11v11h26v3l17 9h-10v11h22v11h23v12h24v4l17 8h-9q0 17 2 35t2 38l17 8h-10v10z" />
    <glyph glyph-name="percent" unicode="%" 
d="M89 868h33v11h98v-11h56v-13h32v-9h55v-12h33v-12h10l1 -79q0 5 2.5 13.5t2.5 10.5l17 9h-9v34h8q0 6 2.5 16t2.5 12l16 8h-5l17 9h-10v13h110v-13h10v-101h-10q-1 -1 -2 -3l-3 -6h2q-3 -6 -3 -10l-23 -2h17v-25h-10v-34h-12v-12h-9v-35h-11v-22h-12v-24h-10v-34h-13v-23
h-10v-34h-13q-2 0 -7 -5h3v1q1 0 1 -5l-23 -2h17q0 -2 -1 -8l-2 -12l-2 -16v1l-23 -1h16v-35h-9v-22h-13v-34h-10v1q-2 -6 -3 -10q-2 -10 -2 -13l-24 -2h17v-23h-9v1q-2 -6 -3 -10q-2 -10 -2 -13l-24 -1h17v-22h-10v-36h-11q0 -1 -1 -3q-2 -4 -2 -6h1q-1 -2 -1.5 -7.5
t-1.5 -5.5v6l-16 -7h10q0 -1 -1 -6t-2 -11t-2 -10.5l-1 -4.5v1l-23 -2h17q0 -2 -1 -3q-2 -4 -2 -5h1q-1 -2 -1 -4.5t-1 -4.5q-1 -3 -1 -6v1l-23 -2h17v-35h-10v-34h-12v-34h-10q0 -1 -1 -3q-2 -4 -2 -6h1q-1 -2 -1 -4t-1 -4q-1 -3 -1 -5v1l-15 -2q0 -4 2.5 -7t2.5 -7
t-1 -8.5t-1 -6.5l-15 -7h9q0 -2 -1 -3q-2 -4 -2 -5h1q-1 -2 -1 -4.5t-1 -4.5q-1 -3 -1 -6v1l-23 -1h16v-10h-10v-12h-100v12h-9v136h9q0 -2 0.5 1.5t1 8t1.5 8.5l1 4v-6l18 8h-9v21h15v4l16 8h-9v46h10q0 1 1 2t1 2.5t2 3.5h-2q2 8 3 8v-1l16 8h-9v23h9q0 1 1 2t1 2.5t2 3.5
h-2q1 1 1 2.5t1 2.5q0 1 1 2l17 8h-9v33h9q0 1 1 2t1 2.5t2 3.5h-1l2 8l16 9h-9q0 7 2 15.5t2 10.5l17 9h-9l3 6h-2q0 1 0.5 3.5t0.5 5.5q0 4 1 7q1 0 1 -7l17 8h-10q0 6 2 14t2 12l17 8h-9q0 1 1 2l2 6h-1l2 8l16 8h-10v22h10q0 1 1 2l2 6h-1q0 1 0.5 2.5t0.5 2.5t1 2l17 8
h-10q0 1 1 2l2 6h-1q0 1 0.5 2.5t0.5 2.5t1 2l17 8h-9v34h9q0 1 1 2l2 6h-1q0 1 0.5 2.5t0.5 2.5t1 2l18 9h-9v36h10q0 6 2 14t2 11l16 8h-9v10h10q0 6 2 15.5t2 12.5l17 8h-9q0 1 1 2l2 6h-1q0 1 0.5 2.5t0.5 2.5t1 2l17 8h-10q0 1 1 2l2 6h-1q0 3 2 5q1 1 1 2l16 8h-9v15
l-1 -14h-43v-11h-11l-3 -33q-1 -8 -1.5 -16.5t-0.5 -16.5l-23 -2h17q0 -2 -1 -3q-2 -4 -2 -5h1q-1 -3 -2 -9t-2 -6v1l-23 -2h17q0 -1 -1 -4l-2 -6h1l-3 -12v1l-23 -2h17v-12h-10v-11h-12v-11h-21v-12h-24v-11h-141v11h-23v12h-21v11h-12v11h-10v12h-10v12h-12v35h-11v136h11
q0 5 2 13t2 12l18 9h-10v12h10v12h14v4l17 8h-9v9h33v13zM412 249l17 8h-9v14h186v-14h31v-11h12v-12h11v-11h12v-22h9v-36h7v-122l-23 -2h16v-23h-9q0 1 -1 1t-2 -4.5t-1 -6.5h1q-1 -2 -1 -5q0 -1 -1 -2l-16 -7h9v-12h-13l-1 1q-2 0 -1.5 -0.5t-4.5 -3.5h4l-16 -8h9v-12
h-22v-10h-21v-12h-154v12h-20v10h-23v12h-12v11h-11v23h-12v24h-10v159h10q0 1 1 2l2 6h-1l2 8v-1l17 8h-9q0 1 1 2l2 6h-1q0 1 0.5 2.5t0.5 2.5t1 2l17 8h-10v12h24zM485 97h10v-12h12v-11h20v11h23q0 -2 0.5 1.5t1 8t1.5 8.5l1 4v-6l17 8h-21v12h-10v23h-13v11h-20v-11
h-12v-12h-10v-35zM210 719h-13v14h-9v11h-23v-11h-13q0 -1 -1 -6l-17 -8h10v-35h10v-12h34v12h15q-1 0 -1 3l17 8h-9v24z" />
    <glyph glyph-name="ampersand" unicode="&#x26;" horiz-adv-x="720" 
d="M199 810h55v12h121v-12h44v-11h11v-11h24v-23h8v-103h-8v-12h-24v-10h-98v10h-12v12h-44v-12h-9v-10h-13v-14h13v-23h9v-10h12v-24h11v-12h11v-13h9v-11h12v-9h11v-14h11v-11h11v-12h11v-11h11v-23h11v-11h11v-11h11v-12h11v-23h11v-13h13v-10h8l1 -11v34h11v-1l1 2
q0 2 2 6h-1l2 8l18 8h-10v12h196v-126h-22v-11h-21v-12h-26l-4 -4h1q2 0 2 -4l-23 -2h17v-37h-11q0 -2 -1 -7l-2 -10q-1 -6 -2 -13v3l-16 -7h10v-23l-11 -1h87v-12h22v-23h12v-67h-12v-46h-10v-11h-23v-13h-21v-11h-110v11h-32v13h-12v11h-20v-11h-24v-13h-22v-11h-33v-12
h-186v12h-34v11h-22v13h-22v11h-21v12h-11v11h-12v11h-9v12h-13v24h-9v22h-12v23h-11v24h-8v186l17 8h-9q0 -1 0.5 1.5t1 5.5t1.5 5.5l1 2.5v-2l17 8h-10q0 -2 0.5 1.5t1 8t1.5 8.5l1 4v-6l17 8h-9v12h9v12h15q1 0 2 1v2l17 8h-4q-1 -1 -2 -1q-2 0 -2 4l17 8h-9v11h21v12h22
v11h22v14h-11v13h-11v22h-11v34h-7v128l17 8h-10q0 1 1 2l2 6h-1q0 1 0.5 2.5t0.5 2.5t1 2l16 8h-9q0 1 1 2l2 6h-1q0 1 0.5 2.5t0.5 2.5t1 2l17 8h-10v13h11v11h26v3l18 9h-10v11h21v11zM155 257h10v-34h12v-22h11v-13h11v-11h11v-23h21v-12h13v-12h32v-11h33v11h34v12h9
v12h24q0 -2 1 -2v1l2 4l17 8h-10v13h-11v23h-11v23h-12v24h-9v12h-11v22h-12v12h-11v11h-11v23h-12v12h-10v12h-10v11h-12v11h-9v12l-1 -12h-13v-11h-21v-11h-15q0 -1 -0.5 -4.5t-0.5 -5.5l-23 -2h17v-12h-11v-23h-12v-33h-10v-15z" />
    <glyph glyph-name="quotesingle" unicode="'" horiz-adv-x="210" 
d="M14 888h32v13h99v-13h33v-11h23v-23h9v-91h-9q0 -17 -3 -34t-3 -34l-23 -2h17v-183h-15q0 -1 -0.5 -2.5t-0.5 -2.5l-16 -7h10v-11h-121v11h-10v12h-12v70h-10v113h-13v59h-5v104l17 9h-8v3l18 9h-9v11z" />
    <glyph glyph-name="parenleft" unicode="(" horiz-adv-x="401" 
d="M249 868h10v11h111v-11h11v-13h11l-6 -87l-22 -2h17v-22h-22v-11h-13v-14h-9v-11h-13v-13h-13q-1 -1 -1.5 -1t-0.5 -7l-22 -2h16v-11h-10v-12h-15q0 -1 -0.5 -4.5t-0.5 -5.5l-23 -2h17v-10h-11q0 -2 -1 -3q-2 -4 -2 -5h1q-1 -2 -1 -4.5t-1 -4.5q-1 -3 -1 -6v1l-23 -2h17
v-11h-11v-24h-11v-22h-11v-23h-12v-22h-10q0 -2 -1 -9.5t-2 -16.5q-1 -11 -2 -23v8l-16 -7h10q0 -13 -3 -27.5t-3 -28.5l-23 -2h17v-128h12v-57h11v-22h10v-36h12v-23h11v-23h11v-10h11v-24h11v-11h11v-13h11v-23h11v-10h10v-13h11v-11h23v-12h9v-11h13v-23h11v-12h11v-100
h-22v-13h-100v13h-10v10h-12v12h-10v11h-11v10h-12v12h-9v12h-11v12h-12v12h-11v12h-11v10h-12v12h-10v11h-10v23h-12v13h-12v23h-10v22h-12v12h-10v11h-11v23h-10v35h-11v46h-12v23h-11v115h-7v83l17 8h-10v80h11q0 10 2 22t2 15l18 8h-10v37h14v4l17 8h-10v33h11v10h10
q0 -2 0.5 1.5t1 8t1.5 8.5t2 4v-6l16 8h-9v24h16q-1 0 -1 3l16 8h-9v11h14q0 1 0.5 0.5t0.5 3.5l17 8h-10v11h10q0 1 1 2l2 6h-1q0 1 0.5 2.5t0.5 2.5t1 2l18 8h-10v13h17q-2 0 -2 2l17 9h-10v12h13q0 -2 1 -2q0 1 1 1l2 1h-1v2l17 9h-10v11h9q0 -2 0.5 1.5t1 8t1.5 8.5l1 4
v-6l18 8h-10v12h11v9h22v13z" />
    <glyph glyph-name="parenright" unicode=")" horiz-adv-x="388" 
d="M-5 879h10v12h109v-12h13v-11h11v-13h11v-9h11v-12h11v-12h22v-23h11v-11h12v-12h10v-11h9v-13h13v-9h9v-25h13v-12h10v-11h12v-23h11v-12h11v-24h9v-21h13v-12h10v-22h12v-48h11v-69h6v-243l-16 -8h10v-35h-11q0 -2 -1 -3q-2 -4 -2 -5h1q-1 -3 -2 -6.5t-1 -6.5l-23 -2
h16v-34h-10v-22h-13q-1 0 -3 -10t-2 -12l-23 -2h15q0 -1 -0.5 -4.5t-0.5 -5.5l-22 -2h16v-22h-18q1 -1 1.5 -4.5t0.5 -5.5l-23 -2h16v-24h-10v-11h-13v-12h-9v-11h-13v-12h-9v-10h-10v-12h-12v-12h-15q0 -1 -0.5 -4.5t-0.5 -5.5l-23 -2h17v-12h-11v-12h-14l-1 1l-1 -1
q-1 -1 -2 -1.5t-2 -1.5h3v-5l-22 -2h17q0 -2 -1 -3q-2 -4 -2 -5h1q-1 -3 -2 -6.5t-1 -6.5l-23 -2h17v-10h-33v-13h-88v13h-12v22h-10v67h10v-1q1 1 1.5 3.5t1.5 4.5h-1l2 8l17 8h-9v10h12q1 0 1 -1q1 2 2 3.5t1 2.5l15 8h-9v11h26v4l17 8h-8q1 0 2 1v2l16 8h-9v23h13
q1 -1 1 -2l2 6l16 9h-9v10h9q0 2 1 5l2 6l1 4l17 9h-9v12h15v4l17 8h-10v21h11v24h10v-1l3 6h-2q0 3 2 7q1 2 1 3l18 8h-9v24h9q0 9 1.5 22t1.5 15l17 8h-9q0 10 2 20.5t2 15.5l17 8h-10v131h-11v33h-11v47h-9v23h-13v35h-10v22h-11v24h-11v11h-11v24h-12v10h-9v12h-12v12
h-11v11h-12v23h-10v11h-22v14h-11v11h-11v10h-12v12h-10v113z" />
    <glyph glyph-name="asterisk" unicode="*" horiz-adv-x="685" 
d="M13 695h10v11h130v-11h23v-11h22v-12h24v-12h21v-11h10v-13h12v38h-11v59h-7v113l17 9h-9l2 5l17 8h-9v11h131v-11h22v-34h12v-68h-12v-47h-11q0 -20 -2.5 -38.5t-2.5 -38.5l-23 -2h17v-4h23h1q1 2 1 5l18 8h-10v11h21v12h22v12h24v75l47 -53h83v-11h11v-11h12v-24h6v-88
l-6 -2h-17h15q-2 -6 -2 -10h1q-2 -8 -2 -11l-23 -2h16v-11h-76v-12h-55v-10h-44v-13l-27 -2h27v-12h12v-11h9v-12h13v-11h10v-11h11v-11h12v-12h9v-12h12v-11h11v-23h11l-5 -77l-23 -2h17v-12h-11v-22h-21v-12h-111v12h-10v12h-12v22h-11v11h-11v23h-11v24h-11v34h-11v11
h-11v24h-3q0 -1 -1 -5t-1 -6l-23 -2h17v-22h-10v-23h-12v-23h-9v-23h-13v-35h-10v-22h-22v-12h-111v12h-22v12h-9v33h-13l4 60l18 8h-9v23h9v11h10v12h16v4l17 8h-8q1 0 2 1v2l17 8h-10v11h14q1 0 2 1v2l17 8h-10v12h11v11h14v2q0 1 1 2l16 8h-8q1 0 2 1v2l13 8l-4 4h-45v10
h-89v12h-44v11h-31v23h-9v94l18 8h-9v23zM319 559v-15h22v15h-22zM649 570l-2 -11l2 12v-1z" />
    <glyph glyph-name="plus" unicode="+" horiz-adv-x="777" 
d="M309 777h23v10h87v-10h10v-12h12v-11h10v-230h-10v-25h10v-11h12v-13h264v-11h9v-12h12l-6 -89h-23h17v-23h-43v-11h-143v11h-76v-11h-23v-83h-10v-35h10v-160h-12q-2 0 -7 -5h3v1q1 0 1 -5l-23 -1h16v-11h-23v-12h-74v12h-23v21h-12v266h-10v12h-44v11h-231v23h-10v68
h10q0 1 1 2l2 6h-1l2 6v-1l17 8h-10v12h67v11h207q0 75 2 145t2 136l17 9h-9v12z" />
    <glyph glyph-name="comma" unicode="," horiz-adv-x="223" 
d="M46 152h23v13h98v-13h11v-11h23v-13h10v-21h6v-182l-23 -2h17v-23l-14 1q-2 -1 -2 -4.5v-5.5l-23 -2h17v-11h-15q0 -1 -0.5 -4.5t-0.5 -5.5l-23 -2h17v-12h-10v-10h-12v-12h-14q-2 -4 -2 -10l-23 -2h17v-11h-20v-13h-79v13h-22v23h-9v67h9l3 5h-2q0 3 2 7q1 2 1 3l17 8
h-9v11h10l3 5h-2q0 3 2 7q1 2 1 3l18 8h-9v11h9v14h-9v11h-13v36h-10v79h10v34h22v11z" />
    <glyph glyph-name="hyphen" unicode="-" horiz-adv-x="493" 
d="M7 431h33v12h176v-12h88v12h153v-12h12v-11h11v-113h-11v-24h-45v-10h-404v10h-13v12h-10v125h10v11z" />
    <glyph glyph-name="period" unicode="." horiz-adv-x="248" 
d="M38 152h44v13h75v-13h44v-11h12v-13h11v-21h11v-25h12l-6 -59l-15 -8h9q0 -2 -0.5 -7t-1.5 -7l-3 -18l-23 -2h17v-12h-11v-10h-17q0 -2 -0.5 -5t-0.5 -5l-22 -2h15q-1 -2 -1 -9l-23 -2h17v-13h-99v13h-33v11h-22v12h-12v10h-11v23h-7v71l17 8h-10q0 11 2 23t2 17l18 10
h-3l14 7h-10v13h11v11zM189 -52l-1 -1zM19 118v1l2 1zM22 121h1l-2 -1z" />
    <glyph glyph-name="slash" unicode="/" horiz-adv-x="460" 
d="M307 868l17 9h-9v11h110v-11h11v-12h6v-94l-16 -8h10v-23h-11q0 -2 -1 -3q-2 -4 -2 -5h1q-1 -2 -1 -4.5t-1 -4.5q-1 -3 -1 -6v1l-23 -2h17v-23h-11v-33h-11v-35h-11q-1 0 -3 -9.5t-2 -10.5l-23 -2h17v-35h-11v-25h-10q-1 -1 -2 -3t-2 -3t-1 -3h1q-1 -2 -1 -5q0 -1 -1 -2
v1l-15 -7h9v-45h-10q0 -3 -1 -7.5t-2 -7.5l-3 -18l-22 -2h17v-34h-10v-23h-13v-35h-10v-34h-12v-25h-11q0 -2 -1 -6.5t-2 -9.5l-2 -14v4l-16 -7h10q0 -2 -1 -7.5t-2 -11.5l-2 -16v1l-22 -2h16q0 -1 -1 -3q-2 -4 -2 -6h1l-3 -12v1l-23 -2h17v-45h-10v-24h-12v-22h-11v-46h-10
q0 -1 -1 -6.5t-2 -12t-2 -11.5l-1 -5v6l-15 -7h9v-35h-9v-45h-13q0 -2 -1 -9.5t-2 -15.5q-1 -10 -2 -21v1l-23 -2h13q-2 0 -4 -5h3v1q1 0 1 -5l-23 -2h17v-11h-33v-12h-78v12h-10v11h-8v82l18 8h-10v46h10q0 6 2 14t2 11l17 8h-10q0 6 2.5 16t2.5 12l16 9h-9q0 7 2 15.5
t2 9.5l13 11h-6q2 3 2.5 8t1.5 5v-1l16 9h-9l3 6h-2q1 3 1.5 7.5t1.5 4.5v-4l17 9h-9v35h9q0 6 2 14t2 12l18 8h-9v34h10q0 6 2 15t2 12l17 8h-9v25h10v23h10q0 5 2 13t2 11l17 9h-10v47h11q0 5 2 13t2 12l17 8h-9q0 1 2 7h-1l2 8l17 8h-9q0 7 2 15.5t2 11.5l17 8h-10v34h11
q0 6 2 14t2 12l17 8h-10v36h10l3 6h-2q1 3 1.5 7.5t1.5 4.5v-4l17 9h-10q0 8 2.5 16t2.5 10l16 8h-9q0 7 2 15.5t2 11.5l17 8h-10v34h10q0 6 2 15t2 12l18 8h-10v22h10v36h10zM172 473h1l-1 -2v2z" />
    <glyph glyph-name="zero" unicode="0" horiz-adv-x="577" 
d="M163 847h32v11h165v-11h44v-12h13v-12h20v-10h11v-13h11v-11h12v-12h10v-11h11v-10h11v-24h11v-36h10v-23h13v-57h10v-70h6v-249l-23 -2h17v-69h-10v-35h-13q0 -2 -1 -7t-2 -11q-1 -7 -2 -15v1l-23 -2h14q0 -1 -0.5 -4.5t-0.5 -5.5l-23 -2h17q0 -5 -2 -11t-2 -11l-23 -2
h15q-1 -2 -2.5 -8t-1.5 -11l-23 -2h17v-12h-10v-12h-12v-23l-25 1q-2 -4 -2 -10l-23 -2h17v-12h-9v-11h-13v-10h-44v-13h-131v13h-56v10h-21v11h-23v12h-9v11h-23v12h-12v11h-9v12h-12v24h-10v22h-13v23h-11v34h-9v35h-13v81h-9v217h9q0 23 2.5 47.5t2.5 47.5l17 8h-9v35h9
v34h11q0 1 1 2l2 6h-1q0 1 0.5 2.5t0.5 2.5t1 2l18 8h-9v25h14v3l17 9h-9v21h13v3l17 9h-9v11h12q1 -1 1 -2v1v1q2 2 2 5l17 8h-9v10h9v12h34v12zM393 548h-10v46h-12v35h-11v24h-9v23h-13v10h-10v12h-12v12h-21v11h-33v-11h-23v-12h-9v-12h-13v-10h-10q0 -1 -1 -3
q-2 -4 -2 -6h1q-1 -2 -1.5 -7.5t-1.5 -5.5v6l-16 -7h9v-24h-9q0 -7 -2 -15l-3 -18l-24 -2h17q0 -2 -1 -9t-2 -15q-1 -10 -2 -21v1l-23 -2h17q0 -21 -3 -45t-3 -44l-23 -2h17v-94h12v-70h11v-45h12v-35h9v-12h12v-23h10v-11h13v-12h9v-11h23v-13h10v13h23v11h25v4l17 8h-9v11
h14v4l18 8h-9v11h9v36h11q0 1 1 2t3 5h-2l2 6l18 8h-10v47h10v243z" />
    <glyph glyph-name="one" unicode="1" horiz-adv-x="542" 
d="M141 847h55v11h110v-11h11v-12h10v-620h-10v-37h10v-23h12v-11h10v-13h164v-10h12v-112h-483v10h-19v100l25 2h-17v10h20v13h78v-13h12v13h25l3 3h-3l17 8h-10v128h-7v95l17 8h-10v82h-7v151l17 8h-10v71h-164v23h-8v84l18 8h-10v10h10v12h122v12z" />
    <glyph glyph-name="two" unicode="2" horiz-adv-x="554" 
d="M124 273l17 9h-5l-1 -1q-2 0 -2 3l17 9h-9v12h15v3l16 9h-9v11h14v4l18 8h-9v23h9v11h17v4l17 8h-6l3 3h-3l16 8h-9v12h9v22h15v4l17 8h-10v10h11q0 1 1 2l2 6h-1l2 8l17 8h-10v13h11l3 6h-2q1 3 1.5 7.5t1.5 4.5v-4l18 9h-9v23h9q0 5 2 14t2 11l17 9h-9v34h10v49h-10v23
h-12v10h-9v12h-13v12h-11v11h-33v12h-10v-12h-13q-1 0 -3.5 -1.5t-4.5 -3.5h4v1q1 0 1 -5l-23 -2h16v-12h-10v-12h-13v-10h-8v-59h-13v-23h-12l-1 1q-1 0 -6 -4h3v-5l-23 -2h17v-13h-108v13h-12v10h-7v94l17 8h-10q0 7 2.5 15.5t2.5 11.5l16 9h-9v12h9l2 2q1 1 3 5h-2l2 6
l18 9h-10v11h11v12h9v11h13q1 -1 1 -2q2 6 2 7l17 8l-7 -1l1 1l-1 2l18 8h-9v12h21v12h45v11h163v-11h33v-12h22v-12h12v-10h10v-13h12v-11h10v-12h12v-11h10v-10h11v-24h11v-36h10v-148h-10v1l-1 -4t-2 -9.5t-1.5 -11t-0.5 -7.5l-23 -2h17v-35h-11v-23h-13q-1 -1 -1 -4
q0 -2 -1 -3l-16 -7h9v-8h-13q-1 -1 -1 -4q0 -1 -1 -2l-16 -7h9v-24h-12l-1 1q-1 -2 -1.5 -3.5t-0.5 -6.5l-24 -2h17v-13h-9v-10h-13v-23h-12l-1 1q-1 0 -6 -4h3v-5l-23 -2h17v-13l-15 1l-1 -1q-1 -2 -1 -4.5v-4.5l-22 -2h17v-24h-9v-10h-13v-11h-10v-13h-14l-6 -5h3v1
q1 0 1 -5l-23 -2h16v-12h-10v-11h-12v-13h-9v-11h-14h-1h-2l-3 -3h3l-16 -8h10q0 -2 -1 -3q-2 -4 -2 -5h1q-1 -2 -1.5 -7.5t-1.5 -5.5v4l-16 -8h196v12h22v11h88v-11h17v-100l-23 -2h17v-35h-11v-11h-22v-10h-176v10h-21v-10h-275v10h-12v11h-9v101h9q0 -2 0.5 1.5t1 8
t1.5 8.5l1 4q1 0 1 -6l16 8h-9v12h13v-2q1 0 6 5h-3l16 8h-9v12h12q1 0 2 1v2l4 2l-2 -2l2 2l14 6h-10v12h11v11h12v2q0 1 1 2l17 9h-9v21h10v14h17v1zM219 386h4l-2 -1q-1 0 -1 -1q-1 0 -1 2zM108 813l3 -1l-2 -1q-1 0 -1 2z" />
    <glyph glyph-name="three" unicode="3" horiz-adv-x="554" 
d="M26 121h-12l-1 2l16 8h-9v13h99v-13h22v-10h22v-11h44v-12h43v12h33v11h27v2l17 8h-9q2 2 2 5l17 8h-9v11h10v-1l1 2q0 2 2 6h-1l2 8l17 8h-9q0 1 1 2l2 6h-1q0 1 0.5 2.5t0.5 2.5t1 2l17 8h-10q0 6 2 15t2 12l17 9h-9v36h-12v34h-11v11h-12v23h-22v12h-9v11h-24v10h-88
v13h-9v11h-9v83l18 9h-9v11h64v12h33v11h24v22h9l3 6h-2q0 1 0.5 3.5t0.5 5.5q0 4 1 7q1 0 1 -7l17 9h-9v24h10v23h-10v24h-12v22h-9v13h-13v10h-11v12h-11v12h-32v-12h-15q0 -1 -0.5 -2.5t-0.5 -2.5l-16 -7h9v-10h-10v-23h-13v-24h-8v-12h-13v-12h-121v12h-9v102h9
q0 5 2.5 15t2.5 13l18 9h-10v10h11v23h9v11h22v13h22v10h23v12h56v12h87v-12h54v-12h33v-10h22v-13h22v-11h12v-12h10v-11h12v-22h10v-12h11v-47h6v-157l-23 -2h17v-35h-11v-23h-13l-7 -5h4v1q1 0 1 -5l-23 -2h16v-14h12v-12h10v-11h11v-11h11v-12h10v-23h12v-23h11v-46h6
v-117l-15 -8h9v-35h-11v-33h-12v-24h-10q0 -1 -1 -4l-2 -6h1l-3 -12v1l-23 -2h17v-12h-11v-11h-17q1 -1 1.5 -4.5t0.5 -5.5l-23 -2h16v-11h-10v-10h-22v-13h-34v-11h-33v-13h-229v13h-35v11h-20v13h-22v10h-23v11h-12v23h-6v66h10zM12 119h-3v2l4 -1zM317 131q1 -1 1 -2v-9z
" />
    <glyph glyph-name="four" unicode="4" horiz-adv-x="649" 
d="M256 861l17 8h-9v12h75v-12h34v-11h10v-113h-10q-2 -6 -3 -10q-3 -8 -3 -12l-22 -2h17v-23h-10v-22h-13q0 -1 -1 -3q-2 -4 -2 -6h1q-1 -2 -1.5 -7.5t-1.5 -5.5v6l-16 -7h7q0 -1 -0.5 -4t-0.5 -6l-23 -2h17q0 -2 -1 -7.5t-2 -11.5l-2 -16v1l-23 -2h17v-21h-10v-24h-11v-23
h-11q0 1 -1 1t-2 -4.5t-1 -6.5h1q-2 -8 -2 -10l-23 -2h15q0 -5 -2 -11t-2 -11l-6 -2h-17h15q-2 -6 -2 -10h1q-2 -8 -2 -11l-23 -2h16v-25h-9v-21h-13v-24l-12 1q0 -1 -1 -3t-1 -7l-23 -2h16v-23h-10v-23h-14l-1 1l-1 -1q-1 -1 -2 -1.5t-2 -1.5h3v-5l-23 -2h17v-24l-26 -2h37
v-12h133v12h31v1l3 5h-2q1 3 1.5 7.5t1.5 4.5v-4l18 9h-9q0 50 2 99.5t2 99.5l17 9h-7l17 10h-9v13h98v-13h12v-10h9v-219h12v-12h12v-12h87v-11h10v-24h13v-67h-13v-11h-10v-11h-92q0 -2 -0.5 -4.5t-0.5 -5.5l-23 -2h17q0 -24 -2.5 -50.5t-2.5 -51.5l-23 -2h16
q0 -11 -2.5 -21t-2.5 -21l-23 -2h15q0 -1 -0.5 -5t-0.5 -6l-23 -2h16v-11h-98v11h-22v34h-13v139h-308v11h-21v22h-10v138h10q0 7 3 15.5t2 10.5l18 8h-10v12h8v-2q1 0 4 9h-1l2 8l16 8h-9v22h16v4l17 8h-10v23h11q0 1 1 2l2 6h-1q0 1 0.5 2.5t0.5 2.5t1 2l18 9h-10v23h10
q1 4 2 9.5t1 4.5l17 9h-10q0 5 2 14t2 11l17 9h-9v24h9l3 6h-2q0 1 0.5 3.5t0.5 4.5q0 3 1 6q1 0 1 -6l18 8h-9v23h10v-1l1 2q0 2 2 6h-1l2 8l17 8h-9v34h15v4l15 8h-9v36h10q0 5 2 15q1 4 3 9l17 9h-9v23h10q-1 0 4 5h-3l4 10l16 8h-9v24h16q-1 0 -1 3l16 8h-8zM363 536h4
l-2 -1q-1 0 -1 -1q-1 0 -1 2zM252 491l-2 1h2v-1zM264 515h-2q1 0 1 0.5t1 0.5v-1z" />
    <glyph glyph-name="five" unicode="5" horiz-adv-x="554" 
d="M97 835h265v12h98v-12h23v-114h-13v-11h-22v-12h-219v-12h-11q0 -4 -0.5 -7.5t-1.5 -8.5l-3 -27l-23 -2h17v-47h22v-12h143v-12h23v-11h21v-13h11v-10h21v-12h12v-11h10v-12h13v-24h9v-11h11v-23h11v-23h12v-46h11v-112h-11l-3 -36q-1 -8 -1.5 -15.5t-0.5 -12.5l-16 -7h8
q0 -1 -1 -2.5t-2 -3.5h1q-2 -6 -2 -9l-16 -7h10q0 -2 -1 -3q-2 -4 -2 -5h1q-1 -2 -1 -4.5t-1 -4.5q-1 -3 -1 -6v1l-22 -2h16v-11h-9v-34h-13v-12h-14q0 -1 -0.5 -4.5t-0.5 -5.5l-23 -2h16v-23h-10v-11h-22v-12h-10v-11h-23v-10h-22v-13h-44v-11h-231v11h-43v13h-23v10h-11
v11h-7v89l24 2h-17v10h121v-10h44v-11h23v11h33v10h21v13h23v11h21v12h14v2q0 1 1 1l17 8h-10v12h11q0 1 1 2l2 6h-1l2 8v-1l18 8h-10v11h10q0 1 1 2l2 6h-1q0 1 0.5 2.5t0.5 2.5t1 2l18 9h-10v57l28 2h-28v46h-12v21h-10v13h-12v23h-21v12h-12v13h-12v8h-22v14h-54v-14
h-131v25h-11v194h11v161h21v12z" />
    <glyph glyph-name="six" unicode="6" horiz-adv-x="554" 
d="M274 858h66v11h98v-11h22v-113h-22v-12h-55v-12h-43v-11h-27l-5 -5h3q0 1 1 1v-1l-16 -7h10v-12h-23v-10h-10v-13h-12q0 1 -1 1q-2 0 -3 -1l-2 -2q1 0 1 0.5t1 0.5t1 -2l-15 -7h9v-24h-11v-12h-12v-12h-12q-1 -2 -2.5 -8t-1.5 -11l-23 -2h17v-24h-11v2q-1 0 -2 -5t-2 -7
h1q-2 -8 -2 -11l-22 -2h17l11 -1v10h33v13h142v-13h34v-10h10v-12h22v-11h22v-12h10v-11h13v-13h9v-11h11v-35h11v-11h12v-46h11v-136h-11l-3 -33q-1 -8 -1.5 -16t-0.5 -13l-16 -7h9q0 -7 -2 -15l-3 -18l-23 -2h17q0 -2 -1 -3q-2 -4 -2 -5h1l-3 -12l-22 -2h16v-24h-9v-12
h-13v-23h-22v-11h-21v-12h-11v-11h-10v-10h-23v-13h-43v-11h-143v11h-44v13h-22v10h-23v11h-11v12h-11v11h-10v23h-11v12h-13v24h-9v22h-10v23h-13v45h-11v60h-7v196l17 8h-10v58h11q0 9 2 20.5t2 16.5l18 9h-9v34h10v35h9v-2q1 0 4 9h-1l2 8l18 8h-10q0 1 1 2l2 6h-1
q2 10 2 13l24 2h-15q1 2 1 3l17 8h-10v23h11v13h15v3l17 9h-9v12h12q0 -2 1 -2t3 2h-1l17 10h-4l-1 -1q-2 0 -2 3l18 9h-10v12h10v11h24q0 -2 1 -2q2 4 2 7l17 8h-10v10h33v12h21v12h23v11zM163 258h11v-34h12v-23h10v-23h11v-11h11v-12h11v-11h12v-13h11v-10h31v10h26
q0 1 0.5 2t0.5 3l17 8h-10v11h15v4l18 8h-10v23h11v-1q1 0 3 2v2l18 8h-10v36h11v104h-11v12h-12v21h-10v13h-12v11h-21v12h-55v-12h-23v-11h-15q0 -1 -0.5 -5t-0.5 -6l-23 -2h17v-10h-18q1 -1 1.5 -4t0.5 -5l-22 -2h16l-2 -5h1q-2 -3 -2.5 -7.5t-0.5 -7.5l-24 -2h17
q0 -1 -1 -4l-2 -6h1l-3 -12l-23 -2h17v-49z" />
    <glyph glyph-name="seven" unicode="7" horiz-adv-x="529" 
d="M7 823h22v12h99v-12h56v12h296v-12h11v-10h10v-13h6v-116l-16 -8h10v-23h-10v-24h-11v-24h-11q0 -2 -1 -9t-2 -15l-2 -20v1l-23 -2h17v-34h-11q0 -1 -1 -3q-2 -4 -2 -6h1q-1 -2 -1 -4t-1 -4q-1 -3 -1 -5v1l-23 -2h17v-23h-11v2q-1 0 -2 -5t-2 -7h1q-2 -8 -2 -11l-5 -2
h-17h15q-2 -6 -2 -10h1q-1 -3 -2 -5.5t-1 -4.5l-23 -2h17v-25h-10q0 -2 -1 -9.5t-2 -15.5t-2 -14.5l-1 -6.5v2l-23 -2h17v-33h-10v-13h-13v-23h-9q0 -2 -1 -7t-2.5 -10.5t-2 -10l-0.5 -4.5v1l-23 -2h17q0 -8 -2 -17t-2 -17l-23 -2h17q0 -4 -1.5 -8t-2.5 -8l-2 -12l-15 -7h9
v-46h-9v-11h-13v-58h-11v-23h-12v-34h-10v-10h-9v-24h-13v-13h-22v-11h-98v11h-12v13h-9v113h9q0 3 2 9.5t2 11.5l24 2h-15q0 1 2 7h-1l2 8l17 8h-10q0 6 2 14t2 12l17 8h-9v23h9q0 8 1.5 15.5t1.5 11.5l18 9h-9v21h10q0 1 1 2l2 6h-1q0 1 0.5 2.5t0.5 2.5t1 2l17 9h-9v35
h10v23h11q0 7 2 15.5t2 10.5l18 8h-10v23h10q0 6 2 14t2 12l17 8h-10v22h11q0 6 2 15.5t2 12.5l17 9h-10v23h15v3l18 8h-10v35h10q0 7 2 15.5t2 11.5l17 8h-10v22h11v-1l3 6h-2q0 3 2 7q1 2 1 3l17 8h-9v23h10v24h-318v12h-12v23h-10v92h10v10zM415 457l-2 1h2v-1zM118 121
h1l-1 -2v2z" />
    <glyph glyph-name="eight" unicode="8" horiz-adv-x="577" 
d="M163 858h32v11h165v-11h44v-11h22v-12h22v-12h11v-10h12v-24h10v-12h11v-21h11v-24h6v-170l-23 -2h17q0 -1 -2 -7t-2 -14l-7 -1l-16 -1h14q-2 -6 -2 -10h1q-2 -8 -2 -10l-23 -2h17v-12h-10v-12h-12v-11h-11v-14h23v-13h10v-10h11v-12h11v-11h11v-23h10v-11h13v-23h10v-46
h6v-118l-15 -8h9v-46h-10v-24l-33 -2h15v-5l-23 -2h14q0 -1 -0.5 -4.5t-0.5 -5.5l-23 -2h17v-12h-15q0 -1 -0.5 -4.5t-0.5 -5.5l-23 -2h17v-11h-10v-12h-12v-11h-11v-12h-22v-11h-22v-10h-66v-13h-121v13h-75v10h-22v11h-23v12h-12v11h-9v12h-12v11h-10v12h-12v24h-12v22h-9
v11h-13v57h-9v91h9q0 13 2.5 28.5t2.5 21.5l17 8h-9v23h9v23h16v4l17 8h-9v11h10v11h21v12h13q0 -2 1 -2q0 1 1 1l2 1h-1v2l17 8h-10v15h-11v12h-21v23h-12v12h-10v33h-12v36h-7v104l16 8h-9q0 7 2 15.5t2 11.5l17 9h-9v34h10v23h13q0 -2 1 -2q0 1 1 1l2 1h-1v2l16 9h-9
q2 2 2 5l17 8h-9v10h23v12h9v12h34v11zM163 224h11v-23h12v-23h9v-11h12v-12h10v-11h34v-13h44v13h21v11h26v4l18 8h-9v11h9v23h13l1 -1q2 4 2 5l17 8h-10v70h-11v24h-12v24h-9v10h-13v12h-22v11h-21v10h-56v-10h-22v-11h-14q0 -1 -0.5 -4.5t-0.5 -5.5l-24 -2h17v-10h-9
q0 -1 -1 -4l-2 -6h1l-3 -12l-24 -2h16q0 -5 -2 -11t-2 -11l-6 -2v-59zM360 676h-9v10h-13v24h-10v11h-21v12h-24v12h-10v-12h-22v-12h-21v-11h-13v-12h-14q0 -1 -0.5 -2.5t-0.5 -2.5l-16 -7h9v-33h-9v-26h9v-23h12v-10h10v-12h13v-12h9v-11h23v-13h33v13h21v11h22
q0 -2 0.5 1.5t1 8t1.5 8.5l1 4v-6l18 8h-9v22h9v60zM492 537l-2 1h2v-1zM86 800l1 -1v-1q0 1 -1 2z" />
    <glyph glyph-name="nine" unicode="9" horiz-adv-x="542" 
d="M141 847h53v11h133v-11h33v-12h34v-12h21v-10h10v-13h22v-11h13v-23h9v-10h12v-24h11v-24h11v-23h10v-58h7v-261l-23 -2h16v-46h-10q0 -9 -2 -19l-3 -24l-22 -2h16q0 -3 -1 -10.5t-2 -15.5l-2 -20v1l-6 -2h-17h15q-2 -6 -2 -10h1q-1 -2 -1 -5q0 -1 -1 -2l-16 -7h9v-22h-9
v-11h-13v-24h-12l-1 1q-1 -2 -1.5 -3.5t-0.5 -6.5l-24 -2h17v-22h-14q0 -1 -1 -4.5t-1 -5.5l-23 -2h15q0 -1 -0.5 -4.5t-0.5 -5.5l-23 -2h17v-12l-15 1q-2 -4 -2 -10l-23 -2h17v-12h-11v-11h-21v-12h-22v-11h-23v-10h-22v-13h-33v-11h-44v-13h-87v13h-44v24h-13l5 56l17 9
h-9v24h21v12h45v11h32v10h32v13h23v11h22q0 1 2 7h-1l3 8l17 8h-9v12h24l2 2l17 9h-8q2 2 2 4l16 8h-9v24h11q0 1 0.5 1.5t0.5 1.5l2 10l16 8h-9v24l28 2h-16q0 5 2 11h-177v12h-35v11h-21v13h-12v10h-10v12h-11v11h-13v10h-9v24h-12v24h-11v21h-10v37h-8v174l18 8h-10v34
h10q0 7 2 15.5t2 11.5l17 9h-10l4 6h-3q0 1 2 9q1 4 1 7q1 0 1 -7l16 9h-9v10l27 2h-17q2 3 2.5 8t1.5 5v-1l17 9h-9v11h22q0 -2 1 -2q2 4 2 7l17 8h-9v10h21v12h23v12zM152 559h11v-46h11v-12h11v-24h10v-11h11v-13h22v-10h23v-12h9v12h28v2l16 8h-9v13h11v11h21v24h16v3
l17 9h-7v3l17 8h-10v93h-11v24h-10v22h-12v23h-11v12h-10v12h-23v11h-32v-11h-23v-12h-22v-12l-31 -2h15l-10 -8h5v-23h-15q0 -1 -0.5 -4t-0.5 -6l-23 -2h17v-70h-11v-12zM339 305v-5l10 5h-10zM481 226l-2 1h2v-1zM286 200v-1q0 1 -1 2h1v-1z" />
    <glyph glyph-name="colon" unicode=":" horiz-adv-x="199" 
d="M15 137h20v13h99v-13h33v-9h21v-23h13v-103h-13v-11h-14q0 -1 -0.5 -5t-0.5 -6l-23 -2h17v-10h-143v10h-9v13h-13v34h-9v67h9q0 1 1 2l2 6h-1q0 1 0.5 2.5t0.5 2.5t1 2l18 9h-9v21zM15 460h9v12h132v-12h11v-11h21v-34h13v-67h-13v-35h-10v-13h-22v-11h-132v11h-9v13h-13
v35h-9v67h9q0 7 2 15.5t2 10.5l9 8v11z" />
    <glyph glyph-name="semicolon" unicode=";" horiz-adv-x="243" 
d="M47 136q2 5 7.5 9t18.5 5q-5 3 -6 5.5t-1 7.5h40q2 1 18 1q1 0 1.5 -0.5t1.5 -0.5h11l12 -5h25l17 -25h-3l3 -5h-2l6 -5l31 29v-47l11 19v-110v-15.5t1 -7.5q0 -22 -7 -30t-18 -12h8l-12 -7h7q0 -8 -4.5 -14.5t-16.5 -12.5h8q0 -3 -18 -11h9v-7l-6 -6l-16 -9h10
q-1 -2 -20 -12h9q-2 -7 -8.5 -10.5t-25.5 -3.5l-5 -2h17v-2q-12 -14 -28 -19h8q-2 -3 -6 -5.5t-15 -4.5h13q-2 -6 -11 -10t-29 -4h-7q-8 -3 -16 -3q-22 0 -32 16h-15v43v8.5t-2 5.5q0 18 10 32h-2q0 2 -0.5 2.5t-0.5 2.5q0 12 18 14q2 5 4.5 9t16.5 6h-6l26 16h-10v5v5
q0 2 1 3h12q-9 2 -15 3.5t-6 3.5h6q-5 1 -9 2t-6 3l-7 -21l-7 29l-1 5q-5 20 -7.5 31.5t-4 17.5t-1.5 8.5v4.5q0 14 6 20.5t19 9.5h-12v14q0 5 4.5 14t17.5 17h-9zM50 469h-9q1 2 5.5 6.5t13.5 9.5h-9v13h54q2 1 18 1q19 0 27 -3t10 -9q9 -1 17 -3t10 -10h-6q5 -4 9.5 -7
t5.5 -5h-11l23 -9h8v-96q0 -2 0.5 -5t0.5 -6q0 -18 -5 -26t-14 -10v-4q-1 -6 -3 -9t-10 -5l-10 -9h6v-12q-5 0 -17.5 -1t-19.5 -1h-4q-11 -11 -31 -11q-11 0 -24.5 1.5t-16.5 2.5q-8 -2 -10 -2q-10 0 -15.5 6.5t-7.5 16.5h4q-13 1 -15 11h10q-9 5 -15 10t-7 15h5
q-11 8 -13 18h-9v33q-1 3 -1 8.5v8.5q0 5 2.5 11t4.5 11q-2 3 -2 10q0 13 9.5 22.5t20.5 11.5h-11q7 10 24 12zM224 -51h-2l1 1z" />
    <glyph glyph-name="less" unicode="&#x3c;" horiz-adv-x="370" 
d="M-9 295l4 10v72l-4 10l288 224v-27l28 14v-12l3 3l66 -115l-30 -2h17v-7t1 -6l-2 2l3 -8l-96 -57l-4 4l-67 -60l61 -54l5 6l100 -64l-3 -7h-4q2 -2 9 -2l-2 -9h-11l20 -8l-65 -110l-7 6h-22v-25z" />
    <glyph glyph-name="equal" unicode="=" horiz-adv-x="649" 
d="M198 554v-11h121v11h132v-11h164v-12h7v-88l-24 -2h17v-23h-66v-11h-515v11h-22v23h-12v79h16v3l17 8h-10v12h66v11h109zM231 382v-12h384v-24h12l-5 -81l-16 -8h9v-13h-297v-11h-132v11h-163v13h-11v11h-12v78h13q0 -2 1 -2l2 2l4 4h-3l-1 -1v2l17 9h-10v10h124l10 12
h74z" />
    <glyph glyph-name="greater" unicode="&#x3e;" horiz-adv-x="370" 
d="M362 377v-72l4 -10l-288 -222l-2 25l-20 -10l-5 7l-4 -4l-58 111l8 7h-5q0 2 -1.5 4t-1.5 4h3l-3 4h8l-2 4t-3 3l117 71v-2l50 44l-65 57l-4 -4l-98 60l4 8h5q-1 1 -2 1.5t-6 0.5v8h11l-20 8l64 111l6 -6l5 8l18 -9q0 7 0.5 16t0.5 11l286 -222zM-8 228h-1v1z" />
    <glyph glyph-name="question" unicode="?" horiz-adv-x="447" 
d="M100 812l17 9h-10v13h32v11h154v-11h43v-13h12v-10h22v-13h11v-11h11v-10h11v-12h11v-11h11v-37h11v-147h-11q0 -7 -2 -15l-3 -18l-23 -2h17v-22h-11v-23h-11v-11h-14q-1 -1 -1 -4q0 -2 -1 -3l-16 -7h10v-10h-11v-12h-14h-1h-2l-3 -3h3l-15 -8h9v-12h-9q-2 0 -4 -8h1
q-1 -2 -1 -4.5t-1 -4.5q-1 -3 -1 -6v1l-22 -2h17v-10h-16q0 -1 -0.5 -4.5t-0.5 -5.5l-23 -2h17v-21h-10v-24h-12v-83h-11v-9h-121v9h-10v126h10q0 6 2 15.5t2 12.5l17 8h-9q0 1 2 7h-1l2 8l17 8h-8q1 0 2 1v2l17 8h-10v22h11v24h23q0 1 0.5 2t0.5 3l2 10l17 9h-10v10h15v3
l17 8h-10q0 1 1 2l2 6h-1q0 1 2 5q1 1 1 3l16 9h-9l3 6h-2q1 3 1.5 7.5t1.5 4.5v-4l17 9h-10v23h10v35h-10v35h-11v22h-23v12h-33v-12h-12v-11h-10v-24h-9v-91h-13v-11h-9v-11h-123v11h-10v11h-8v128l18 8h-10v11h10q0 1 1 2l2 6h-1l2 8l17 8h-10v25h31h-15v2l17 9h-10v21
h23v13h25v1zM271 222v-11h22v-11h23v-23h11v-24h9v-90h-9q0 2 -1 2t-2 -5t-2 -7h1q-2 -8 -2 -11l-22 -1h17v-23h-23v-11h-164v11h-12v12h-6v127l17 8h-7v4l18 8h-10v23h21v11h22v11h99zM150 408h1l-1 -2v2z" />
    <glyph glyph-name="at" unicode="@" horiz-adv-x="708" 
d="M244 855h43v13h109v-13h100v-9h32v-12h22v-12h10v-12h12v-11h22v-11h12v-12h10v-24h10v-9h12v-37h11v-34h11v-69h11v-67h-11q0 -3 -1 -12t-2 -19l-2 -26v2l-23 -2h17v-58h-11v-35h-12v-58h-10v-38h10v-19h23v-14h22v-11h11v-102h-22v-12h-121v12h-48q0 -2 -0.5 -5
t-0.5 -5l-23 -2h17v-11h-153v11h-34v12h-22v11h-9v13h-12v10h-10v12h-13v11h-11v23h-11v58h-11v91h11q0 13 2 27.5t2 22.5l17 8h-10v45h11q0 1 1 2l2 6h-1q0 1 0.5 2.5t0.5 2.5t1 2l18 8h-9q0 1 1 2l2 6h-1l2 8l11 9q-1 0 -1 1l17 8h-9v11h12v2q0 1 1 2l17 9h-9v12h10v12h34
v12h32v10h133v-10h21v47h-12v22h-10v12h-10v11h-11v10h-12v13h-22v11h-32v14h-34v11h-21v-11h-44v-14h-22v-11h-27q0 -2 -0.5 -5.5t-0.5 -5.5l-23 -2h17v-10h-10v-11h-13v-12h-8v-12h-11v-10h-13v-24h-9q0 -1 -1 -4l-2 -6h1l-3 -12v1l-7 -1l-16 -1h14q-2 -6 -2 -10h1
q-2 -8 -2 -11l-6 -2h-17h15q-2 -6 -2 -10h1q-2 -8 -2 -11l-23 -2h16q0 -1 -1 -4l-2 -6h1q-2 -8 -2 -11l-23 -2h17q0 -11 -2.5 -21.5t-2.5 -21.5l-24 -2h17v-139h-9v-25h9v-69h12v-45h10v-47h12v-24h11v-21h12v-12h9v-23h13v-13h11v-10h8v-13h13v-10h10v-13h22v-11h12v-12h11
v-11h21v-13h22v-10h35v-12h236v-98l-23 -2h17v-13h-46v-11h-86v-12h-89v12h-66v11h-44v13h-31v10h-24v12h-11v11h-21v10h-12v12h-21v12h-11v12h-12v12h-9v12h-12v10h-10v12h-12v11h-11v23h-12v13h-10v23h-12v34h-9v24h-13v56h-9v69h-8v278l17 8h-9v47h9q0 9 2 20.5t2 16.5
l18 9h-9v23h9q0 6 2 14t2 12l17 8h-9v24h10l3 6h-2q0 1 0.5 3.5t0.5 4.5q0 3 1 6q1 0 1 -6l17 8h-9v12h13q1 0 2 1v2l17 8h-9v23h13v2q0 1 1 2l17 9h-9v11h9v12h13q0 -2 1 -2q0 1 1 1l2 1h-1v2l17 9h-10v11h26v3l16 9h-9v12h21v12h35v9zM495 431h-10v12h-11v11h-12v12h-9v13
h-35v-13h-11v-12h-23v-11h-8v-12h-18l-2 -2q1 0 1 0.5t1 0.5t1 -2l-16 -7h10q0 -2 -1 -3q-2 -4 -2 -5h1q-1 -2 -1 -4.5t-1 -4.5q-1 -3 -1 -6v1l-24 -2h17v-34h-9v-25h9v-34h12v-24h11v-9h12v-14h8v-11h35v11h21v14h22v19h13q0 -1 1 -1t6 5h-3l-1 -1v2l17 9h-10v58h10v69z
M177 593l-2 1h2v-1zM166 570l-2 1h2v-1z" />
    <glyph glyph-name="A" unicode="A" horiz-adv-x="777" 
d="M312 798l18 8h-10v11h99v-11h11v-12h11v-22h10v-35h12v-23h11v-34h11v-35h11v-35h11v-34h11v-35h11v-33h11v-36h11v-23h10v-22h12v-23h11v-45h11v-25h11v-24h10v-45h12v-23h10v-35h12v-22h10v-23h12v-23h23v-12h32v-11h21v-103h-10v-11h-297v11h-34l5 82l16 8h-9v13h44
v11h33v25h-10v35h-12v21h-11v12h-12v12h-153v11h-11v-11h-26q0 -2 -0.5 -5t-0.5 -5l-23 -2h17v-45h-10v-36h10v-12h66v-11h11l-6 -82l-10 -8h5v-13h-121v-11h-176v11h-17v94l17 9h-9v11h22v13h24l17 8h-10v14h11q0 6 2 14t2 12l18 8h-10v11h10q0 7 2 15.5t2 11.5l17 8h-10
q0 6 2 14t2 12l17 8h-9q0 6 2 14t2 12l16 8h-10v24h11q0 1 1 2l2 6h-1l2 8l18 9h-10v22h10q0 9 2 19.5t2 18.5l17 8h-10l4 6h-3l3 12q1 0 1 -4l16 8h-9l3 5h-2q0 3 2 7q1 2 1 3l17 8h-9v36h9v21h10q0 7 2.5 15.5t2.5 11.5l16 8h-9v46h11q0 6 2 14t2 12l17 9h-10v35h11l3 6
h-2q0 1 0.5 3.5t0.5 5.5q0 4 1 7q1 0 1 -7l18 8h-10v46h10v45h23zM298 367h11v-8h104h-1l1 1l10 7l-4 4h-12v45h-10v35h-13v34h-9v24h-11v11h-11v-23h-11q0 -2 -1 -9.5t-2 -15.5q-1 -10 -2 -21v2l-23 -2h17q0 -1 -1 -4l-2 -6h1q-1 -3 -2 -7.5t-2 -4.5v1l-22 -2h17
q0 -7 -2 -15l-3 -18l-23 -2h17l3 -22h-14v-4z" />
    <glyph glyph-name="B" unicode="B" horiz-adv-x="624" 
d="M4 774l17 8h-9v12h383v-12h54v-10h22v-11h12v-12h22v-23h9v-12h12v-24h11v-56h12v-69h-12v-45h-11q0 -2 -1 -3q-2 -4 -2 -5h1q-1 -3 -2 -6.5t-1 -6.5l-23 -2h16v-23h-9v-13h-10v-10h-16q0 -1 -0.5 -2.5t-0.5 -2.5l-16 -8h43v-11h9v-12h23v-11h12v-12h10v-11h11v-22h12
v-14h10v-35h11v-158h-11q0 -1 -2 -7t-2 -14l-6 -2h-17h15q-1 -2 -2 -5t-1 -5h2q-3 -6 -3 -11l-6 -2h-17h15q-2 -6 -2 -10h1q-1 -2 -1 -5q0 -1 -1 -2l-16 -7h10v-12h-10v-11h-12v-13h-23v-10h-9v-10h-22v-13h-23v-11h-44v-12h-88v12h-54v-12h-132v12h-130v11h-8v82l17 8h-9
v13h21v11h36v3l17 9h-9v9h10q0 41 2 84t2 82l17 8h-9v27h-12v310h-22v12h-53v10h-12zM428 232h28h-28v34h-12v23h-11v12h-10v11h-11v12h-11v11h-23v14h-22v10h-43v12h-33v-12h-11v-220h11v-12h33v-11h43v11h22v13h27l17 8h-10v14h21v23h11l3 6h-2q1 3 1.5 7.5t1.5 4.5v-4
l18 8h-10v25zM376 579l18 8h-10v15h-11v33h-11v12h-12v12h-22v12h-43v10h-11v-10h-22v-24h-11v-139h11v-24h10v11h34v13h22v10h10v11h26v4l18 8h-10v23h11zM570 106l-2 1h2v-1zM582 129l-2 1h2v-1z" />
    <glyph glyph-name="C" unicode="C" horiz-adv-x="613" 
d="M399 140l17 8h-10v14h10v-1l3 6h-2q0 3 2 7q1 2 1 3l18 8h-10v11h11q0 9 2 20.5t2 17.5l17 8h-10v34h11v12h10v10h100v-10h17v-198l-16 -8h10v-12h-13h-1h-2l-3 -3h3l-16 -8h10v-13h-23v-10h-11v-10h-21v-13h-23v-11h-44v-12h-43v-11h-131v11h-56v12h-34v11h-21v13h-22
v10h-10v10h-12v13h-10v11h-12v12h-9v24h-12v12h-11v11h-12v34h-12v24h-11v33h-8v59h-9v208l18 8h-9v46h8q0 7 2 15.5t2 11.5l17 8h-10q0 7 3 15.5t2 10.5l16 8h-9q0 1 1 2l2 6h-1q0 1 0.5 2.5t0.5 2.5t1 2l17 9h-9v23h15v3l17 9h-9v21h10q1 -1 1 -2q2 6 2 7l17 8h-9v11h14v4
l17 8h-9v11h10v12h11v12h26v3l16 8h-10v10h23v12h33v12h187v-12h55v-12h99v-10h11v-23h6v-76l-23 -2h17v-61h6v-77l-23 -2h17v-11h-11v-11h-110v11h-11v23h-11v59h-11v22h-12v11h-10v12h-11v12h-22v12h-65v-12h-22v-12h-27q0 -2 -0.5 -5t-0.5 -5l-23 -2h17v-11h-15
q-2 -4 -2 -10l-23 -2h17v-24h-10v-11h-12v-23h-10v-34h-9v-46h-13v-176h13v-43h9v-36h10v-12h12v-22h10v-12h11v-11h12v-14h23v-9h20v-12h23v-11h33v11h22v12h26v1z" />
    <glyph glyph-name="D" unicode="D" horiz-adv-x="685" 
d="M13 782h10v12h143v-12h56v12h87v-12h109v-10h33v-11h23v-12h22v-12h22v-11h11v-12h9v-11h12v-13h11v-10h11v-11h11v-12h11v-23h11v-14h11v-21h10v-35h11v-46h12v-57h6v-152l-16 -8h10q0 -5 -0.5 -16.5t-1.5 -23t-2 -20.5l-1 -9v2l-7 -2v1l-1 -4t-2 -9.5t-1.5 -11
t-0.5 -7.5l-23 -2h17v-36h-10v-24h-11v-21h-15q0 -1 -0.5 -4.5t-0.5 -5.5l-23 -2h17v-12h-13q-2 0 -7 -5h3q0 1 1 1v-1l-16 -7h10v-23h-28q0 -2 -0.5 -5t-0.5 -6l-22 -2h15q-1 -1 -1 -8l-23 -2h17v-10h-22v-13h-13v-11h-65v-12h-384v12h-11v11h-10v90h21v13h33v11h25v3l18 9
h-9v438h26h-26v70h-13v12h-32v12h-43v10h-9v83l18 8h-9v10zM484 461h-12v36h-9v34h-12v12h-11v22h-11v12h-11v25h-22v10h-11v12h-11v11h-11v12h-43v12h-45v-12h-15q0 -1 -0.5 -4.5t-0.5 -5.5l-23 -2h17v-496h12v-12h65v12h33v9h22v14h23v23h11v-1q1 0 1.5 0.5l4.5 4.5h-2
l16 7h-10v11h11q0 -2 0.5 1.5t1 8t1.5 8.5l1 4v-6l17 8h-10q1 0 4 8h-1l2 8l16 8h-9v33h9q0 5 2.5 13t2.5 13l16 8h-9v139zM525 46l1 1z" />
    <glyph glyph-name="E" unicode="E" horiz-adv-x="649" 
d="M0 782h10v12h583v-12h11v-33h10v-102h-10q0 -2 -0.5 -12t-1.5 -21t-2 -20t-2 -9v11l-10 -8h5v-34h-10v-11h-111v22h-12v59h-10v23h-23v12h-65v12h-103q0 -2 -0.5 -5t-0.5 -5l-23 -2h17v-164h12v-11h53q0 1 1 3.5t2 4.5h-1l2 8l18 8h-9v21h9q0 7 2 15.5t2 11.5l18 8h-9v12
h88v-12h9v-23h12l-5 -65l-23 -2h16v-208h-97v13h-13v22h-9v23h-13v25h-9v10h-33v12h-11v-22h-15q-1 -1 -1 -4q0 -2 -1 -3l-16 -7h9v-173h12v-23h12v-12h132v12h43v9h25l4 4h-3l-1 -1v2l18 9h-10v23h11q0 9 2 21t2 17l16 8h-10q0 5 2.5 13t2.5 13l16 8h-9v11h99v-11h10v-23
h13v-216h-13v-13h-10v-11h-21v-12h-90v12h-462v11h-8v13h-13l5 69l18 8h-10v13h20v11h38v3l18 9h-10v9h10v511h-22v12h-54v10h-13v12h-10v89z" />
    <glyph glyph-name="F" unicode="F" horiz-adv-x="672" 
d="M13 794h109v12h87v-12h154v12h253v-12h21v-22h7v-158l-23 -2h16q0 -19 -2.5 -39.5t-2.5 -39.5l-23 -2h17v-11h-98v11h-12v12h-10v81h-11v11h-11v12h-33v12h-43v12h-111v10l-1 -10h-21v-187h21v-12h12v12h44q0 9 2 20.5t2 16.5l17 8h-10v35h22v12h76v-12h13v-11h9v-298
h-22v-12h-76v12h-11v11h-11v35h-11v34h-12v14h-43v10l-1 -10h-8v-14h-13v-70h-27h27v-103h13v-14h8v-9h35v-12h64v-11h12v-90h-12v-13h-10v-11h-341v11h-17v94l16 9h-9v11h22v12h54v1l3 5h-2q1 3 1.5 7.5t1.5 4.5v-4l17 9h-9v323h27h-27v174h-12v12h-76v10h-21v23h-13l4 60
l18 8h-9v22z" />
    <glyph glyph-name="G" unicode="G" horiz-adv-x="672" 
d="M198 794h33v12h209v-12h56v-12h98v-10h10v-23h12v-102h-12v-116h-10v-22h-22v-12h-77v12h-23v22h-10v57h-12v24h-10v23h-12v12h-11v12h-21v12h-22v10h-43v-10h-23v-12h-33v-12h-15q0 -1 -0.5 -4.5t-0.5 -5.5l-23 -2h17v-11h-10v-12h-16l-2 -4l-2 -4l-20 -2h16q0 -1 -1 -4
l-2 -6h1q-1 -2 -1 -6q0 -2 -1 -3v1l-16 -7h10v-23h-11v-23h-12v-22h-10v-58h-10v-117h10v-58h10v-34h12v-11h11v-24h10v-22h12v-12h22v-11h12v-14h10v-9h33v-12h23v-11h32v11h22v12h23v9h25l4 4h-3l-1 -1v2l16 9h-9v58h-12v12h-11v11h-87v12h-10v104h20v8h297v-8h7v-102
l-23 -2h16v-12h-21v-11h-22q0 -45 -2.5 -85t-2.5 -81l-16 -7h10v-13h-55v-10h-22v-10h-23v-13h-22v-11h-32v-12h-34v-11h-121v11h-65v12h-23v11h-32v13h-22v10h-12v10h-10v13h-10v11h-12v12h-9v12h-13v24h-10v21h-12v13h-10v23h-11v45h-10v81h-9v163l18 8h-9v69h10
q0 12 2 27.5t2 22.5l16 8h-9v21h10q0 1 1 2l2 6h-1l2 8l17 9h-9v24h10v-2l3 9h-1l2 6v-1l18 9h-9v13h9v11h16v4l16 8h-10v11h10v12h27v4l17 8h-10v11h23v10h21v12z" />
    <glyph glyph-name="H" unicode="H" horiz-adv-x="708" 
d="M13 772h10v10h243v-10h32v-11h12v-102h-34v-12h-22v-116h-10v-47h10v-12h12v-11h153v11h21v175h-43v12h-45v22h-9v68h9v23h34v10h153v-10h110v-11h11v-102h-33v-12h-21v-23h-11v-497h11v-11h43v-13h23v-11h10v-102h-33v-11h-219v11h-33v12h-11v90h11v11h25v2q0 1 1 2
l17 9h-10v11h10v197h-186v-23h-10v-174h10v-11h22v-13h43v-11h13v-102h-44v-11h-232v11h-20v23h-13l4 60l18 8h-9v22h20v13h34v531h-23v12h-54v12h-8v82l17 8h-9v11z" />
    <glyph glyph-name="I" unicode="I" horiz-adv-x="567" 
d="M9 794h331v12h77v-12h75v-12h12v-10h10v-68h-10v-33h-56v-12h-99v-12h-9v-499h9v-9h23v-12h154v-11h12v-13h11v-90h-23v-11h-472v11h-11v13h-10v90h10v11h22v12h110v23h11v485h-11v12h-88v12h-78v10h-6v83l16 8h-10v22z" />
    <glyph glyph-name="J" unicode="J" horiz-adv-x="649" 
d="M209 772h10v22h385v-12h10v-10h13v-68h-13v-23h-10v-10h-21v-12h-71q0 -1 -0.5 -4.5t-0.5 -5.5l-23 -2h17v-83h6v-433l-23 -2h17q0 -2 -1 -7.5t-2 -11.5q-1 -7 -2 -15v1l-23 -2h16q0 -1 -0.5 -6.5t-1.5 -12t-2 -11.5l-1 -5v7l-16 -7h8q0 -1 -0.5 -4.5t-0.5 -6.5l-23 -2
h16v-10h-17l-2 -2q1 0 1 0.5t1 0.5t1 -2l-16 -7h9v-13h-21v-11h-45v-12h-44v-11h-75v11h-99v12h-44v11h-32v13h-23v10h-35v10h-8v13h-13v47h-10v136h10v13h33v10h78v-10h22v-13h11v-23h10v-23h11v-23h12v-11h10v-14h12v-9h22v-12h77v12h23q0 -1 1 -2q1 1 1 3l17 8h-7l5 4h-4
l-1 -1v2l18 9h-9v23h10v462h-23v12h-31v12h-89v10h-10v91zM340 148h3l-2 -2q-1 0 -1 2z" />
    <glyph glyph-name="K" unicode="K" horiz-adv-x="754" 
d="M12 794h34v12h142v-12h122v-12h5v-87l-22 -2h17v-12h-45v-10h-11v-24h-13v-13h13v-144l11 5h-10v13h11l2 -1q1 1 1 3l17 8h-10v11h15v4l17 8h-8v4l18 8h-9v11h10v12h14q1 0 2 1v2l17 8h-10q0 1 1 3q0 2 0.5 3l1.5 3h-1q1 2 1 5.5t1 3.5v-3l17 8h-9v10h8q0 1 1 2l2 6h-1
l2 8l18 9h-9v12h15v3l12 11h-27v10h-21v101h8v12h35v12h75v-12h2v12h142v-12h34v-22h9v-79h-9v-12h-13v-10h-31v-12h-22v-12h-13v-12h-9v-11h-15q-1 -2 -1 -5v-5l-23 -2h17v-10h-15q-1 -1 -1 -4q0 -2 -1 -3l-16 -7h10q-1 -1 -2 -3q-2 -4 -2 -6h1q-1 -2 -1.5 -7.5t-1.5 -5.5
v6l-15 -7h6l-3 -3h3l-16 -8h10v-11h-16q0 -1 -0.5 -4t-0.5 -6l-23 -2h16v-11h-8v-11h-13v-12h-14q0 -1 -0.5 -4.5t-0.5 -5.5l-23 -2h16v-24h-10v-10h-16q0 -1 -0.5 -4t-0.5 -5l-23 -2h17v-13h-27h27v-23h11v-12h12v-11h10v-14h12v-8h10v-14h13v-11h8v-12h12v-24h12v-10h11
v-12h10v-21h11v-13h12v-11h10v-12h12v-12h9v-11h13v-23h10v-11h12v-14h10v-9h43v-12h46v-11h9v-13h12l-6 -88l-23 -2h17v-11h-21v-12h-88v12h-99v11h-22v13h-10v10h-12v10h-12v24h-9v12h-11v24h-11v12h-12v21h-10v13h-12v11h-10v12h-13v12h-8v21h-12v12h-11v12h-12v23h-10
v11h-13v13h-9v10h-11v12h-11v11h-10l-1 12v-176h11v-9h22v-12h43v-11h12v-13h11v-90h-23v-11h-284v11h-12v23h-11v67h14v2q0 1 1 2l18 9h-10v11h21v13h26l17 8h-9v511h-12v12h-66v10h-11v23h-11v68h11v22zM244 482q1 0 3 2h-3v-2zM504 565h-2h3h-1z" />
    <glyph glyph-name="L" unicode="L" horiz-adv-x="708" 
d="M1 794h22v12h352v-12h22v-22h9v-68h-9v-11h-13v-12h-21v-10h-55v-12h-14q0 -1 -0.5 -3t-0.5 -3l-16 -8h16v-169l-23 -2h17v-312h11v-23h21v-12h56v12h87v9h34v14h22v57h9q0 17 2 35t2 26l17 8h-9v10h121v-10h12v-161h10v-91h-10v-34h-23v-12h-144v12h-449v11h-21v23h-12
v67h15v2q0 1 1 2l16 9h-10v11h11v12h66v9h9q0 121 2 239.5t2 237.5l17 9h-9v13h-12v12h-9v12h-99v10h-22v113z" />
    <glyph glyph-name="M" unicode="M" horiz-adv-x="815" 
d="M14 806h23v11h176v-11h33v-12h9v-12h12v-21h10v-24h13v-23h10v-34h12v-23h10v-23h11v-24h10v-23h13v-23h9v-23h12v-23h11v-34h10q0 6 2 14t2 12l18 8h-9v23h10q0 7 2 15.5t2 11.5l17 8h-9v23h10q1 1 1 3t2 5h-1l2 6v-1l16 8h-9v25h10q0 7 2 15.5t2 10.5l18 9h-9v34h9v35
h15v4l18 8h-10v21h11v24h241v-12h23v-113h-56v-10h-42v-243h-13v-47h13v-150h-30h30v-69h9v-14h33v-9h33v-12h12v-11h11l-5 -82l-16 -8h10v-13h-45v-11h-99v11h-165v13h-10v10h-11l4 59l16 8h-9v24h10v12h33v9h27l4 4h-3l-1 -1v2l17 9h-10v230h10v82h-14q0 -1 -0.5 -5
t-0.5 -6l-23 -2h17q0 -2 -1 -7.5l-2 -11t-2 -9.5l-1 -4v1l-23 -2h17v-35h-13l-7 -5h3v1q1 0 1 -5l-23 -2h17v-23h-9v-24h-13q0 -1 -1 -3q-2 -4 -2 -6h1q-1 -2 -1.5 -7.5t-1.5 -5.5v6l-16 -7h6l-3 -3h3l-15 -8h9q-1 -1 -2 -3q-2 -4 -2 -6h1q-1 -2 -1 -5q0 -1 -1 -2v1l-16 -7
h10v-13h-89v13h-11v10h-10v12h-11v23h-12v11h-9v36h-12v22h-10v23h-13v24h-9v21h-12v24h-2q-1 -14 -2 -27.5t-1 -27.5l-23 -2h17v-83h11v-138h12v-34h9v-11h12v-14h45v-9h21v-36h10v-67l-15 -1q1 0 1 -2l-16 -7h9v-13h-285v13h-8v92l17 9h-9v12h10v9h25l5 4h-4l-1 -1v2l18 9
h-9v11h10q0 44 2.5 88.5t2.5 88.5l16 9h-9v312h-12v10h-23v12h-54v34h-12l4 59l17 8h-9v12zM328 34h-15l15 1v-1zM451 312h-2h4h-2zM376 450l1 1h-1v-1z" />
    <glyph glyph-name="N" unicode="N" horiz-adv-x="695" 
d="M1 794h11v12h132v-12h99v-12h11v-21h10v-24h12v-23h11v-11h11v-34h10v-24h10v-11h12v-24h10v-23h12v-23h11v-23h12v-12h9v-11h13v-23h9v-23h12v-23h11v-11h12v-23h9v-11h12v-23h10v-22h2v172h-12v93h-12v23h-11v12h-42v12h-22v10h-19v93l17 8h-10v12h296v-12h7v-99
l-23 -2h16v-10h-22v-12h-22v-150h-9v-175h9v-321h-9v-11h-22v-12h-100v12h-10v11h-12v13h-12v20h-11v24h-11v24h-11v24h-10v21h-10v24h-13v36h-9v9h-12v35h-11v12h-11v24h-10v10h-12v23h-10v23h-13v24h-10v12h-12v22h-9v23h-12v24h-10v11h-11v23h-12v23h-11v-209h11v-103h11
v-23h12v-14h33v-9h42v-12h12v-11h10v-103h-64v-11h-241v11h-23v23h-11v67h14v2q0 1 1 2l17 9h-10v11h14v1l1 2l17 9h-10v9h10v14h23v497h-11v12h-55v10h-11v113zM218 554h-3h2h1z" />
    <glyph glyph-name="O" unicode="O" horiz-adv-x="659" 
d="M218 817h33v14h101v-14h66v-11h43v-12h21v-12h11v-10h12v-11h21v-12h12v-23h10v-12h13v-11h9v-13h12v-21h11v-35h11v-24h9v-46h13v-56h10v-196h-10v-57h-13v-56h-9l-1 1q-1 -1 -1 -3q-1 -2 -1 -5h1q-2 -10 -2 -15l-7 -2h-17h15q-2 -6 -2 -10h1q-2 -8 -2 -11l-6 -2h-17h15
q-1 -2 -2 -5t-1 -5h2q-3 -6 -3 -11l-23 -2h17v-23h-9v-12h-28l-5 -5h3q0 1 1 1v-1l-15 -7h9v-12h-9v-11h-16q0 -1 -0.5 -4.5t-0.5 -6.5l-23 -2h16v-10h-22v-10h-22v-13h-66v-11h-165v11h-43v13h-22v10h-23v10h-22v13h-9v11h-12v24h-10v12h-11v12h-11v21h-12v13h-12v35h-8v33
h-13v46h-10v252h10q0 17 2.5 35t2.5 38l18 8h-10v21h8v37h16v3l17 9h-9q0 7 2 15t2 11l17 8h-10v11h11v12h10v23h25v4l17 8h-9v11h23v10h10v12h22v12h43v11zM464 383l18 9h-10v48h-12v69h-10v45h-11v11h-12v23h-11v24h-10v23h-10v12h-23v12h-21v12h-22v10h-44v-10h-38
q0 -2 -0.5 -5t-0.5 -5l-23 -2h16v-12h-9v-12h-13v-23h-9q0 1 -1 1t-2 -4.5t-1 -6.5h1q-1 -2 -1 -5q0 -1 -1 -2l-16 -7h9q0 -1 -1 -3q-2 -4 -2 -6h1q-1 -2 -1.5 -7.5t-1.5 -5.5v6l-16 -7h10q0 -2 -0.5 -7t-1.5 -7l-3 -18l-24 -2h17v-46h-9v-151h9v-46h12v-33h11v-24h12v-24h9
v-11h13v-11h9v-12h12v-11h23v-14h21v-9h43v9h22v14h27v2l17 9h-9v12h10v22h14v4l17 8h-10l3 5h-2q0 3 2 7q1 2 2 3l16 8h-8q0 1 2 7h-1l2 8l17 8h-10v45h10zM582 152l-2 1h2v-1zM593 175l-2 1h2v-1z" />
    <glyph glyph-name="P" unicode="P" horiz-adv-x="659" 
d="M15 797l18 8h-10v11h453v-11h56v-12h13v-12h23v-11h12v-12h11v-12h10v-23h12v-15h12v-23h6v-190l-16 -8h10q0 -1 -1 -5l-2 -8t-2 -7.5l-1 -3.5v1l-23 -2h17v-22h-12v-25h-10v-12h-15q-2 -4 -2 -10l-23 -2h17v-14h-23v-11h-22v-11h-23v-12h-46v-11h-34v-14h-137
q0 -3 -0.5 -8t-1.5 -7l-3 -18l-23 -2h17v-122h11v-26h21v-12h80v-11h23v-13h13v-90h-13v-12h-34v-14h-338v14h-8v94l17 8h-9v13h10v11h58v12h11v-1l4 2v2l4 2l-2 -2l2 2l12 6h-9v516h17q2 0 -7.5 1t-16.5 1l-4 15h-102v22h-8v84l17 8h-8zM457 543h10q0 15 -0.5 30.5
t-0.5 30.5h5q-1 1 -12 1l-1 13h-14v11h-10v12h-11v12h-12v14h-23v12h-80v11h-16q-1 -1 -1 -2q-1 -1 -1 -3t-2 -4l-21 -2h16v-221h11v-11h47v11h47v13h23v11h23v25h14v4l18 8h-9v24z" />
    <glyph glyph-name="Q" unicode="Q" horiz-adv-x="682" 
d="M184 805h45v11h168v-11h57v-12h23v-12h23v-11h11v-12h12v-12h22v-12h10v-26h13v-11h12v-23h11v-24h12v-24h11v-34h11v-38h6v-269l-23 -2h17v-60h-11v-35h-11q0 -2 -1 -3q-2 -4 -2 -5h1q-1 -3 -2 -9t-2 -6v1l-23 -2h17v-25h-14q-2 0 -7 -5h3v1q1 0 1 -5l-23 -2h17v-11h-13
v-26h-10v-11h-13v-13l-24 1q-1 -2 -1.5 -3.5t-0.5 -6.5l-23 -2h17v-22l-38 -5h25v-13h13v-12h11v-12h12v-25h9v-10h13v-12h10v-12h13v-13h68v-11h22v-116h-22v-12h-33v-11h-23v-14h-25v-11h-98v20h9q-3 2 -6.5 2.5t-6.5 1.5q-4 1 -6 2l-1 10h-12v31h7q-2 2 -8 2.5t-8 0.5
l-3 13h-10v12h-12v25h-12v13h-11v31h9q-2 1 -7.5 2t-9.5 1l-4 13h-23v24h-23v23h-23v11h-23v14h-80v12h-22v11h-10v12h-25v11h-11v13h-22v11h-11v24h-12v14h-12v12h-10v30h3q-3 4 -11 4l-3 13h-12v24h-12v35h-10v49h-9v274l18 8h-9v49h10q0 6 2 14t2 12l17 8h-9v24h12
q1 -1 1 -2q2 4 2 7l17 8h-9v23h10v11h13v-1l3 6l18 10h-10v11h15v4l17 8h-10v12h11v12h13v-2q1 0 6 5h-3l16 8h-9v12h36v12zM470 319l19 9h-9v146h-13v38h-10v35h-12v35h-11v23h-13v13h-9v23h-24v12h-34v14h-22v12h-13v11h-13v-11h-23v-12h-24v-14h-26q0 -2 -0.5 -4.5
t-0.5 -5.5l-23 -2h17v-12h-12v-24h-10v-11h-13v-36h-10q0 2 -1 2t-2 -5t-2 -7h1q-2 -8 -2 -11l-23 -2h17q0 -1 -1 -9t-2 -18l-2 -26v12l-16 -7h9v-172h12v-47h12v-25h10v-24h13v-23h10v-12h12v-12h11v-11h12v-15h10v-11h24v-12h33v-11h16v11h32v12h14v-1q-1 0 3 2v2l17 8
h-10v15h24v23h13v4l18 8h-9l3 6h-2q0 1 0.5 3.5t0.5 5.5q0 4 1 7q1 0 1 -7l17 8h-10q0 6 2 15.5t2 12.5l17 8h-9v47h10z" />
    <glyph glyph-name="R" unicode="R" horiz-adv-x="756" 
d="M16 797l18 8h-10v11h191v-11h37v11h111v-11h115v-12h33v-12h11v-11h12v-12h12v-12h10v-12h12v-11h13v-26h10v-47h13v-138h-13v-38h-10v-24h-17l-5 -4h3v1q1 0 1 -5l-23 -2h16v-25h-22v-12h-12v-12h-22v-14h-22v-5l-23 -9h23v-12h10v-11h12v-12h11v-13h11v-25h12v-11h12
v-11h10v-25h12v-24h13v-11h10v-24h13v-23h10v-26h23v-12h22v-11h57v-13h12l-6 -88l-23 -2h17v-26h-214v14h-11v12h-11v11h-12v23h-12v13h-11v24h-11v20h5q-1 1 -5.5 1.5t-6.5 0.5l-3 15h-11l-2 31h9q-1 0 -9 2q-4 1 -7 1l-3 13h-11v32h9q-2 1 -7 2t-13 1l-1 12h-13v24h-10
v25h-24v12h-11v23h-11v12h-12v11h-22v14h-13v11l-5 1q-1 -2 -1.5 -3.5t-0.5 -6.5l-23 -2h17v-197h11v-12h25v-11h66v-13h19v-88l-24 -2h17v-12h-328v12h-11v90h11v13h13v11h33v12h22v532h-12v12h-43v11h-35v11h-8v84l17 8h-8zM423 566h11v28h-11v35h-10v12h-13v12h-23v14
h-12v12h-45v11l-51 1q-2 -4 -2 -10l-23 -2h16l-3 -12q-1 -2 -1 -5q0 -1 -1 -2l-16 -7h10v-171h11v-11h95v11h23q0 -2 1 -2q2 4 2 7l18 8h-9v12h14v4l18 8h-9v10h10v37z" />
    <glyph glyph-name="S" unicode="S" horiz-adv-x="586" 
d="M160 816h32v15h227v-15h102v-11h10v-35h13v-188h-13v-24h-10v-11h-22v-12h-79v12h-23v23h-10v59h-13v22h5q-2 2 -12 2l-3 14h-24v12h-10v11h-45v11h-27v-11h-33v-11h-15q-2 -4 -2 -10l-23 -2h17v-14h-12v-12h-10v-23h-13v-26h13v-26h10v-23h12v-14h11v-10h35v-12h33v-12
h22v-13h48v-11h55v-13h22v-11h25v-12h22v-13h11v-11h13v-12h9v-12h13v-13h10v-11h13v-35h11v-38h7v-124l-23 -2h16q0 -2 -1 -7.5t-2 -11.5l-2 -16v1l-23 -2h17v-23h-13v-25h-10v-13h-13v-11h-9v-13h-17q0 -2 -0.5 -4.5t-0.5 -4.5l-23 -2h17v-12h-22v-11h-25v-12h-32v-14
h-365v14h-21v23h-7v215l17 8h-10q0 3 1 6.5t2 6.5l1 4l16 8h-9v11h111v-24h12v-36h12v-35h11v-23h13v-15h10v-11h23v-12h22v-11h73v11h22v12h23v11h10v15h11v11h13v12h10q0 18 -0.5 36t-0.5 36h5q-1 1 -2.5 1.5t-8.5 0.5l-2 14h-14v11h-11v12h-10v12h-23v11h-35v14h-34v11
h-34v12h-58v11h-33v11h-24v14h-11v12h-23v12h-22v20h7q-2 2 -4.5 2.5t-10.5 0.5l-3 12h-14v22h6q-1 1 -5 1.5t-7 0.5l-3 13h-12v35h-7v96l17 8h-10q0 9 2 21.5t2 18.5l16 8h-9v23h10l4 10h-1l2 8v-1l18 9h-10l3 5h-2q0 3 2 7q1 2 1 3l17 8h-9v12h22v12h12v11h11v12h23v12h36
v11z" />
    <glyph glyph-name="T" unicode="T" horiz-adv-x="695" 
d="M16 785l18 8h-10v12h623v-12h12v-23h7v-233l-23 -2h16v-28l-118 19l-2 9h-15v106h-11v12h-12v14h-33v12h-13v-12h-36v-14h-11v-171h11v-79h-11v-4h11v-81h-11v-75h11v-108h24v-12h33v-11h80v-13h12v-11h12l-6 -77l-23 -2h17v-26h-57v-11h-78v11h-304v108l17 8h-10v13h36
v11h45v12h35v11h10v507h-10v14h-64q-1 -1 -1 -4q0 -2 -1 -3l-16 -7h10v-12h-11v-12h-13v-71h-9v-46h-24v-14h-99v24h-12v96h-11v105h11z" />
    <glyph glyph-name="U" unicode="U" 
d="M1 805h23v11h179v-11h2v11h78v-11h34v-12h11v-67h-11l-3 -12q-2 -8 -2 -11l-22 -2h17v-11l-50 1q-2 -4 -2 -10l-23 -2h17q0 -2 -1 -8.5t-2 -12.5l-2 -16v1l-24 -2h17v-194h12v-263h11v-12h11v-11h12v-15h11v-11h23v-12h22v-11h26v11h47v12h23l2 2l17 9h-10v15h13
q0 -2 1 -2q0 1 1 1l2 1h-1v2l18 9h-10v24h11v445h-11v38h-24v11h-32v11h-12v13h-13l5 71l17 8h-9v12h281v-12h11v-103h-22v-11h-34v-26h-10v-48h-13v-466h-10q0 -6 -2 -14l-4 -18l-23 -2h17q0 -2 -1 -5t-2 -8t-2 -11v1l-23 -2h17v-24h-13v-13h-11v-11h-22v-12h-12v-11h-34
v-12h-23v-14h-249v14h-21v12h-23v11h-24v12h-12v19h10q-2 1 -5.5 2t-12.5 1l-1 13h-14v24h-10v37h-12v539h-11v12h-11v11h-45v11h-23v104z" />
    <glyph glyph-name="V" unicode="V" horiz-adv-x="743" 
d="M13 816h102v15h157v-15h58v-23h11l-5 -65l-23 -2h17v-25h-58v-11h-23v-40h11v-36h12v-48h13v-37h10v-34h13v-24h9v-49h13v-35h11v-47h11v-25h11v-36h13v-36v25h14v34h10q0 11 2 23t2 18l17 8h-9l3 6h-2q0 1 0.5 3.5t0.5 5.5q0 4 1 7q1 0 1 -7l17 8h-10q0 10 2 23.5
t2 16.5l17 8h-9v49h10q0 10 2 23.5t2 16.5l17 8h-9q0 6 2 15t2 12l17 8h-10v49h11v58h13v18h-13v11h-56v11h-7v96l17 8h-10v11h282v-11h6v-113l-23 -2h17v-11h-21v-12h-25v-26h-10v-36h-13v-35h-10v-35h-12q0 1 -0.5 -5t-1.5 -14t-2 -15l-1 -7v11l-16 -7h10q0 -1 -1 -6.5
t-2 -12t-2 -11.5l-1 -5v1l-23 -2h17v-36h-10v-35h-13v-36h-10v-48h-13q0 -8 -2 -16.5t-2 -16.5l-23 -2h16q0 1 -0.5 -5t-1.5 -14t-2 -15l-1 -7v11l-16 -7h10v-36h-11q0 -2 -1 -9t-2 -15q-1 -10 -2 -21v1l-23 -2h17v-36h-13v-37h-10v-37h-12v-23h-10v-11h-17q0 -2 -0.5 -5
t-0.5 -5l-23 -2h17v-14h-124v14h-11v23h-11v36h-11v24h-10v37h-13v22h-14v59h2h-5q-1 0 -2 1l-3 12h-12v35h-13v37h-10v35h-11v37h-12v22h-12v38h-11v35h-13v37h-10v35h-11v36h-11v36h-11v35h-12v24h-12v14h-11v12h-23v11h-11v11h-11v13h-8v83l17 8h-9v11z" />
    <glyph glyph-name="W" unicode="W" horiz-adv-x="855" 
d="M3 805h34v11h236v-11h60v-12h9v-92h-56v-11h-35v-76h11v-132h11v-95h13v-103l12 6h-9q0 7 2 16t2 13l17 9h-10v35h10q0 10 2 23.5t2 16.5l17 8h-10q0 1 1 2l2 6h-1q0 1 0.5 2.5t0.5 2.5t1 2l17 9h-9l3 6h-2q1 3 1.5 7.5t1.5 4.5v-4l18 9h-10v37h11v24h112v-12h12v-12h10
v-37h13v-23h10v-36h12v-25h12v-46h10v-26h2q0 23 2 45t2 44l18 8h-9q0 22 2 43.5t2 44.5l17 8h-10v158h-11v14h-13v12h-10v11h-58v11h-11v92h11v12h81v11h259v-115h-35v-11h-22v-11h-24v-38h-10v-83h-12v-60h-10v-121h-11v-59h-12v-83h-11v-107h-13l-3 -30q-1 -8 -1.5 -15
t-0.5 -14l-23 -2h17q0 -8 -2 -16.5t-2 -16.5l-7 -1l-16 -1h14q-2 -6 -2 -10h1q-2 -8 -2 -11l-23 -2h17v-26h-124v14h-12v12h-11v34h-12v46h6q-1 1 -3 1.5t-9 0.5l-3 14h-12v34h-10v37h-14v35h-10v44h6q-2 0 -4 1t-4 1v-34h-13v1q-2 -6 -3 -10q-2 -10 -2 -13l-23 -2h16
q0 -7 -2 -15l-3 -18l-23 -2h17v-36h-11q0 -5 -0.5 -9.5t-1.5 -9.5l-3 -27l-23 -2h17q0 -2 -1 -10l-2 -16q-1 -10 -2 -21v1l-24 -2h17v-23h-9v-12h-14v-14h-111v14h-12v12h-11v34h-11v62h-12v59h-11v71h-11v108h-12v60h-10v95h-12v84h-12v71h-12v14h-10v12h-23v11h-46v115z
M639 32l-2 1h2v-1z" />
    <glyph glyph-name="X" unicode="X" horiz-adv-x="756" 
d="M24 831h191v-15h102v-11h12v-12h11l-5 -77l-23 -2h17v-13h-37l-5 -5h3v1q1 0 1 -5l-23 -2h17v-16h11v-13h12v-24h9v-23h12v-11h11v-24h13v-13h10v-12h6v2q0 1 1 2l17 8h-9q0 2 3 10h-1l2 8v-1l17 9h-9v22h15v4l17 8h-9v35h10q0 2 3 10h-1q2 10 2 12l16 2l-8 5h-34v11h-19
v96l17 8h-9v11h171v15h88v-15h33v-11h13v-104h-13v-11h-10v-11h-46v-12h-10v-14h-12v-12h-16q0 -1 -0.5 -4.5t-0.5 -5.5l-23 -2h17l-4 -8h2q-1 -2 -1.5 -4.5t-1.5 -4.5q-1 -3 -1 -6v1l-23 -2h17v-11h-13v-24h-10v-12h-12v-23h-10v-13h-13v-24h-13h-1h-2l-4 -3h4l-16 -8h9
v-25h-14q0 -1 -1 -4.5t-1 -5.5l-22 -2h16q0 -5 -2 -11t-2 -11l-23 -2h17v-4h11v-23h11v-25h10v-11h12v-23h11v-12h13v-13h10v-25h12v-22h10v-13h13v-23h12v-13h11v-23h12v-24h12v-11h10v-26h23v-12h57v-11h11v-24h11v-79h-22v-12h-271v12h-22v11h-12v103h22v12h28h-16v29
h-12v12h-10v35h-12v12h-11v12h-12v25h-13v12h-9v11h-3v-11h-13l-3 -12q-1 -2 -1 -5q0 -1 -1 -2l-16 -7h10q0 -1 -1 -3l-3 -6h2q-2 -2 -2.5 -7.5t-1.5 -5.5v6l-15 -7h9v-24h-11l-2 1q-1 -2 -1.5 -3.5t-0.5 -6.5l-23 -2h17q0 -2 -1 -3q-2 -4 -2 -5h1q-1 -2 -1 -4.5t-1 -4.5
q-1 -3 -1 -6v1l-23 -2h17v-25h-11v-4h22v-12h27v-101l-23 -2h17v-11h-21v-12h-272v12h-10v11h-13v103h23v12h45v11h13v-1l3 6l17 10h-10v11h11v12h14q0 1 1 2l2 6h-1l2 8l17 8h-8l4 4h-2l15 7h-9q0 -2 0.5 1.5t1 8t1.5 8.5l1 4v-6l17 8h-10q0 2 3 10h-1l2 8v-1l18 8h-9v11
h10v23h16v2q0 1 1 2l17 9h-9q2 2 2 4l17 9h-9v23h12q1 -1 1 -2q3 4 3 12l24 2h-17v11h10q0 6 2.5 15t2.5 14l16 8h-9v39h-12v21h6q-3 3 -12 3l-3 13h-13v11h-11v21h9q-2 1 -5.5 2t-11.5 1l-3 13h-11v12h-13v23h-10v24h-13v19h7q-2 2 -4.5 2.5t-9.5 0.5l-3 13h-12v24h-10v14
h-14v12h-11v11h-44v11h-24v130zM129 212h3l-2 -1v-1zM128 208h2q-1 -1 -2 -1v1zM197 314v-1q0 1 -1 2h1v-1zM467 450h-1q0 1 1 1v-1z" />
    <glyph glyph-name="Y" unicode="Y" 
d="M1 816h23v15h236v-15h57v-23h12v-67h-16q0 -1 -0.5 -4.5t-0.5 -5.5l-22 -2h17v-13h-47v-4h11v-23h12v-24h11v-13h13v-23h10v-11h12v-24h10v-25h12v-25h12v-10h11v-6l12 6h-5l1 1l-1 -1q-1 0 -1 2l17 8h-10q0 3 4 10h-1l2 8v-1l17 8h-9q0 1 1 2l2 6h-1l2 8l17 9h-9v24
l27 2h-17q0 2 2 10q1 4 1 7q1 0 1 -4l17 8h-9q0 -2 0.5 1.5t1 8t1.5 8.5l1 4v-6l17 8h-7l3 3h-3l17 8h-9v29h-34v11h-22v13h-13l5 83l17 8h-9v11h171v15h100v-15h17v-100l-23 -2h16v-13h-10v-11h-35v-23h-10v-14h-13v-12h-10q0 -2 -1 -3q-2 -4 -2 -5h1q-1 -3 -2.5 -6.5
t-1.5 -6.5l-23 -2h16q0 -5 -2 -11t-2 -11l-23 -2h17v-24h-13v-12h-11v-11h-12v-35h-10v-14h-12q0 -2 -1 -3q-2 -4 -2 -5h1q-1 -2 -1 -4.5t-1 -4.5q-1 -3 -1 -6v1l-24 -2h17v-12h-10q0 1 -1 1t-2 -4.5t-1 -6.5h1q-2 -8 -2 -10l-24 -2h17v-25h-16q0 -1 -0.5 -4.5t-0.5 -5.5
l-23 -2h17q0 -5 -2 -13q-1 -4 -2 -7v1l-16 -7h10v-22h-13v-194h13v-26h101v-12h24v-11h11l-5 -78l-23 -2h17v-23h-36v-12h-88v12h-14v-12h-159v12h-100v23h-11v67h11v24h22v12h59v11h9v15h10v171h-10v23h-9v11h-13v37h-11v12h-12v20h7q-2 2 -4.5 2.5t-10.5 0.5l-3 12h-12v21
h9q-2 1 -5.5 2t-12.5 1v13h-13v25h-11v17h10q-2 1 -6 2t-14 1l-1 15h-13v23h-12v12h-10v23h-13v13h-10v23h-11l-2 22h10q-6 0 -12 2q-3 1 -5 2l-2 12h-12v11h-45v11h-23v115zM377 519h4l-2 -1q-1 0 -1 -1q-1 0 -1 2zM445 650h3q-2 -2 -3 -2v2zM591 618h-1q0 1 1 1v-1z" />
    <glyph glyph-name="Z" unicode="Z" horiz-adv-x="634" 
d="M48 808l17 8h-9v15h180v-15h307v-11h24v-12h6v-112l-23 -2h17l-3 -12q-1 -2 -1 -5q0 -1 -1 -2l-16 -7h9v-12h-12v-23h-15q0 -1 -0.5 -5t-0.5 -6l-23 -2h17v-11h-15q0 -1 -0.5 -4.5t-0.5 -5.5l-23 -2h16q0 -5 -2.5 -11.5t-2.5 -10.5l-23 -2h17v-11h-12v-12h-11v-23h-13
v-14h-10v-11h-9v-25h-14v-12h-11v-24h-13q-1 0 -3.5 -1.5t-4.5 -3.5h4v1q1 0 1 -5l-24 -2h17v-12h-12v-26h-10v-11h-12v-11h-11v-23h-14q0 1 -1.5 -3t-1.5 -9l-23 -2h17v-11h-13v-24h-10v-11h-12v-26h-10v-23h-11v-12h-13v-12h-11v-23h-16q0 -1 -0.5 -4.5t-0.5 -5.5l-23 -2
h17v-25h-11v-16h128v12h69v11h22v15h13q0 -2 1 -2q0 1 1 1l2 1h-1v2l17 9h-10v12h11q0 1 1 2l2 6h-1l2 8l18 8h-10v35h11v25h124v-25h10v-138h-10v-73h-12q0 -7 -2 -15l-3 -18l-23 -2h17v-14h-158v14h-276v-14h-111v14h-24v12h-10v137h10v26h16v3l17 9h-9v12h10v23h13
q1 -1 1 -2q2 4 2 7l17 8h-10v23h14q1 -1 1 -2q2 4 2 7l17 8h-8l1 1v2l17 8h-9v23h10v13h13q1 -1 1 -2l2 6l17 9h-10v23h14l1 -1v1q2 4 2 10l24 2h-13l3 3h-3l18 8h-10v25h10v12h14q1 0 2 1v2l17 8h-9q0 3 1.5 9.5t2.5 6.5l17 9h-6h-1v2l18 9h-9v13h10q0 -2 0.5 1.5t1 8
t1.5 8.5l1 4q1 0 1 -6l17 8h-9v12h15v4l16 8h-9q0 1 1 2l2 6h-1l2 8l17 8h-8q1 0 2 1v2l18 8h-10v12h11q0 2 3 10h-1l2 8v-1l18 9h-10v11h15v2l17 9h-10v23h11v13h13v24h11v16h-129v-11h-34v-12h-11v-14h-24v-35h-10q0 -8 -2 -16l-3 -18l-23 -2h16v-24h-122v12h-8v168l17 8
h-9v59h12zM216 447h4l-2 -1q-1 0 -1 -1q-1 0 -1 2zM160 363h3l-3 -2v2zM499 582h-1q0 1 1 1v-1z" />
    <glyph glyph-name="bracketleft" unicode="[" horiz-adv-x="282" 
d="M75 817v2h96v1h86l17 -10l1 -9v-110h-36l-10 -8h-77l3 -11l-16 -10h5l9 -20l-20 -7h11q2 -8 5 -16.5t5 -13.5l-21 -6h12q1 -4 1 -11v-8l-8 -7h4l7 -17l-23 -8h12l4 -11q3 -8 5.5 -17t5.5 -16l-24 -1h16l10 -34l4 -3l-31 -2h17q0 -9 2.5 -17.5t1.5 -10.5l-8 -7h4
q2 -5 4.5 -11.5t2.5 -5.5l-21 -8h11l13 -38h-27h15l14 -34l-30 -2h17q2 -8 3 -11.5t2 -5.5h-1l3 -9h-26h16l10 -31l3 -4l-19 -1q1 -4 6.5 -8.5t7.5 -9.5l7 -18l-29 -2h17q3 -11 4.5 -16t2.5 -7l-26 -1h17l5 -14h-1l11 -31h-28h17l4 -12l4 -12l-20 -1h137l4 -20v-111h-37
q-2 -2 -5.5 -3.5t-5.5 -3.5h-81v-6h-57l-4 5l11 3h-55h-42v45h1l-13 42h28h-17q-2 6 -2.5 11t-0.5 7l1 1v-1l8 7h-5q0 5 -0.5 9.5t-0.5 6.5l9 9h-5q0 4 -1.5 13.5t-3.5 16.5l8 8h-5l-4 12l-4 12h2q-6 10 -6 11l28 1h-16q-2 8 -5 17t-6 14l21 6h-10l-13 35l29 2h-17l-2 16
l8 8h-5q0 2 -0.5 4.5t-0.5 4.5v8l9 9h-5q-2 6 -3.5 15.5t-1.5 14.5v1l1 -1q0 -1 1 -2l8 8h-4q-2 8 -4 14t-2 8l-4 19l9 8h-4q-2 5 -4 10.5t-4 10.5l-4 9l22 6h-11q-1 5 -2 11t0 6v-1l8 8h-4q-1 2 -2 5.5t-3 8.5t-4 11l-5 11l30 2h-17l-5 27l9 8h-4l-11 35l27 2h-16l-5 17
q-1 5 -1.5 9.5t-0.5 3.5l5 6h-2l-8 26h28h-17l-3 14q-2 8 -4.5 14.5t-1.5 6.5l25 2h-16l-13 36h14l-14 36h28h-16l-14 35l29 2h-16l-7 19h86z" />
    <glyph glyph-name="backslash" unicode="\" horiz-adv-x="460" 
d="M129 877h12v-23h9v-36h12v-22h10v-35h11v-34h11v-35h11v-34h12v-23h10v-36h11v-34h11v-34h11v-35h11v-23h12v-33h10v-47h13v-33h10v-23h8v-25h13v-35h11v-34h11v-34h11v-35h11v-23h11v-23h11v-34h11v-37h11v-33h11v-46h6v-88l-23 -2h17v-11h-11v-12h-76v12h-34v11h-12v11
h-10v47h-11v45h-11v35h-12v36h-9v46h-12v22h-11v24h-10v45h-11v22h-11v36h-11v33h-12v25h-11v34h-11v35h-11v23h-10v34h-12v35h-10v45h-11v22h-12v25h-9v35h-12v22h-11v35h-11v33h-12v23h-11v24h-10v23h-8v93l18 9h-10v12h10v11h111v-11z" />
    <glyph glyph-name="bracketright" unicode="]" horiz-adv-x="282" 
d="M201 817h82l-6 -19h-10l14 -5q0 1 4 1h7l-15 -33h-12q4 -1 13 -1h13l-16 -34h-13q5 -1 13 -1h16l-16 -38h11l-12 -35h-12q4 -1 12 -1h13l-9 -24h-11l20 -6l-10 -33h10l-11 -35h10l-12 -35h-10q2 -1 10.5 -1.5t14.5 -0.5l-16 -35h-12q4 -1 10 -1h14l-8 -27h-9q2 -1 9 -2
t10 -1l-11 -31h10l-15 -48h-5l15 -1l-11 -35h-11q3 -1 22 -1l-7 -26h-12q6 -2 11 -3.5t7 -3.5l-4 -16h-14q6 -1 13 -1.5t10 -0.5l-11 -35h-8q3 -2 7 -2.5t15 -0.5l-16 -33h-13q5 -1 11.5 -1.5t17.5 -0.5l-16 -34h7l-9 -39h-10q2 -1 22 -1l-7 -25h-9q2 -1 7 -2t9 -1l-7 -20
h-9q7 -2 8 -3t13 -1l-11 -34h-10l77 -26l-107 -27h-47q-1 -1 -1 -1.5t-1 -1.5l-2 -2l-52 2l-4 7h-79l-10 4h-41v18h-4v98h4v7h4v8h126l-8 6l7 17h11l-21 8l15 39h13q-5 1 -24 1l6 23h8l-15 7l9 31h8l-16 8l9 28h12q-3 1 -9.5 1h-13.5l8 25h12l-16 5q1 -1 -3 -1h-7l15 31h11
l-19 7l8 32h4q-1 0 -3 0.5t-4 0.5h-7l9 24h11l-21 7l10 29h-13l12 38h-7l13 46h-12l8 24h10l-16 6l6 20h12l-23 8l13 29h-12l7 26h12l-21 7l5 17h-70l-12 5h-41v17h-4v98h4v9h4v4h89v4h107z" />
    <glyph glyph-name="asciicircum" unicode="^" horiz-adv-x="256" 
d="M127 1058q5 2 8.5 1.5t7.5 1.5h-5l33 16v-27h-2q23 -38 44.5 -81t44.5 -83l-5 -5h3l3 -6q3 -6 3 -8h-1l-24 -14h9l-95 -54v26h-3l-25 42l-22 -41h-5v-28l-94 56h7l-24 15l7 12h9q-8 2 -11 3t-5 2l95 163h-2v28l6 -4v9z" />
    <glyph glyph-name="underscore" unicode="_" horiz-adv-x="790" 
d="M14 -168h22v10h132v-10h361v10h198v-10h22v-25h6v-99l-23 -2h17v-11h-690v11h-45v11h-8v94l17 9h-9v12z" />
    <glyph glyph-name="grave" unicode="`" horiz-adv-x="290" 
d="M276 941h-4l22 -12l-4 -8h-5l7 -7l-44 -80h-3v-26l-17 11l-4 -11l-223 139l4 6h8l-29 17l11 17h3l-7 6l52 92l6 -7l6 9l98 -61l-4 -5h-4l16 -11v9l121 -72z" />
    <glyph glyph-name="a" unicode="a" horiz-adv-x="636" 
d="M164 562h53v12h215v-12h21v-10h21v-11h11v-12h11v-11h12v-22h10v-178h-10v-171h73v-8h10v-12h12l-6 -81l-15 -8h9v-10h-43v-12h-30v-12h-140v12h-12v12h-8v-12h-45v-12h-212v12h-23v12h-21v10h-21v10h-12v23h-9v23h-8v124l17 9h-9v22h9l3 6h-2q1 3 1.5 7.5t1.5 4.5v-4
l17 9h-9v12h10v11h20v12h23v9h20v12h33v11h43v12h64v11h100v9l24 2h-17v11h10v35h-10v11h-12v11h-10v12h-21v11h-20v-11h-22v-12h-20v-11h-11v-11h-12q0 -2 -0.5 -7t-1.5 -7l-3 -18l-24 -2h15q-1 -2 -1 -4.5v-4.5l-23 -2h17v-11h-118v11h-11v11h-8v103l17 8h-9v22h23v11h20
v12h21v11h22v10zM215 386l1 -1h-2zM348 186l17 9h-9v34h-12v11h-83v-11h-33v-12h-21v-11h-24q0 -2 -0.5 -4.5t-0.5 -4.5l-23 -2h16v-10h-9v-38h21v-8h20v-12h64v12h21v8h21v12h21v11h10z" />
    <glyph glyph-name="b" unicode="b" horiz-adv-x="659" 
d="M89 810h31v11h131v-11h9v-23h12l-5 -64l-23 -2h16v-112h-9v-57h29v10h174v-10h31v-11h22v-12h12v-11h20v-11h11v-11h10v-11h11v-23h11v-10h10v-23h10v-22h11v-68h11v-133h-11q0 -2 -1 -9t-2 -15l-2 -20v1l-23 -2h17v-32h-10v2q-1 0 -2 -5t-2 -7h1q-2 -8 -2 -11l-22 -2h17
v-12h-15l-2 -4l-2 -4l-20 -2h17v-13h-10v-10h-15q-1 -1 -1 -3q0 -1 -1 -2l-10 -8h5v-10h-21v-10h-10v-12h-33v-12h-32v-11h-321v11h-7v271l17 9h-10v359h-11v21h-11v11h-64v12h-11v11h-10v68h10v21h21v11h54v12zM462 318h-9v22h-11v23h-10v11h-12v11h-11v12h-11v10h-10v12
h-33v11h-51v-11h-22v-12h-22v-22h-9v-226h9v-12h12v-8h10v-12h42v-11h21v11h21v12h22v8h10v12h22q0 1 1 3.5t2 4.5h-1l2 8l17 9h-9v11h10q0 1 1 3q0 2 0.5 3l1.5 3v3l17 9h-9v23h9v79z" />
    <glyph glyph-name="c" unicode="c" horiz-adv-x="588" 
d="M172 562h34v12h203v-12h32v-10h20v-11h11v-12h12v-11h9v-11h12v-22h9v-56h12l-5 -75l-23 -2h16v-23h-9v-11h-119v11h-21v23h-11v67h-10v11h-11v11h-33v12h-20v-12h-21v-11h-21v-11h-10v-12h-16q-1 -1 -1.5 -1t-0.5 -7l-23 -2h15q0 -1 -0.5 -4.5t-0.5 -5.5l-24 -2h17v-11
h-9l-1 1q-1 -1 -1 -3q-1 -2 -1 -5h1q-1 -3 -2 -6.5t-1 -6.5l-24 -2h17v-34h-9v-69h9v-33h12v-10h9v-22h12v-14h9v-11h23v-12h21v-8h116v8h21v12h31v11h121v-11h10l-6 -80l-15 -8h6l-3 -3h3v-5l-23 -2h17v-13h-23v-10h-30v-10h-23v-12h-52v-12h-33v-11h-192v11h-43v12h-34v12
h-9v10h-10v10h-11v13h-11v10h-11v13h-11v22h-10v23h-11v32h-11v34h-10v133h10q0 16 2 34t2 25l17 8h-10v22h11l3 6h-2q0 1 0.5 3.5t0.5 4.5q0 3 1 6q1 0 1 -6l16 8h-10v23h15v4l17 8h-10v11h15v3l17 8h-10v11h10v11h9v11h26v4l17 8h-9v11h31v10zM545 71h-2h3h-1z" />
    <glyph glyph-name="d" unicode="d" horiz-adv-x="637" 
d="M366 810h33v11h120v-34h8v-178h-8v-439h8v-23h54v-8h23l-6 -93l-15 -8h9v-10h-43v-12h-30v-12h-161v-11h-205v11h-21v12h-22v12h-10v10h-21v10h-12v13h-10v10h-11v23h-9v12h-12v23h-10v44h-8v181l17 8h-9v33h10q0 6 2 14t2 12l17 8h-9v23h9v10h15v4l17 8h-7q-1 0 4 3h-4
l17 8h-9v11h10v11h11v11h21v11h21v12h22v11h202v112h-32v11h-49v97l24 2h-17v13h22v11h52v12zM154 272h11v-45h11v-21h11v-11h10v-25h10v-11h11v-12h11v-8h22v-12h72v12h27l16 8h-9v12h9q0 23 2.5 46.5t2.5 46.5l16 8h-9v103h-12v44h-21v12h-22v11h-31v11h-9v-11h-32v-11
h-22v-12h-22q-1 0 -1 -1l-2 -4h1q-2 -3 -2.5 -7.5t-0.5 -7.5l-22 -2h14q-1 -2 -1 -4.5v-4.5l-23 -2h17v-11h-11q0 -1 -1 -4l-2 -6h1l-3 -12v1l-23 -2h17v-33h-11v-35zM68 474h3q-2 -2 -3 -2v2z" />
    <glyph glyph-name="e" unicode="e" horiz-adv-x="601" 
d="M162 562h22v12h215v-12h20v-10h22v-11h12v-12h19v-11h12v-11h9v-11h12v-22h11v-12h10v-23h11v-32h6v-143l-23 -2h17v-10h-32v-12h-277v-11h-55v-13h12v-21h9v-11h13v-14h9v-11h22v-12h21v-8h43v-12h20v12h64v8h33v12h30v11h110v-11h11l-5 -80l-16 -8h10v-10h-11v-13h-22
v-10h-21v-10h-43v-12h-43v-12h-54v-11h-171v11h-43v12h-32v12h-20v10h-12v10h-10v13h-21v10h-11v23h-11v12h-11v23h-11v56h-10v154h10q0 11 2 26t2 22l17 8h-10v22h11l3 6h-2q0 1 0.5 3.5t0.5 4.5q0 3 1 6q1 0 1 -6l17 8h-10v23h15v4l17 8h-10v11h10l3 6h-2q0 1 0.5 3.5
t0.5 4.5q0 3 1 6q1 0 1 -6l17 8h-7l3 3h-3l17 8h-9v11h20v12h23v11h20v10zM403 374h-28v11h-10v12h-11v22h-21v11h-11v11h-33v12h-18v-12h-26q0 -2 -0.5 -5t-0.5 -5l-22 -1h16v-11h-14q0 -1 -0.5 -4.5t-0.5 -5.5l-24 -2h17v-10h-9v-12h-13v-11h-9l-1 1q-1 -1 -1 -3
q-1 -2 -1 -5h1q-1 -2 -1.5 -7.5t-0.5 -8.5h98v11h100v9l24 2h-17zM164 351h16v12zM88 507h3q-2 -2 -3 -2v2z" />
    <glyph glyph-name="f" unicode="f" horiz-adv-x="611" 
d="M289 659q-1 -2 -1 -4.5v-4.5l-7 -1l-16 -1h14q-2 -6 -2 -10h1q-2 -8 -2 -11l-23 -2h17v-59h11v-9h12v-13h104v13h108v-13h16v-95l-22 -2h17v-12h-32v-10h-77v10h-106v-10h-20v-272h12v-21h8v-12h171v-12h21v-99h-9v-11h-43v-12h-76v12h-353v11h-10v89h10v10h23v12h73v12
h26v9l25 2h-17v270h-12v12h-22v10h-73v12h-12v10h-11l4 58l17 9h-10v20h23v13h74v9h10q0 21 2 41.5t2 41.5l17 9h-9v45h9v-1q1 0 1.5 2.5t2.5 4.5h-2q0 1 0.5 2.5t0.5 2.5t1 2l16 8h-9v23h14v4l17 8h-9v12h10v9h25v4l17 8h-9v11h20v12h43v10h151v-10h118v-12h11v-11h9v-67
h-9v-44l-25 1q-2 -4 -2 -10l-23 -2h17v-11h-140v11h-54v11h-20v-11h-25q0 -2 -0.5 -5t-0.5 -5zM281 648l-2 1h2v-1z" />
    <glyph glyph-name="g" unicode="g" horiz-adv-x="636" 
d="M142 544h31v13h184v-13h31v-9h33v-11h21v-12h129v-10h10v-23h11l-5 -64l-23 -2h17v-10h-10v-14h-75q0 -26 -3 -54.5t-3 -54.5l-23 -2h17q0 -2 -1 -3q-2 -4 -2 -5h1q-1 -3 -2 -6.5t-1 -6.5l-23 -1h16v-22h-8v-24h-15q0 -1 -0.5 -4.5t-0.5 -5.5l-23 -1h17v-10h-21v-12h-22
v-11h-32v-12h-95v-13h-41h15v-5l-23 -2h16v-14h-27h252v-12h63v-10h22v-12h11v-10h11v-12h21v-11h11v-167h-11q0 -1 -1 -3q-2 -4 -2 -6h1q-1 -2 -1 -3.5t-1 -3.5t-1 -4l-23 -2h17v-24h-12q0 2 -1 2t-2.5 -1.5t-2.5 -1.5h1q2 0 2 -6l-23 -2h17v-13h-11v-11h-24l-1 -1l-4 -6
l-20 -2h17v-13h-21v-9h-32v-13h-31v-12h-56v-11h-149v11h-98v12h-30v13h-22v9h-22v13h-10v9h-11v24h-10v9h-11v36h-11v99h11q0 6 2.5 14t1.5 10l17 9h-10v12h10v21h15v4l16 8h-8l2 3l17 8h-10v89h11v23h14v4l17 8h-9v11h-12v11h-10v24h-11v10h-11v34h-10v155h10q0 6 2 14
t2 11l17 8h-10v24h11v12h10v10h25v3l17 9h-9v11h21v9zM57 53l1 -1v-1q0 1 -1 2zM441 -70h10q0 -2 1 -2q2 0 5 3q-1 0 -1 -1q-1 0 -1 2l16 9h-9v13h-12v12h-9v10h-21v10h-22v12h-206q0 -2 -0.5 -5t-0.5 -5l-23 -2h15l-5 -4q1 1 2 1q2 0 2 -5l-23 -2h16v-10h-14
q0 -1 -0.5 -4.5t-0.5 -5.5l-24 -2h17v-24h-27h27v-22h12v-13h10v-9h21v-13h55v-11h83v11h33v13h31v9h25v2q0 1 1 2l17 9h-7v1v-1l1 1l15 8h-9v13zM187 333h9v-22h11v-13h10v-10h12v-12h31v-11h31v11h21v12h23q0 1 2 7h-1l2 8l17 8h-10v22h11v34h-11v22h-11v24h-11v12h-21v10
h-22v12h-20v-12h-21v-10h-22v-12h-10q0 1 -1 1t-2 -4.5t-1 -6.5h1q-1 -2 -1 -5q0 -1 -1 -2v1l-11 -8h5v-22h-9v-34z" />
    <glyph glyph-name="h" unicode="h" horiz-adv-x="720" 
d="M103 803h41v12h99v-12h10v-11h6v-109l-23 -2h17v-146h-27h56v9h22v13h185v-13h31v-9h10v-11h12v-12h9v-10h12v-12h10v-24h12v-33h9v-45h6v-120l-23 -2h17v-158h64v-10h17v-87l-23 -2h17v-11h-11v-12h-235v12h-21v100h21v10h10v12h10q0 28 2 57t2 59l17 8h-9v78h-12v34
h-10v22h-10v11h-11v14h-10v10h-22v12h-21v-12h-31v-10h-32v-14h-27l-3 -3h3l-16 -8h7q0 -1 -0.5 -2t-0.5 -2l-15 -7h9v-11h-10v-203h10v-33h20v-12h55v-10h20v-89h-10v-11h-107v-12h-150v12h-20v110h20v12h15v4l16 8h-9v505h-12v11h-21v11h-44v11h-9v11h-8v70l17 8h-9v12h21
v9h43v12h22v11z" />
    <glyph glyph-name="i" unicode="i" horiz-adv-x="577" 
d="M184 783h21v11h118v-11h22v-11h11v-11h10v-122l-13 1q-2 -4 -2 -10l-22 -2h16v-12h-12h-1h-2l-3 -3h3v-5l-23 -2h16v-11h-22v-12h-96v12h-32v11h-11v10h-11v122h11v-2l3 9h-1l2 8l17 8h-10v11h11v11zM98 558h97v12h106v-12h22v-32h7v-86l-23 -2h16v-294h12v-10h21v-12
h170v-11h22v-99h-10v-12h-21v-11h-120v11h-276v-11h-85v11h-22v23h-12l4 58l17 8h-9v22h10v11h107v12h20v10h22v283h-32v11h-10v-11h-107v11h-10v11h-8v79l17 9h-9v11h84v10z" />
    <glyph glyph-name="j" unicode="j" horiz-adv-x="483" 
d="M245 772h22v11h139v-11h12v-11h10v-23h11l-5 -65l-22 -2h16v-32h-12l-1 1l-1 -1q-1 -2 -1 -4.5v-4.5l-23 -2h16v-12h-9v-10h-13v-11h-21v-12h-96v12h-22v11h-21v33h-11v77h11q0 6 2 14t2 11l17 8h-10v12h10v11zM149 548h171v10h108v-10h11v-11h9v-303h7v-133v-199l-23 -2
h16v-56h-9v-22h-25q0 -2 -0.5 -5t-0.5 -5l-23 -2h16v-10h-9v-10h-22v-13h-33v-11h-74v-12h-97v12h-74v11h-43v13h-23v10h-11v10h-8v12h-8v68l17 9h-9v22h9q0 -2 1 -2t4 3q-1 0 -1 -1q-1 0 -1 2l17 9h-10v12h97v-12h23v-11h20v-11h11v-11h22v-12h21v-10h10v10h21v12h11v11h10
v11h20v495h-126v11h-33v11h-11v11h-10l4 59l15 8h-9v21h22v11z" />
    <glyph glyph-name="k" unicode="k" horiz-adv-x="731" 
d="M102 806h42v10h96v-10h18v-188l-23 -2h17v-247h21v11h10v11h11v12h12q0 -2 1 -2q0 1 1 1l2 1h-1v2l16 9h-7v3l17 9h-10v10h15v3l17 10h-17v79l17 9h-9v11h257v-11h11v-11h10v-77h-10v-11h-33v-11h-22v-11h-20v-13h-22v-10h-26v-10l-23 -2h17v-10h-9v-12h-27l-4 -4h1
q2 0 2 -4l-23 -2h17v-12h-9v-11h-13v-14h13v-22h9v-11h12v-12h10v-22h12v-11h9v-12h11v-11h10v-11h11v-10h11v-11h11v-23h10v-12h21v-10h106v-23h13v-67h-13v-21l-22 1q-2 -4 -2 -10l-23 -2h17v-12h-32v-11h-130v11h-22v12h-10v11h-11v11h-10v10h-12v13h-9v11h-11v12h-10v9
h-12v12h-10v23h-12v11h-9v22h-12v11h-11v22h-11v11h-10v11h-11l-1 1l-1 -1q-1 -1 -2 -1.5t-2 -1.5h3l-16 -8h9v-11h-9v-10h-15q0 -1 -0.5 -4t-0.5 -6l-23 -2h17v-24h12v-22h10v-11h43v-12h21v-10h11v-77h-11v-12h-149v-11h-110v11h-9v12h-7v69l17 8h-10v22h24l4 3h-4l17 8
h-9q0 45 2 91t2 91l17 9h-17v126l17 9h-10v123h-11v90h-75v10h-10v24h-12v66h14q1 0 2 1v2l16 8h-10v11h52v11h23v12zM252 358v-5l8 5h-8zM240 348q0 -2 1 -2l4 2h-5z" />
    <glyph glyph-name="l" unicode="l" horiz-adv-x="554" 
d="M129 806h55v10h128v-10h11v-90h10v-66h-10q0 -64 -2.5 -127.5t-2.5 -127.5l-23 -2h17v-70h6v-125l-16 -8h10v-34h11v-22h20v-12h140v-11h22v-12h9v-10h12l-5 -64l-23 -2h16v-23h-31v-11h-121v11h-113v-11h-108v11h-118v99h11v12h9v11h111v4l17 8h-9v10h10v13h-10v88h10
v416h-10v10h-11v-10h-139v10h-11v101h11v11h43v11h74v12z" />
    <glyph glyph-name="m" unicode="m" horiz-adv-x="815" 
d="M222 558h53v12h77v-12h42v-10h21v-11h10v11h43v10h161v-10h22v-11h10v-11h12v-23h8v-11h12v-34h10v-257h-10v-67h10v-12h23v-11h31v-22h12l-6 -64l-23 -2h17v-23h-226v12h-9v-12h-214v12h-11v-12h-213v12h-18v91l17 8h-6l3 3h-3l16 8h-9v12h10v269h-10v13h-65v22h-12
l5 70l16 8h-9v21h30v11h56v10h108v-10h9v10zM297 99h11v12h9v11h11q0 14 2 32t2 28l17 8h-10v169h-11v34h-11v10h-9v24h-12v11h-13q0 -2 -0.5 -4.5t-0.5 -4.5l-23 -2h17v-11h-26q0 -2 -0.5 -5.5t-0.5 -5.5l-23 -2h15q-1 -2 -1 -8l-23 -2h17v-259h11v-12h9v-11h43v-12z
M522 89h4v2l17 8h-8l-1 -1v5l17 8h-9v33h10v249h-10v23h-20v22h-21v-11h-10v-11h-15q0 -1 -0.5 -5t-0.5 -6l-24 -2h17v-269h12v-12h11v-11h31v-22zM309 95l8 -6l-8 10v-4zM296 13l-16 -1zM73 111h4l-2 -1q-1 0 -1 -1q-1 0 -1 2zM243 402q-1 0 -2 1h2v-1z" />
    <glyph glyph-name="n" unicode="n" 
d="M293 558h32v12h162v-12h11v-10h20v-11h23v-11h10v-10h10v-13h11v-22h11v-33h11v-314h10v-12h54v-11h20v-111h-20v-11h-151v11h-106v23h-10l4 58l16 8h-7v2l17 8h-9v12h10v-2q1 0 6 5h-3l17 8h-9v12h10v133h10v46h-10v58h-10v22h-12v10h-9v13h-11v11h-22v11h-8v-11h-23
v-11h-31v-13h-22v-10h-33v-22h-10q0 -24 -2.5 -47.5t-2.5 -47.5l-16 -7h9v-69h12v-66h10v-12h55v-11h21v-12h10v-10h10v-66h-10v-11h-10v-12h-268v12h-11v11h-11v66h11q0 1 1 2l2 6h-1l2 6l17 8h-10v11h20v12h11v282h-11v11h-74v11h-11v88h11v11h21v11h53v10h129v-10h12v-11
h20v11h42v10zM219 516q0 -2 1 -2l4 2h-5zM401 89h3v-1l1 1l-2 -1q-1 0 -1 -1q-1 0 -1 2z" />
    <glyph glyph-name="o" unicode="o" horiz-adv-x="613" 
d="M173 570h44v11h139v-11h53v-12h33v-10h32v-11h10v-11h12v-10h9v-13h12v-11h9v-22h13v-12h10v-22h12v-22h9v-56h5v-126l-10 -8h5v-34h-9q0 -2 -1 -11t-2 -19t-2 -17.5l-1 -7.5v2l-23 -2h17v-23h-10v-11h-13v-12h-12q0 1 -1 1q-2 0 -5 -3q1 0 1 1q2 0 2 -6l-23 -2h17v-12
h-9v-11h-27q0 -2 -0.5 -5.5t-0.5 -5.5l-22 -2h17v-10h-9v-11h-24v-11h-21v-12h-43v-11h-171v11h-33v12h-31v11h-22v11h-10v10h-22v13h-10v11h-10v12h-11v21h-10v23h-13v33h-9v23h-8v191l17 9h-9v34h9q0 1 1 2t3 5h-2l2 6l18 9h-9v22h12q1 0 1 3l17 9h-9v22h10v11h22
q0 -2 1 -2q2 4 2 7l17 8h-6l16 10h-10v11h22v11h22v10h20v12zM423 271l17 9h-21v46h-11v23h-11v10h-10v34h-10v10h-12v13h-9v11h-22v11h-21v11h-64v-11h-25q0 -2 -0.5 -4.5t-0.5 -4.5l-24 -2h15q-1 -2 -1 -4.5v-4.5l-23 -2h17v-13h-15l-4 -4h1q2 0 2 -4l-22 -2h17v-22h-11
q0 -2 -0.5 -7t-1.5 -7l-3 -18l-23 -2h17v-44h-11v-26h11v-45h11v-11h11v-21h10v-11h11v-12h11v-11h10v-12h11v-10h21v-12h62v12h22v10h26v4l16 8h-9v11h10v23h10v-1q0 1 1 3q0 2 2 6h-1l2 6v-1l17 8h-10v23h11zM100 516l3 -1l-2 -1q-1 0 -1 2z" />
    <glyph glyph-name="p" unicode="p" horiz-adv-x="636" 
d="M89 561h20v12h88v-12h52v12h183v-12h21v-11h31v-11h22v-11h12v-11h9v-12h12v-11h9v-11h12v-22h10v-11h11v-35h10v-78h6v-141l-23 -2h17v-24h-10l-1 1q-1 -1 -2 -3t-1 -5h2q-3 -8 -3 -15l-23 -2h17v-19h-10v-22h-15q-1 -1 -1 -4q0 -1 -1 -2l-16 -7h6v-3l-15 -7h9v-12h-14
q0 -1 -0.5 -2.5t-0.5 -2.5l-15 -7h9v-11h-10v-11h-32v-11h-21v-11h-55v-12h-137v-10h-11v-58h11v-44h20v-12h53v-12h12v-87h-23v-11h-256v11h-21v87h10v12h36v4l17 8h-10v33h10v483h-10v12h-11v11h-63v11h-8v80l17 8h-9v11h21v11h53v11zM240 193h11v-35h10v-12h21v-10h22
v-12h30v12h22v10h22v12h10q2 0 3 1v2l16 8h-9v13h10l2 2q1 1 3 5h-2q2 8 2 10l24 2h-17q0 1 1 2l2 6h-1q0 1 0.5 2.5t0.5 2.5t1 2l17 8h-9v24h8v79h-8v24h-12v10h-12v12h-10v10h-12v12h-8v11h-12v12h-10v11h-22v11h-52v-11l-24 1q-2 -4 -2 -10l-22 -2h17v-23h-11v-202z
M534 93l1 -1h-2z" />
    <glyph glyph-name="q" unicode="q" horiz-adv-x="613" 
d="M400 565l18 8h-10v10h97v-10h6v-131l-23 -2h17v-538h12v-12h22v-12h42v-99h-32v-11h-227v11h-21v22h-9v65h21v12h21v12h15v4l16 8h-9v10h9v90h-9v12h-21v-12h-128v12h-34v11h-31v11h-22v11h-21v11h-22v12h-10v12h-11v23h-10v9h-10v23h-13v33h-9v24h-8v168l17 9h-9v44h9
q0 5 2 13.5t2 13.5l18 8h-9v11h10v22h10v11h12q1 -1 1 -2v1l2 4l17 8h-7v4l17 8h-10v11h11v11h21v11h22v11h42v12h182v-12h32zM153 269h11v-32h11v-24h11v-20h10v-11h11v-13h11v-11h10v-12h21v-10h44v-12h29v12h26q0 1 1 2l16 8h-9v12h9v248h-9v12h-12v11h-10v11h-74v-11
l-24 1q-2 -4 -2 -10l-23 -2h17v-12h-21v-11h-11q0 -1 -1 -4l-2 -6h1l-3 -12v1l-22 -1h17v-12h-11q0 -1 -1 -3q-2 -4 -2 -6h1q-1 -2 -1 -3.5t-1 -3.5t-1 -4l-23 -2h17v-33h-11v-37z" />
    <glyph glyph-name="r" unicode="r" horiz-adv-x="636" 
d="M378 573h42v10h98v-10h42v-12h21v-11h10v-11h6v-110h-23h17v-11h-10v-12h-161v12h-20v-12h-22v-11h-24q0 -2 -0.5 -5t-0.5 -5l-23 -2h16v-10h-14q0 -1 -0.5 -4.5t-0.5 -5.5l-23 -2h16v-10h-15q0 -1 -0.5 -4.5t-0.5 -5.5l-22 -2h16v-12h-9v-181h9v-10h11v-12h161v-11h10
v-22h12l-6 -58l-15 -8h9v-11h-10v-12h-408v12h-9v11h-7v80l16 8h-9v11h52v12h22v10h11q0 1 1 2l2 6h-1q0 1 0.5 2.5t0.5 2.5t1 2l17 8h-10v126h-11v123h-11v11h-42v-11h-74v22h-8v91l17 8h-9v11h63v11h64v12h119v-23h10v-11h11v-34h3v4l16 8h-9v11h21v11h21v11h22v11h22v12z
" />
    <glyph glyph-name="s" unicode="s" horiz-adv-x="529" 
d="M139 573h64v10h119v-10h42v-12h86v-11h10v-11h11v-45h11v-111h-11v-32h-21v-12h-74v-2h31v-11h22v-11h21v-10h10v-12h11v-11h11v-13h13v-32h8v-132h-8v-13h-13v-10h-11q0 -1 -1 -3q-2 -4 -2 -6h1q-1 -3 -1.5 -7t-1.5 -4v3l-16 -7h10v-11h-10v-11h-25q0 -1 -0.5 -2
t-0.5 -2l-16 -7h10v-11h-22v-12h-62v-10h-163v10h-128v12h-12v11h-9v11h-12v46h-9v119h9q0 1 1 2t3 6h-1q0 1 0.5 2.5t0.5 2.5t1 2l16 8h-9v13h107v-13h11v-11h12v-31h11v-24h10v-12h10v-10h22v-12h21v-11h52v11h21v12h21v10h11q0 1 1 2l2 6h-1q0 1 0.5 2.5t0.5 2.5t1 2
l17 8h-10v14h-11v11h-21v11h-32v10h-43v12h-85v11h-32v12h-21v10h-21v12h-12v11h-12v12h-9v21h-12v23h-9v111h9q0 5 2.5 13.5t2.5 11.5l16 8h-9v11h11q1 -1 1 -2v1l2 4l16 8h-9v12h13q1 -1 1 -2v1l2 4l16 8h-10v11h11v11h21v11h21v12zM312 351h62h-32v22h-11v22h-11v34h-10
v11h-32v11h-52v-11h-21v-11h-13l-1 1l-1 -1q-1 -2 -1 -4.5v-4.5l-23 -2h17v-25h11v-11h11v-11h31v-10h76v-10z" />
    <glyph glyph-name="t" unicode="t" horiz-adv-x="567" 
d="M97 673h23v12h108v-12h9v-22h12l-5 -64l-24 -2h17v-12h12v-12h169v12h77v-12h10v-11h11v-99h-21v-11h-267v-89h-11v-205h11v-10h9v-12h12v-11h42v11h74v12h32v10h119v-10h23l-6 -81l-15 -8h9v-11h-22v-11h-22v-11h-30v-12h-55v-10h-97v-12h-117v12h-33v10h-20v12h-22v22
h-12v11h-9v23h-7v303l17 9h-10v47h-22v11h-54v11h-11v88h11v11h66q0 -2 1 -2v1l2 4l17 8h-10v22h9v90z" />
    <glyph glyph-name="u" unicode="u" 
d="M37 550h74v11h120v-11h9v-177h-9v-149h9v-31h12v-11h10v-24h11v-12h22v-10h32v-12h29v12h23v10h35v4l16 8h-9v11h14v2q0 1 1 2l17 9h-10v224h-11v12h-11v11h-54v11h-7v80l17 8h-10v11h54v11h54v11h97v-11h11v-33h6v-109l-23 -2h17v-237h11v-11h21v-12h53v-22h10v-77h-10
v-11h-42v-11h-22v-11h-32v-12h-97v12h-22v11h-10v-11h-30v-12h-55v-10h-128v10h-34v12h-21v11h-9v11h-12v11h-22v23h-9v12h-12v32h-10v69h-12l4 56l13 11h-17l4 56l17 10h-21v102h-10v11h-53v11h-10v11h-11v66h11v22h21v11z" />
    <glyph glyph-name="v" unicode="v" horiz-adv-x="727" 
d="M678 547h9v-79h-8v-28h-42v-11h-10q0 -1 -1 -4l-2 -6h1l-3 -12v1l-24 -2h17v-11h-10q0 -9 -2 -16.5t-2 -15.5l-24 -2h17v-34h-10q0 -1 -1 -3q-2 -4 -2 -6h1q-1 -2 -1 -3.5t-1 -3.5t-1 -3l-24 -2h17v-34h-10v2q-1 0 -2 -5t-2 -7h1q-1 -3 -2 -5.5t-1 -4.5l-23 -2h17
q0 -1 -1 -4l-2 -6h1q-2 -8 -2 -11l-23 -2h16q-2 -4 -2 -10l-24 -2h17v-32h-14q-2 -2 -2 -4q-1 -1 -1 -2l-15 -7h9v-33h-9q0 -1 -1 -6t-2 -10.5t-2 -10l-1 -4.5v1l-22 -2h17v-23h-10v-24h-10q0 -1 -1 -2t-2 -3h1q-2 -3 -2.5 -7.5t-0.5 -7.5l-23 -2h17v-11h-11v-23h-11v-10
h-131v10h-9v12h-11v22h-11v11h-12v35h-9v23h-11v22h-10v19h-11v24h-11v24h-11v33h-11v11h-10v34h-11v23h-10v32h-11v24h-11v22h-10v33h-10v23h-12v11h-75v11h-9v12h-8v68l17 8h-9v11h9v11h238v-11h43v-11h10v-88l-36 1q-2 -4 -2 -10l-23 -2h17v-13h12v-22h10v-34h12v-21h10
v-24h10v-33h10v-24h11v-21h12v-24h10v-23h10v23h11q0 1 1 2l2 6h-1q0 1 0.5 2.5t0.5 2.5t1 2l17 9h-10v34h9v23h10q0 5 2 12.5t2 10.5l17 9h-9v34h9q0 -1 0.5 1.5t1 5.5t1.5 5.5l1 2.5v-2l18 9h-9v22h9v25h-31v11h-42v22h-11v66h11v11h20v11h170v12h97v-26zM370 182
q0 -2 1 -2q0 1 1 1l2 1h-4z" />
    <glyph glyph-name="w" unicode="w" horiz-adv-x="811" 
d="M283 573v-12h44l-6 -96l-23 -2h17v-12l-77 1q-2 -4 -2 -10l-23 -2h17v-25h10v-44h11v-45h11v-33h10l1 -45q2 10 2 13l17 8h-10v46h11v35h10l2 2q1 1 3 5h-2l2 6v-1l16 9h-9v34h9v10h21v12h88v-12h11v-10h11v-23h10v-21h11v-35h11v-33h11v-24h8q0 7 2 15.5t2 11.5l17 9h-9
v45h10v43h10v47h-10v11h-75v12h-10v10h-11l4 58l17 8h-10v22h20v12h269v-12h10v-11h11v-11h11l-5 -64l-23 -2h17v-10h-11v-12h-20v-11h-23q-2 -2 -4 -9h1q-2 -8 -2 -11l-23 -2h17v-23h-10v-68h-9q0 -2 -1 -9t-2 -15q-1 -9 -2 -19v1l-24 -2h17v-23h-9q0 -8 -2.5 -16t-2.5 -15
l-7 -2v1l-1 -4t-2 -9.5t-1.5 -11t-0.5 -7.5l-23 -2h17q0 -12 -2 -27.5t-2 -22.5l-16 -7h9v-23h-10v-44h-11v-23h-10q-1 -1 -2 -3q-2 -4 -2 -6h1q-2 -7 -3 -7v1l-15 -7h9v-11h-9v-12h-119v12h-11v22h-10v22h-11v24h-11v32h-12v45h-9q0 1 -0.5 -3.5t-1.5 -10.5q-1 -7 -2 -17v1
l-23 -2h17v-35h-11v-34h-10l-3 -5h1q-2 -3 -2.5 -7.5t-0.5 -7.5l-23 -2h17v-11h-10v-23h-120v12h-10v11h-11v22h-11v35h-11v32h-10v45h-10v35h-11v33h-11v33h-12v35h-9v44h-11v44h-10v23h-12v23h-21v11h-32v28h-8v80h8v25h268z" />
    <glyph glyph-name="x" unicode="x" horiz-adv-x="708" 
d="M17 547h9v12h227v-12h53v-21h11l-5 -64l-23 -2h17v-11h-11v-23h11v-12h11v-12h10v-10h12q0 -2 1 -2q0 1 1 1l2 1l1 1q-1 -1 -2 -1l16 10h-7v3l16 9h-9v12h15v2l17 10h-32v11h-12v11h-8l4 57l16 9h-7v4l16 8h-9v9h257v-9h10v-100h-52v-10h-27q0 -2 -0.5 -5t-0.5 -5l-22 -2
h15q0 -1 -0.5 -4.5t-0.5 -5.5l-24 -2h17v-12h-10v-10h-27l-2 -9l-21 -2h17v-23h-9v-10h-13v-23h-14q-1 -1 -1 -4q0 -1 -1 -2l-6 -3q0 -3 -3 -4v1l-16 -12h21v-12h10v-11h10v-11h13v-11h9v-23h21v-12h12v-11h10v-21h12v-11h8v-12h13v-12h10v-11h21v-10h42v-12h12v-11h10v-21
h11v-67h-11v-11h-289v11h-11v101h48h-26v11h-11v22h-11v11h-12v12h-8v10h-11v-10h-10v-12h-22v-23h-17l-2 -2q1 0 1 0.5t1 0.5t1 -2l-15 -7h9v-11l-25 -2h58v-11h11l-5 -74l-23 -2h17v-23h-268v11h-8v91l17 8h-9v12h32v10h35v9l24 2h-17v12h11v12h12q2 0 3 1v2l16 8h-7
q1 0 1 2l17 8h-10v22h11v12h21v23h14q1 0 2 1v2l16 8h-4l-1 -1q-2 0 -2 4l17 8h-10v7l22 7h-22v20h-11v13h-10v11h-11v12h-10v10h-11v12h-11v11h-11v11h-11v10h-10v12h-11v12h-11v12h-21v10h-63v11h-8v81l17 8h-9v9zM145 179q1 0 2 -1z" />
    <glyph glyph-name="y" unicode="y" horiz-adv-x="682" 
d="M16 547h63v12h119v-12h85v-9h23l-6 -87l-23 -2h17v-11h-32v-24h10v-22h11v-22h11v-24h12v-23h10v-22h8v-10h13v-34h11v-9q0 2 0.5 4t0.5 4t1 4l16 8h-9v33h10v-1q1 0 1.5 3t2.5 6h-1l2 6l16 8h-9v23h11v34h9v34h10v24h-52v11h-12v11h-9v66h9v21h97v12h184v-12h10v-21h10
v-66h-10v-22h-32v-10h-33v-12h-10q-2 -6 -3 -10q-3 -8 -3 -12l-23 -2h17v-32h-9q0 -7 -2.5 -16.5t-2.5 -15.5l-23 -2h17v-24h-10q0 -1 -1 -6l-2 -10t-2 -9.5l-1 -4.5v4l-15 -7h9v-21h-10q0 -1 -1 -6.5t-2 -12t-2 -11.5l-1 -5v7l-15 -7h9v-12h-9v-32h-11v-23h-10v-22h-11
q0 -2 -0.5 -7t-1.5 -7l-3 -18l-23 -2h17v-11h-10v-22h-12q-2 0 -4 -8h1q-1 -2 -1 -4.5t-1 -4.5q-1 -3 -1 -6v1l-6 -1q-1 0 -1 0.5t-1 0.5l-1 -1l-14 -1h13l-2 -2q1 0 1 1q2 0 2 -6l-23 -2h17v-35h-11q0 2 -1 2t-2 -4t-1 -8h1q-2 -8 -2 -10l-22 -2h17v-22h-10q0 -1 -1 -2
t-2 -3h1q-2 -3 -2.5 -8t-0.5 -7l-23 -2h17v-34h-11v-23h-13v-10h-8v-23h-10v-22h-27q0 -2 -0.5 -5t-0.5 -5l-23 -1h17v-11h-24q0 -2 -0.5 -5t-0.5 -5l-23 -2h16v-11h-42v-11h-109v11h-30v11h-12v12h-10v87h10l3 6h-2q1 3 1.5 7.5t1.5 4.5v-4l17 9h-9v12h138v21h10l3 5h-2
q0 3 2 7q1 2 1 3l17 8h-10v12h11v2t2 6h-1l2 6v-1l17 8h-10v23h11v21h10v-1l1 1q1 1 1 2t2 3h-3q0 3 2 7q1 2 2 3l16 8h-9v24h-12v22h-10v23h-11v22h-10v11h-11v22h-11v22h-10v12h-11v24h-12v11h-10v21h-10v33h-11v24h-11v22h-11v23h-9v21h-11v24h-12v12h-10v10h-63v22h-12
l4 57l17 9h-9v21zM399 33h-4q0 1 1 1h3v-1z" />
    <glyph glyph-name="z" unicode="z" horiz-adv-x="554" 
d="M59 539l17 8h-10v12h289v-12h20v12h120v-12h10v-9h11l-6 -87l-22 -2h17v-21h-15q0 -1 -0.5 -4.5t-0.5 -5.5l-23 -2h17v-12h-9v-12h-16l-4 -4h1q2 0 2 -4l-23 -2h16v-11h-12q-1 0 -3.5 -1.5t-4.5 -3.5h4v1q1 0 1 -5l-23 -2h14q0 -1 -0.5 -4.5t-0.5 -5.5l-23 -2h17v-10h-14
q-2 -4 -2 -10l-23 -2h16q-1 -2 -1 -5v-5l-23 -1h16v-13h-10v-11h-13v-9h-10v-13h-14h-1l-5 -5h2l-14 -6h5q1 1 1.5 -2.5t0.5 -5.5l-23 -2h16v-11h-13q-1 -1 -1 -4q0 -1 -1 -2l-16 -7h9v-11h-9v-14h-42h15l-16 -8h9v-22h-9v-12h-21v-11h-15q0 -1 -0.5 -4.5t-0.5 -5.5l-23 -2
h17v-11h-28h102v-12h10v12h53v10h21v11h15v4l17 8h-10v12h11q1 1 1 3t2 5h-1l2 6v-1l17 8h-10v22h20v12h88v-12h10v-142h-10q0 -11 -3 -21.5t-3 -21.5l-22 -2h17v-12h-10v-11h-440v11h-32v12h-10v33h-12l4 58l17 8h-9v10h10v23h14v4l18 8h-10v11h10v10h15v9l24 2h-15
q1 0 2 1v2l17 8h-10v12h9v11h14v2q0 1 1 2l17 8h-8q1 0 2 1v2l18 8h-10v11h20q0 1 1 3.5t2 4.5h-1q0 1 0.5 2.5t0.5 2.5t1 2l17 8h-7q1 0 1 2l17 8h-10v12h11v10h10q0 -1 1 -1l7 5h-4l-1 -1v2l16 9h-9v9h13q1 0 2 1v2l17 9h-9v12h9v10h21v12h13q0 -2 1 -2q0 1 1 1l2 1h-1
l17 10h-8v3l17 9h-8q0 1 2 7h-1l2 8v-1l17 10h-116v-10h-22q-2 -2 -3 -11t-1 -11l-23 -2h17v-22h-10v-34h-22v-10h-86v10h-11v23h-11v66h11q0 14 1.5 30t1.5 27l18 9h-10v35h13zM163 291q1 0 2 -1zM337 264l2 1zM290 414h1l-1 -2v2z" />
    <glyph glyph-name="braceleft" unicode="{" horiz-adv-x="339" 
d="M128 815v9l98 -6v1h89l4 -4h10v-9h4v-98h-4v-17h-37l-10 -8h-75l3 -11l-17 -10h8l2 -19l-9 -8h4q3 -8 6 -16.5t5 -13.5l-21 -6h11q0 -2 1 -4.5t1 -4.5v-9l-9 -7h4q2 -5 4 -9t4 -9l-23 -8h12l11 -35l3 -5l-32 -9h12q-2 -8 -4.5 -17.5t-2.5 -14.5l-29 -10h8l-15 -19h-2
l39 -33l33 -73l-31 -2h16v-10.5t2 -7.5l-10 -8h4q2 -8 6 -16.5t6 -16.5l-25 -2h15l13 -37l-28 -2h16l3 -16l-10 -8h4l8 -28q1 -4 1 -6t1 -4l-9 -7h6l6 -25h-20h136v-13h-16q2 -2 4 -2h21v-98h-4v-18h-38l-11 -7h-79v-6h-58l-4 5l10 3h-55h-39l-3 45h2q-3 5 -4 9.5t-2 8.5
l-2 15l10 9h-6q0 8 -1 11.5t-1 5.5l10 8h-6q0 5 -0.5 9.5t-0.5 6.5l10 9h-5q0 4 -2 13.5t-4 16.5l9 8h-5q-2 6 -4.5 12t-4.5 12h2q-6 10 -6 11l28 1h-15l-11 31l21 6h-10l-13 35l28 2h-17l-2 16l9 8h-5q0 2 -1 4.5t-1 4.5v8l9 8h-3q-1 1 -1 2t-0.5 1t-0.5 1h1l-2 4l7 -1
l-52 41l-17 63l54 64h-4l12 39q-4 8 -4.5 11.5t-1.5 6.5l-3 14l10 8h-6q0 4 -1.5 13.5t-3.5 16.5l9 8h-6l-7 26h27h-17l-3 14q-2 8 -4 14t-1 7l23 2h-17q-1 8 -2.5 14.5t-2.5 14.5l16 7h-10q-1 4 -2.5 7.5t-2.5 7.5h1q-3 8 -5.5 13.5t-2.5 6.5l27 1h-17l-5 17q-3 8 -5 12
t-2 6l29 2h-17q-1 5 -2.5 9.5t-2.5 9.5zM54 342h1h-1z" />
    <glyph glyph-name="bar" unicode="|" horiz-adv-x="153" 
d="M-11 -69h30h-16q-5 12 -5 17l-6 23l6 7h-1q-2 8 -5.5 14t-5.5 14l17 9h-7q-1 4 -2.5 7.5t-2.5 7.5h1q-4 8 -6.5 13.5t-2.5 6.5l29 1h-16l-12 36h28h-17l-2 18l8 8h-4l-6 20l23 6h-12l-15 35l29 2h-16l-15 35h30h-16l-13 31l23 6h-11l-14 35l21 1q0 1 -4.5 2t-4.5 3
t-1.5 7l-3 10t-2.5 9l-1 4q1 -1 2 -4q1 -2 2 -5t3 -8l8 7h-5q-2 6 -4.5 12.5t-4.5 12.5l29 1h-16l-11 36h27h-17l-10 40l9 9h-4q-2 5 -4.5 10.5t-4.5 10.5l-4 13h29h-17l-4 12h1q-2 4 -3 8t-2 6l27 1h-16l-14 35l30 2h-17q0 7 -2.5 15.5t-2.5 12.5q0 1 1 1l7 7h-5
q-2 7 -2.5 17t-1.5 12l6 7h-2l-3 15q-1 6 -2 10t-1 3l9 8h-5q-2 6 -4.5 12.5t-4.5 12.5l30 1h-16l-12 35l24 2h-16q-1 8 -3 14.5t-3 14.5l16 7h-9q-1 4 -2.5 7.5t-3.5 7.5h2q-4 8 -6.5 13.5t-2.5 6.5l27 1h-16l-5 12h1l-8 23l28 2h-16l-4 16l8 9h-2l-3 15q-4 10 -4 13
q0 1 1 1l9 7h-5q-2 6 -4.5 12.5t-4.5 12.5l29 2h-16l-2 8l93 25l5 -4q8 2 15.5 4t10.5 3l1 -12h10l32 -92l-23 -8h11l9 -23l-27 -2h16l6 -17l-16 -9h7v-11t1 -7l-8 -7h5q1 -4 2.5 -7.5t2.5 -7.5h-1q3 -8 5.5 -15t2.5 -6l-29 -1h17q1 -4 3 -8q2 -8 4 -12l3 -7l-21 -8h12
q1 -8 1.5 -14t0.5 -7v1l-8 -7h4q2 -8 5 -13.5t5 -13.5l-17 -9h8l2 -18l-9 -7h5l6 -18l-17 -9h6l16 -44h-26h16l11 -30l-20 -9h9l9 -27l4 -8h-28h17l2 -17l-10 -8h5q2 -8 5 -15t5 -15l-16 -9h6l15 -33l-30 -2h17q1 -5 0.5 -10.5t1.5 -7.5l-10 -8h5q2 -8 5.5 -16.5t5.5 -16.5
l-25 -2h16l12 -37l-27 -2h16l6 -23h-25h16l14 -42l-23 -6h13l2 -16l-10 -9h6l4 -12l4 -12l-28 -2h16q4 -11 6.5 -24t2.5 -15l-7 -7h4l13 -36l-30 -2h16l9 -28l4 -8h-27h16l15 -40l-21 -7h10q2 -5 3.5 -13t3 -15.5l2.5 -12.5t2 -5v1q0 1 -0.5 1.5t-0.5 2.5l-7 -7h4l3 -6
l-20 -8h10l2 -7l-41 -15h10q2 -3 2 -5t1 -3l-79 -28l-1 13l-12 1q-1 0 -1 -0.5t-1 -0.5h-1zM91 904h1l6 2h-5zM154 473v-2q0 -1 1 -1q-1 0 -1 1q-1 1 -1 2h1zM124 -151q0 -1 -1 -1v1h1z" />
    <glyph glyph-name="braceright" unicode="}" horiz-adv-x="339" 
d="M201 817h82l-6 -19h-10l14 -5q0 1 4 1h7l-15 -33h-12q4 -1 13 -1h13l-16 -34h-13q5 -1 13 -1h16l-16 -38h11l-12 -35h-12q4 -1 12 -1h13l-9 -24h-11l20 -6l-10 -33h9l-13 -40l12 -39h-5l55 -64l-18 -63l-50 -40h5l-3 -8h12l-7 -26h-12q6 -2 11 -3.5t7 -3.5l-4 -16h-14
q6 -1 13 -1.5t10 -0.5l-11 -35h-8q3 -2 7 -2.5t15 -0.5l-16 -33h-13q5 -1 11.5 -1.5t17.5 -0.5l-16 -34h7l-9 -39h-10q2 -1 22 -1l-7 -25h-9q2 -1 7 -2t9 -1l-7 -20h-9q7 -2 8 -3t13 -1l-11 -34h-10l77 -26l-107 -27h-47q-1 -1 -1 -1.5t-1 -1.5l-2 -2l-52 2l-4 7h-79l-10 4
h-41v18h-4v98h4v7h4v8h126l-8 6l7 17h11l-21 8l15 39h13q-5 1 -24 1l6 23h8l-15 7l9 31h8l-16 8l9 28h12q-3 1 -9.5 1h-13.5l8 24h14l-29 7l33 68l39 34l-19 20q0 2 1 2h1l2 -2h8l-30 8l-7 32h11l-30 10l11 41h-12l8 24h10l-16 6l6 20h12l-23 8l13 29h-12l7 26h12l-21 7
l5 17h-70l-12 5h-41v17h-4v98h4v9h4v4h89v4h107z" />
    <glyph glyph-name="asciitilde" unicode="~" horiz-adv-x="549" 
d="M8 498h33v11l271 18v-20h-13l77 -22l133 29v-21h12v-11h6v-111l-23 -2h17v-18l-85 -13h14v-23l-105 23q-24 5 -50.5 11t-49 11t-37 8l-14.5 3q-11 0 -24 -4l-14 -3l-104 -11q-2 0 -3.5 -0.5t-3.5 -0.5h-37v10h-9v125h9v11z" />
    <glyph glyph-name="exclamdown" unicode="&#xa1;" horiz-adv-x="223" 
d="M178 -47v-25h-130v11h-23v14h-11v21h-11v35h-6v71l16 8h-10v80h11q0 18 2 36.5t2 35.5l17 9h-10q0 20 2 40.5t2 43.5l17 8h-9q0 51 2 100t2 100l17 8h-10v36h-11v12h-12v9h-11v13h-11v23h-10l4 58l16 8h-10q0 11 2 23t2 18l17 8h-6l17 9h-10v13h23v11h32v12h89v-12h21
v-11h11v-13h11v-9h11v-151l-31 -2h15v-5l-23 -2h17v-12h-11v-14h-38h26v-57h12v-220h11v-92h11v-34h11v-171h-11q0 -8 -2.5 -17.5t-2.5 -11.5l-16 -7h10v-8h-23zM15 757h4l-2 -1q-1 0 -1 -1q-1 0 -1 2z" />
    <glyph glyph-name="cent" unicode="&#xa2;" horiz-adv-x="567" 
d="M244 687l16 8h-9v11h98v-11h12v-35h11v-45h11v-12h23v-10h42v-12h22v-12h13v-12h9v-13h12v-20h10v-60h12l-5 -65l-23 -2h16v-34h-10v-11h-100v11h-21v11h-10v12h-11v35h-12v33h-10v12h-11v13h-65v-13h-23v-12h-12v-11h-22v-12l-16 -1q1 0 1 -2l-16 -7h10v-24h-11v-11h-12
v-34h-10v-81h10v-25h12v-23h11v-12h10v-10h11v-13h11v-11h23v-12h11v-11h98v11h44v12h32v11h23v13h77v-13h23v-102h-15l-6 -5h3v1q1 0 1 -5l-23 -2h17v-12h-22v-11h-21v-11h-35v-12h-42v-11h-34v-13h-23v-11h-9q0 -1 -1 -3q-2 -4 -2 -6h1q-1 -2 -1.5 -7.5t-1.5 -5.5v6
l-16 -7h10q0 -22 -3 -45t-3 -45l-23 -2h17q0 -8 -2.5 -16t-2.5 -15l-23 -2h17v-13h-98v13h-11v10h-11v138h-11v24h-33v11h-22v12h-23v11h-10v11h-11v12h-11v11h-11v13h-11v10h-10v23h-13v23h-11v23h-6v221l16 8h-10v35h11l3 6h-2q0 1 0.5 3.5t0.5 4.5q0 3 1 6q1 0 1 -6l18 8
h-9v23h10v12h11q0 1 1 2l2 6h-1l2 8l17 9h-10v9h11v11h21v13h15v3l17 9h-9v12h22v12h44v10h22v12h10q0 1 1 2t1.5 2t2.5 3h-3q2 6 3 6v-1l16 9h-9v48h11zM191 429h-15l15 1v-1z" />
    <glyph glyph-name="sterling" unicode="&#xa3;" horiz-adv-x="629" 
d="M8 514h28v10h85v31h18l-9 5h-9v10h-10v11q-17 0 -40.5 1t-39.5 1l-4 7h-21l9 104h10v12h315v-12h20v-18h7l-4 -51l-3 -12v-12h-10v-11h-20v-9h-48v-11h-7v-46h132v-10h11v-9h5v-89l-5 -14v-25h-39v-8h-115v-224h11v-21h18v-10h39v10h75v9h30v12h20v50h8v60h11v9h113v-9h9
v-141h6v-69l-7 -14h1q0 -8 -4 -16t-4 -16h-10v-11h-134v11h-392v10h-18v19h-11v66h11v11h15l5 6h-2v13h65q0 1 1 2t1 2v241q-20 0 -48.5 1t-48.5 1l-3 6h-13v11h-6v95l8 16h-2v15z" />
    <glyph glyph-name="currency" unicode="&#xa4;" horiz-adv-x="726" 
d="M487 574h8l67 50v-3l38 28q0 6 1 14.5t1 9.5l12 -13l7 4l4 -9l7 6l48 -82l25 -38h-24q0 -2 -1 -2l-1 1l-79 -57h18v-12h12v-23h12v-23h9v-59h13v-135h-13v-35h-9q0 -4 -1 -13.5t-2.5 -19t-2 -17l-0.5 -7.5v2l-23 -2h17v-22h-14q-2 -4 -2 -10l-8 -1l72 -53h-14q4 -1 11 -1
h21l-5 -11h2l-22 -25h1l-33 -44l-24 -23h1q-3 -4 -8.5 -7.5t-9.5 -7.5h-26l9 21h5l-81 57h-18v-12h-45v-11h-173v11h-35v12h-30l-92 -63h7q2 -5 4 -11t4 -11h-26l-19 15h1l-14 13h-3l-38 56l-23 35h23q-2 0 -3 1t-2 1l80 60v20h-12v34h-10v24h-8v196l17 9h-9v34h10v-1l1 2
q0 2 2 6h-1q2 8 3 8v-1l16 9h-9l3 23h6l-91 66v3h6l-20 16l50 79l6 -1q0 2 0.5 5t0.5 6v21l72 -50v1l76 -54h12v11h22v12h44v12h143v-12h54v-12zM502 279l17 9h-21v46h-11v25h-11v10h-11v36h-10v10h-13v12h-9v12h-22v11h-23v11h-67v-11h-21v-11h-14q0 -1 -0.5 -4.5
t-0.5 -5.5l-24 -2h17v-12h-10v-10h-13v-24h-9q0 -8 -2.5 -17t-3.5 -11l-15 -7h9q0 -11 -2 -21.5t-2 -22.5l-23 -2h17v-25h10v-46h12v-11h9v-22h13v-12h10v-12h12v-11h10v-14h11v-10h23v-12h65v12h23v10h24l4 4h-3l-1 -1v2l18 9h-9v11h10v24h13l-31 45h51zM533 591l1 1h-1v-1
zM23 48l-1 -1q0 1 1 1z" />
    <glyph glyph-name="yen" unicode="&#xa5;" 
d="M265 321v-12h18v23h-10v13h-206v11h-23v22h-10v80h11l1 -1q2 4 2 6l17 8h-9v11h66v11h61v19h-11v17h10q-2 1 -6 2t-14 1l-1 15h-13v23h-12v12h-10v23h-13v13h-10v23h-11l-2 22h10q-6 0 -12 2q-3 1 -5 2l-2 12h-12v11h-45v11h-23v115h23v15h236v-15h57v-23h12v-67h-16
q0 -1 -0.5 -4.5t-0.5 -5.5l-22 -2h17v-13h-47v-4h11v-23h12v-24h11v-13h13v-23h10v-11h12v-24h10v-25h12v-25h12v-10h11v-6l12 6h-5h-1v2l17 8h-10q0 3 4 10h-1l2 8v-1l17 8h-9q0 1 1 2l2 6h-1l2 8l17 9h-9v24l27 2h-17q0 2 2 10q1 4 1 7q1 0 1 -4l17 8h-9q0 -2 0.5 1.5t1 8
t1.5 8.5l1 4v-6l17 8h-7l3 3h-3l17 8h-9v29h-34v11h-22v13h-13l5 83l17 8h-9v11h171v15h100v-15h17v-100l-23 -2h16v-13h-10v-11h-35v-23h-10v-14h-13v-12h-10q0 -2 -1 -3q-2 -4 -2 -5h1q-1 -3 -2.5 -6.5t-1.5 -6.5l-23 -2h16q0 -5 -2 -11t-2 -11l-23 -2h17v-24h-13v-12h-11
v-11h-12v-35h-10v-14h-12v-16h127v-11h6v-85l-16 -8h10v-22h-66v-11h-141v-36h207v-24h6v-87l-23 -2h17v-12h-207v-23h13v-26h101v-12h24v-11h11l-5 -78l-23 -2h17v-23h-36v-12h-88v12h-14v-12h-159v12h-100v23h-11v67h11v24h22v12h59v11h9v15h10v11h-64v12h-163v12h-12v11
h-10v78h14v4l17 8h-9v12h120v12h89zM377 519h4l-2 -1q-1 0 -1 -1q-1 0 -1 2zM445 650h3q-2 -2 -3 -2v2zM591 618h-1q0 1 1 1v-1z" />
    <glyph glyph-name="brokenbar" unicode="&#xa6;" horiz-adv-x="164" 
d="M167 443h-74l74 -5v-447h-15q0 -1 -0.5 -4.5t-0.5 -5.5l-23 -2h17v-11h-132v11h-10v34h-8v306l18 9h-10v342h-8v137l18 8h-10v13h10v11h120v-11h23v-47h11v-338z" />
    <glyph glyph-name="section" unicode="&#xa7;" horiz-adv-x="466" 
d="M140 648h49v4h97l5 -4h38v-10h-12q4 -1 12.5 -1.5t18 -1t19.5 -0.5h18l6 -5h12v-10h9v-33h8v-100h-8v-26h-16v-9h-36l11 -2l15 -9q-1 0 -2 1v1q0 1 1 1l6 -3h12v-9h9v-10h8v-8h8v-26h8v-115h-16v-1q0 -2 -2.5 -5.5t-2.5 -5.5l-16 -9h8q-1 -2 -3.5 -5.5t-3.5 -5.5h2l-2 -4
h9v-25h8v-115h-16l-3 -7q0 -1 -0.5 -2t-0.5 -3l-16 -9h9l-6 -11l1 -13h-8v-8h-23q-2 -2 -2 -6v-10h-17v-10h-48v-7h-135l-4 7h-101v12h7l-10 5h-14v9h-8v35h-5v85l11 15h-3v9l5 12q1 3 5 6t4 6h10v8h-8v35h-8l-3 49l4 51l9 17h-2q1 4 1 8v6l5 12v13h16q0 1 0.5 1.5t0.5 1.5
l1 22h-7v16h-6v80l9 16h-2q1 4 1 8.5v6.5l5 12v12h17q0 2 1 4l-1 14l33 2h-16v13h8v10h17v8h16v10zM130 193h17v-24h7v-17h10v-9h6v-9h17v-9h16v-7h25v7h17v9h25q2 2 2 3v4l7 17h-3l-4 8h11q-4 1 -10 1h-13l-4 7h13q-6 1 -15 1.5t-20 0.5l-4 6h-34v4q-2 0 -10.5 1t-11.5 1
l-4 3h8l-21 3zM290 474h10l-3 14h5q-3 3 -12 3l-1 16h-3q-1 0 -1 1l-4 14h-9v9h2q-4 0 -11.5 1t-9.5 1l-4 6h-27v-8h-16v-11h-34h17v-14h-5q0 -1 1 -1h3l5 -4h13v-10h25v-7h59v-10zM212 308h52v2h14q0 1 -1 1.5t-1 1.5h5q-2 2 -9 2l-2 16h1h-4q-1 0 -1 1l-4 17h2l-5 4
q-5 0 -7 1q-2 0 -3 1l-2 3h-24l-9 5h-11v-8h-16v-9h-16q0 -1 -0.5 -1.5t-0.5 -1.5l-1 -5q0 -2 2 -8q1 -3 2 -5l14 -1v-9h25v-7z" />
    <glyph glyph-name="dieresis" unicode="&#xa8;" horiz-adv-x="443" 
d="M7 992v11h11v11h34v11h76v-11h34v-11h10v-11h10v-126h-10q-1 0 -3 -9.5t-2 -10.5l-22 -2h17v-11h-34v-12h-76v12h-34v23h-11v10h-11v126h11zM257 981v22h22v11h21v11h77v-11h32v-11h12v-11h11v-136h-15q0 -1 -0.5 -4.5t-0.5 -5.5l-23 -2h16v-11h-10v-12h-110v12h-22v23
h-10v34h-11v91h11z" />
    <glyph glyph-name="copyright" unicode="&#xa9;" horiz-adv-x="724" 
d="M219 757h56v13h137v-13h67v-16h43v-13h25l7 -12h-7q6 -2 12.5 -5t14.5 -8v-3h15v-14h12v-15h14v-14h14v-29h15v-15h12v-28h16v-30h12v-70h14v-117l-17 -12h8q-2 -8 -3.5 -11.5t-4.5 -9.5h3q1 -5 1 -11v-14h-13v-69h-16v-30l-29 -2h10l-12 -9h4v-7q0 -1 -0.5 -2.5
t-0.5 -3.5v-4h-13l-23 -12h9q-1 -2 -3.5 -6t-4.5 -11h-4v-13h-28l-20 -14h4l-7 -14h-4v-15h-28v-14h-27v-17h-56v-13h-174v13h-44v17h-40v14h-26v15h-16v11h-26v17h-13v13h-14v15h-14v29h-13v28h-16v43h-11v29h-15v217h15q0 8 2 18.5t2 13.5l17 8h-10v30h16v28h13v15h14v29
h14v14h28q3 4 3 13l25 2h-17v14h16v13h26v15h29v13h25v16zM439 341h93v44h15v42h-15v57h-5v-7l-5 -14v-20h-9v-6h-97l-4 6h-19v17h-8v52h7l-10 5h-12l1 9q-4 0 -7 1t-4 1l-11 5v-7h-16v-9h-17v-8h-8v-8h-7v-8h-8v-9h-11q0 1 -1 1l-2 -1l-15 -10h8l-4 -11v-28h-7v-37h7v-26
h-6q0 -1 1 -1h4l5 -5h13v-16h8v-9h8v-9h15v-9h-12q3 -1 6.5 -1.5t11.5 -0.5l6 -4h73v7h16v8h22v9zM409 196h-130l3 -6h-12q1 -1 4 -1h9l14 -3q23 -8 30.5 -10.5t8.5 -3.5h35v13h38v11zM274 641h135h-135zM250 626h-3v-3h3v3zM264 202q1 0 2 -0.5t3 -0.5l-8 1h3zM629 202
l1 -1z" />
    <glyph glyph-name="ordfeminine" unicode="&#xaa;" horiz-adv-x="388" 
d="M3 521h15v30h-6v7q0 5 -1 11t-1 11v47q0 2 2.5 10t7.5 17h6q-8 5 -11.5 5h-6.5q19 18 27 25.5t15 12.5h-6q1 0 1 1t1 3l-1 71h2q-2 3 -2 9q0 12 12.5 19.5t26.5 11.5h-9l12 8h-6q1 2 12 6t22 6h-2q5 3 12.5 7t29.5 4h77q10 0 18 -3.5t15 -8.5h-7q14 -4 21 -7.5t11 -7.5
h18l2 -12h9v-96q0 -12 -8 -24h3q0 -14 1 -27t1 -27h-2v-2.5t-4 -1.5q7 -2 16 -8t17.5 -13.5t14 -15t5.5 -12.5q0 -31 -17 -48h17v-8h10v-8h7v-102h-7v-17h-35v-9h-326v11h-3l-4 7h-10v110h8v8zM174 735h4q6 0 10.5 -1t7.5 -2l6 3h-5l-6 8h4q-2 1 -7 1l-13 -1h12l-9 -6z
M198 629h-17q2 -2 1.5 -1.5t2.5 -1.5q4 1 11 1zM47 529h10q-4 0 -5 1q-1 0 -2 1zM203 524l-2 5v-5h2z" />
    <glyph glyph-name="guillemotleft" unicode="&#xab;" horiz-adv-x="643" 
d="M375 198l-62 -106l-4 5h-24v-24l-289 222l4 10v72l-4 10l289 224v-24l27 26v-27l3 3l59 -105l164 127v-27l28 14v-12l3 3l65 -115l-29 -2h17v-7t1 -6l-2 2l3 -8l-97 -57l-4 4l-66 -60l61 -54l4 6l101 -64l-4 -7h-4q2 -2 10 -2l-2 -9h-12l20 -8l-64 -110l-6 6h-23v-25z
M204 340l47 -42l3 7v72l-3 6l-8 -8zM359 210h-2l4 -2z" />
    <glyph glyph-name="logicalnot" unicode="&#xac;" horiz-adv-x="493" 
d="M302 273h-283v10h-12v12h-10v125h10v11h33v12h176v-12h88v12h153v-15h22v-316h-15q0 -1 -0.5 -4.5t-0.5 -5.5l-23 -2h17v-12h-133v12h-10v33h-12v140z" />
    <glyph glyph-name="uni00AD" unicode="&#xad;" horiz-adv-x="493" 
d="M7 431h33v12h176v-12h88v12h153v-12h12v-11h11v-113h-11v-24h-45v-10h-404v10h-13v12h-10v125h10v11z" />
    <glyph glyph-name="registered" unicode="&#xae;" horiz-adv-x="724" 
d="M219 739h56v15h137v-15h67v-15h43v-13h25l7 -13h-9l18 -6l11 -6v-3h15v-13h12v-17h14v-14h14v-29h15v-14h12v-28h16v-30h12v-70h14v-119l-21 -9h12q-1 -4 -1.5 -8.5t-5.5 -13.5h2q1 -5 1 -11v-14h-13v-70h-16v-28l-29 -2h10l-12 -10h5l-5 -5h5q0 -2 -1 -3.5t-1 -4.5v-5
h-13l-22 -11h4h1q0 -1 -5 -18h-4v-15h-45h10l-13 -11h4l-7 -14h-4v-16h-28v-14h-27v-16h-56v-13h-174v13h-44v16h-40v14h-26v16h-16v12h-26v15h-13v13h-14v16h-14v28h-13v28h-16v44h-11v28h-15v217h15q0 7 2 17l2 16l17 8h-10v30h16v28h13v14h14v29h14v14h28q0 -1 1.5 3
t1.5 6l17 8h-9v13h16v12h26v16h29v13h25v15zM219 274h-9v247h-6v6h2q-5 0 -10 1t-6 1l-2 1l-5 -7h3q-1 -4 -1.5 -8t-3.5 -11l1 -24h-17v-55h-13v-72h13v-58h16v-12h12l26 -16h-17zM532 367h15v42h-15v57h-13v29h-14v13h-4v-66h-6v-20h-6v-13h-7v-4h-6v-14h-11v-6h-9
q0 1 -1 2v-1l-17 -8h9q0 -2 0.5 -4t0.5 -4h-5l5 -5h11v-11h6v-6h5v-6h6v-13h6v-12h7v-7h6v-12h6v-12h5v-3h13v27h13v57zM366 518h-5l-4 3h-11l1 6q-4 0 -9 1t-6 1l-3 2v-4h-7v-11h-4v-64h4v-5q8 1 15.5 1.5t16.5 0.5l7 3h-9v8h5v5h6v7h7v5h5q0 7 -0.5 14t-0.5 14h5l-7 7h1z
M281 173l16 -5q23 -8 30.5 -11t8.5 -3h35v13h38v12h20h-11l-7 8h-11v12h-7v6h-6l-2 15h6l-8 3v-41h-17l11 -7zM336 261h27l-6 1v12h-5v11h-6v13h-6v12h-12v7h-6l-1 14h6l-9 8v-65h4v-7h14v-6zM377 624v-4h28l-8 4h-20z" />
    <glyph glyph-name="macron" unicode="&#xaf;" horiz-adv-x="577" 
d="M8 919h33v11h176v-11h168v11h152v-11h11v-13h11v-71h-11v-23h-44v-12h-483v12h-13v11h-9v83h9v13z" />
    <glyph glyph-name="degree" unicode="&#xb0;" horiz-adv-x="241" 
d="M206 851q-2 -3 -5.5 -6t-16.5 -6h12q0 -1 -0.5 -1.5t-0.5 -1.5h-5l22 -22h-26q-9 0 -19.5 -0.5t-18.5 -0.5h-61q-20 0 -32.5 7.5t-12.5 8.5h2q-8 1 -14 3.5t-7 9.5h12q-5 2 -9.5 2.5t-6.5 2.5l-25 -31v54q0 9 -0.5 19.5t-0.5 16.5v66q0 13 3 19.5t10 11.5h-6q0 1 2 3l4 4
t7 6h-6q0 2 4.5 6t9.5 9l1 1q-2 0 -2.5 -0.5t-1.5 -0.5h-2v1l2 4h5q-7 6 -13 12.5t-11 14.5h221l-22 -22l11 -10h-6q7 -6 11.5 -11t8.5 -10l2 -6q0 -8 3.5 -10t2.5 -3h8v-71q0 -11 -2 -15.5t-10 -10.5h6q0 -5 -3 -9.5t-11 -12.5h5l-20 -19h3zM131 939q-17 10 -20 21h6
q-4 2 -4 3h-1l-2 -2v1l-9 -9h5q0 -2 0.5 -3t0.5 -2h-1v-1q0 -4 -6 -10h-1l7 -7h-10q3 -3 5 -3.5t3.5 0.5t2.5 1.5t3 -2.5q2 0 3.5 0.5l4.5 1.5h-1q0 1 2 2t3.5 2.5t5.5 3.5h-6q0 1 0.5 1.5t0.5 1.5h8z" />
    <glyph glyph-name="plusminus" unicode="&#xb1;" horiz-adv-x="584" 
d="M2 124h7v7h22v10h144v-10h27v6h-8v179h-7v6h15q-7 1 -16.5 1.5t-20.5 0.5l-4 6q-8 0 -12.5 0.5t-9.5 1.5h-8q-1 0 -14 0.5t-33 4.5h1q-24 3 -59 3l-5 5h-22v92h7v13h6v9h45v7h137v192h8v9h14v5h106v-5h9v-9h7v-7h6v-180l2 -5q42 0 84 -1.5t86 -1.5l5 -4h12v-9h8v-105h-8
v-15h-28v-6h-136l-5 6h-20v-193h-6v-6h84v10h126v-10h10v-7h7v-95h-7v-17h-32v-8h-509v10h-2l-3 7h-10v103z" />
    <glyph glyph-name="twosuperior" unicode="&#xb2;" horiz-adv-x="291" 
d="M31 814l9 -1v11h6v5h10q0 1 4 2.5t4 2.5h11v6h129v-6h15v-5h10v-5h4v-6h5v-4h6v-4h4v-6h5v-5h5v-5h4v-11h5v-15h5v-117h-5v-15h-5v-16h-4v-11l-5 1l-10 -8l1 -7h-6v-9h-5v-5h-4v-7h-4v-4h-6v-11h-22h10l-11 -8h8v-5h-8v-8l12 3l40 -3h39v-97h-8q0 -3 -0.5 -4t-0.5 -4
l-8 -12l-20 -2h17v-2h-254l-9 8h-10v97h5v9h20q-4 0 -4 2q0 1 0.5 1t0.5 1h-2l3 17h5v6h5v4h4v6h7q0 2 1 3t1 3v8h6v5h4v6h6v5h5l10 9l-1 5h5v11h5v5h5v6h5v4h4v4h5v10h4v6h5v4h-89l-5 6h3l-4 3h-10v97h4v15h9l3 6h-2v10h5v5h5v6h4v4z" />
    <glyph glyph-name="threesuperior" unicode="&#xb3;" horiz-adv-x="291" 
d="M50 828l35 8v6h97v-7h-15q8 -2 13 -2h39v-6h10v-5h9v-6h6v-4h4v-6h5v-8h5v-6h4v-21h5v-125h5v-11h5l3 -14v-16h7v-108h-8q0 -2 -0.5 -5.5t-0.5 -5.5v-18h-6v-10h-5v-11h-5v-5h-4v-4h-5v-6h-5v-5h-4v-5h-11v-5h-14v-6h-15v-4h-158v6h7q-2 0 -4 0.5t-3 0.5l-9 5h-9l-4 6
l-5 3q-2 0 -3.5 0.5t-2.5 0.5l-5 3h-9v10h-5v68l16 12h-7v13h96l5 -9h21v-6l25 6h-17v9h5v5h4v9h5v9h-5l1 13l-10 8q-2 0 -3.5 0.5t-2.5 0.5l-4 3h10q-8 1 -19 1.5t-25 0.5l-9 8h-10v90q-8 0 -16 1t-16 1l-21 2v114h5v5h5v10h13v11h10v1zM111 520q3 -1 11 -1l3 1h-14z
M142 711v-1l7 1h-7z" />
    <glyph glyph-name="acute" unicode="&#xb4;" horiz-adv-x="290" 
d="M-12 917l3 2l-5 8l22 11h-8l-3 7l122 74v-10l15 10h-2q-4 4 -6 4v-1l-2 1l106 67l5 -19q2 1 2.5 2t2.5 2q1 1 3 1l45 -86l-7 -7h5q2 -5 5 -9.5t5 -9.5l-28 -15h5l5 -6l-213 -124l-16 13h7l-8 3h-18zM280 944l-1 -2q-1 0 -1 1zM216 1058l2 1h-1z" />
    <glyph glyph-name="mu" unicode="&#xb5;" horiz-adv-x="530" 
d="M486 475h-1l12 -28v-56h-9q0 -52 -2.5 -103.5t-2.5 -101.5l-16 -7h10q0 -11 -1 -19.5t-1 -16.5v-10l-6 -12v-33h-18q-1 -1 -1.5 -3.5t-0.5 -3.5v-23h-20v-10h-17l-4 -7h3q0 -3 -4.5 -6.5t-4.5 -6.5h-10v-10h-30v-7h-137l-5 7h-46v-59q0 -13 -0.5 -33t-0.5 -41v-40.5
v-32.5l-75 31h-81v538h-5v120l16 8h-9q0 2 0.5 3.5t0.5 4.5l9 16h-3v15h117v-9h42v-133l-3 -12v-13h-11v-174h11v-10h7v-10h10v-11h30v-10h47q1 2 5 5t4 5h10v8l25 6h-9l6 11h-3v16h13v7l8 16h-2v111h-6v166l9 16h-3v13h146z" />
    <glyph glyph-name="paragraph" unicode="&#xb6;" horiz-adv-x="528" 
d="M91 793h53v12h307v-875h-2l10 -18h22v-13h5v-95l-10 -8h5v-14h-109l-33 27v-2h-9v-11h-32v-14h-147v14h-6v94l16 9h-10v13h34v375h-21v11h-41v13h-21v12h-21v11h-21v15h-10v12h-10v21h5q-1 1 -4.5 1.5t-6.5 0.5l-4 14h-14v34h5q-1 1 -9 1l-4 14h-11v224h10l3 6h-2
q1 2 1.5 9t1.5 7t1 -7l16 8h-8q2 4 2 5l17 8h-10v26h11v11h10v14h10v11h21v11h10v13zM322 -78v353h-2v-77t-0.5 -93t-0.5 -93v-77h-1zM19 694l1 -1v-1q0 1 -1 2z" />
    <glyph glyph-name="periodcentered" unicode="&#xb7;" horiz-adv-x="225" 
d="M34 529h7v8h31v9h72v-9h-12q5 -1 8 -2t6 -1.5t7.5 -0.5h12.5l5 -4h13v-8h7v-15h7v-16h9v-65h-9v-23h-7v-9h-7v-7h-8v-10h-7v-6h-8v-9h-89v9h-23v6h-15v10h-9v7h-7v16h-9v72h9v33h7v7h9v8z" />
    <glyph glyph-name="cedilla" unicode="&#xb8;" horiz-adv-x="588" 
d="M319 -229l-97 3q-14 0 -17 1t-9 2l-9 4h-4l-5 3h-10v10h2l-8 5h-6v10h-4v23h-5v87l26 2h-10l12 9h98v-11h5v-20h3v5h5v6h5v9l23 2h-15l-8 4h-5v11h4l-9 5h-4v17h5l-5 3q-14 0 -22 2.5t-8 3.5v15h5l-12 9q-11 8 -18.5 15t-11.5 9v56h115h42v-15h15l5 -11h8v-8h2l10 -14
l6 -1v-9h5v-14h5v-20v-133h-5v-9h-5v-10h-7q0 -2 -1 -3t-1 -3l-17 -12h8v-6l-9 1l-3 -5h-2l-8 -8v-7h-6v-5h-12v-3zM278 -106v-3l4 3h-4z" />
    <glyph glyph-name="onesuperior" unicode="&#xb9;" horiz-adv-x="285" 
d="M2 829h53v5h25v6h106l1 -6h-3l10 -14v-289h5v-5h5v-4h68l8 -9v-98h-259l-8 4h-11v99h5v4h10v4h47v5l23 2h-23v183h-65v10h-5v92h8v11z" />
    <glyph glyph-name="ordmasculine" unicode="&#xba;" horiz-adv-x="388" 
d="M100 532h-38v14h-13v9h-9v25h-12v24h-10v158h10l3 6h-2q1 3 1.5 7.5t1.5 4.5t1 -4l16 8h-9v25h9v12h28v2l16 9h-9v12h186v-12h33v-11h11v-12h10v-11h13v-24h9v-35h11v-124h-11v-23h-9v-23h-13v-14h-16l-2 -2h1q2 0 2 -5l-22 -2h16v-12l-34 -5h94v-8h10v-8h7v-102h-7v-17
h-35v-9h-326v11h-3l-4 7h-10v110h8v8h25v8zM204 718h-12v11h-26l-3 -3h3l-16 -8h10v-12h-11q0 -3 -1.5 -9.5t-2.5 -6.5v4l-16 -12h20v-11h11v-12h11v-11h21v11h24q0 2 2 5h-2q0 3 2 7q1 2 1 3l17 9h-21v12h-11v23z" />
    <glyph glyph-name="guillemotright" unicode="&#xbb;" horiz-adv-x="643" 
d="M621 377v-72l4 -10l-289 -222v24l-20 -13l-5 11l-4 -4l-58 110l-166 -128v25l-24 -12v11l-5 -5l-69 116l29 2h-16l-4 11h8q-2 2 -2.5 4t-2.5 3l86 48l5 -1l76 66l-64 57l-4 -4l-99 60l4 8h5q-1 1 -2 1.5t-6 0.5v8h12l-22 7l66 112l5 -6l5 8l18 -9q0 7 0.5 16.5t0.5 11.5
l163 -129l62 108l5 -6l6 9l16 -9q0 7 0.5 15.5t0.5 10.5l287 -222zM365 385v-80l4 -8l48 44zM256 474l3 -2h5zM-3 228h-1v1z" />
    <glyph glyph-name="onequarter" unicode="&#xbc;" horiz-adv-x="708" 
d="M345 280h-14v-12h-13v-12h-20v-12h-22v-12h-33v-10h-23v-12h-23v-11l-24 1q-1 -2 -1.5 -1.5t-0.5 -7.5l-23 -2h17v-13h-21v-11h-22v-12h-22v-12h-77v12h-11v12h-11v90h15v4l17 8h-10v11h22v10h22v12h33v11h22v13h23l2 2l17 9h-10v13h22v11h34v11h22v12h11v12h22v10h45
q0 -2 1 -2q2 4 2 7l17 9h-242v11h-21v101h21v13h78v11h10v152h-10v11h-88v12h-11v22h-7v71l17 9h-10v22h87v13h144v-13h10v-33h10v-114h-10v-140h10v-23h22v-13h79v-10h10v-35h10v12h23v11h22v12h21v10h22v13h121v-13h12v-79h-12v-9h-11v-13h-22v-11h-22v-12h-21v-11h-23
v-11h-21v-13h-23v-10h-22v-12h-21v-11h-24q-2 -4 -2 -10l-23 -2h16v-11h-32v-15h-22h87v-12h10v-78l-28 -2h17q-1 -4 -2 -9.5t-1 -7.5l-23 -2h16v-24h-10q-1 0 -3 -10t-2 -12l-23 -2h16v-34h-10v-25h-13v-11h45v10h11q0 18 2 36.5t2 36.5l17 9h-9v35h10v10h88v-10h12v-13h9
v-79h13v-25h9v-10h45v-13h11v-11h6v-88l-23 -2h17v-23h-56v-11h-9v-36h-13v-21h-9v-12h-100v12h-10v11h-12v34h-11v23h-177v12h-9v11h-12v12h-10v112h10q0 7 2 15.5t2 11.5l17 9h-9v11h9l3 6h-2q1 3 1.5 7.5t1.5 4.5v-4l17 9h-9q0 -2 0.5 1.5t1 8t1.5 8.5l1 4v-6l17 8h-10
q0 5 2 14t2 11l17 8h-9v12h10q0 7 2 15.5t2 11.5l18 8h-9v23h11zM352 288v-5l9 5h-9z" />
    <glyph glyph-name="onehalf" unicode="&#xbd;" horiz-adv-x="659" 
d="M373 319h133v-12h32v-12h23v-12h11v-9h10v-13h12v-23h10v-22h6v-91l-23 -2h17v-22h-10v-23h-12v-12h-10v-12h-28l-3 -3h3v-5l-23 -2h17v-12h-21v-11h-11v-11h-35v-12h-24q-1 -2 -1 -4.5v-4.5l-23 -2h17v-4h32v14h21v10h23v13h99v-13h11v-113h-11v-23h-21v-12h-101v12h-22
v-12h-230v12h-21v11h-7v93l17 8h-10v24h11v13h10v11h26v9l24 2h-17v12h34v12h26v2l16 8h-10v12h23v12h22v11h11v11h10v11h22q0 -2 1 -2l2 4t1 3l17 8h-9v11h15v4l16 9h-21v13h-10v11h-55v-11h-12v-13h-10q0 -1 -1 -3q-2 -4 -2 -6h1q-1 -2 -1.5 -7.5t-1.5 -5.5v6l-16 -7h10
v-25h-18l1 -1l-16 -7h10v-13h-98v22h-11v79h11v36h10l2 2h-24v-13h-21v-10h-26q0 -2 -0.5 -5t-0.5 -5l-23 -2h17v-11h-23v-11h-23q-1 -1 -1 -4q0 -1 -1 -2l-16 -7h9v-11h-98v11h-8v96l17 8h-9v9h21v12h33v12h22v12h11v10h32v13h23v11h23v11h9v12h34v11h21v12h25v2q0 1 1 2
l16 8h-9v9l38 5h-246v11h-10v90h21v12h77v23h11v140h-11v22h-88v12h-10v11h-9v83l18 8h-9v11h64v12h155v-12h12v-11h9v-289h23v-10h76v-12h11v-11h12l-1 -12h33v12h27v9l24 2h-17v12h22v10h10v13h110v-13h10v-102h-26l-3 -3h3v-5l-23 -2h17v-11h-32v-12h-23v-13h-22v-12h-21
v-12h-23v-10h-22v-11h-21v-12h-22v-11h-23v-12h-22v-1zM417 491h-1l1 12v-12zM332 121l1 1l-13 -1h12zM283 275l-1 -1z" />
    <glyph glyph-name="threequarters" unicode="&#xbe;" horiz-adv-x="708" 
d="M345 280h-14v-12h-13v-12h-20v-12h-22v-12h-33v-10h-23v-12h-23v-11l-24 1q-1 -2 -1.5 -1.5t-0.5 -7.5l-23 -2h17v-13h-21v-11h-22v-12h-22v-12h-77v12h-11v12h-11v90h15v4l17 8h-10v11h22v10h22v12h33v11h22v13h23l2 2l17 9h-10v13h22v11h34v11h22v12h11v10l34 5
q-32 0 -69 1t-68 1l-5 6h10q-11 0 -21.5 2t-14.5 2l-4 6h2q-2 0 -4 0.5t-3 0.5l-4 3h-10l-8 5h-7v11h-7v82h7v4h7v5h104v-5h13v-4h12v-4h28v8h8v5h6v4h6v12h7q0 2 1.5 4t1.5 4h5l-13 11h3q-3 0 -5 0.5t-3 0.5l-4 3h-4l-9 5l-11 4q-7 0 -20.5 1t-22.5 1l-6 7h3l-4 3h-11v79
l17 13h-76l-8 4h-6v98h6v15h7v5h5v12h17v9h26v11h31v4h99v-4h29v-7h20v-7h-12q2 -1 6.5 -1h6.5l5 -4l-2 -1h27v-7h5v-5h6v-10h7v-5h4v-19h7v-128h6v-10h6v-12h6v-18h7v-107h-7v-17h-6l16 -1v12h21v12h23v11h22v12h21v10h22v13h121v-13h12v-79h-12v-9h-11v-13h-22v-11h-22
v-12h-21v-11h-23v-11h-21v-13h-23v-10h-22v-12h-21v-11h-24q-2 -4 -2 -10l-23 -2h16v-11h-32v-15h-22h87v-12h10v-78l-28 -2h17q-1 -4 -2 -9.5t-1 -7.5l-23 -2h16v-24h-10q-1 0 -3 -10t-2 -12l-23 -2h16v-34h-10v-25h-13v-11h45v10h11q0 18 2 36.5t2 36.5l17 9h-9v35h10v10
h88v-10h12v-13h9v-79h13v-25h9v-10h45v-13h11v-11h6v-88l-23 -2h17v-23h-56v-11h-9v-36h-13v-21h-9v-12h-100v12h-10v11h-12v34h-11v23h-177v12h-9v11h-12v12h-10v112h10q0 7 2 15.5t2 11.5l17 9h-9v11h9l3 6h-2q1 3 1.5 7.5t1.5 4.5v-4l17 9h-9q0 -2 0.5 1.5t1 8t1.5 8.5
l1 4v-6l17 8h-10q0 5 2 14t2 11l17 8h-9v12h10q0 7 2 15.5t2 11.5l18 8h-9v23h11zM227 688h8v16h24h-18l-4 5v-2h-6v-10h-4v-9zM352 288v-5l9 5h-9zM237 710h5q-2 0 -2 1t-1 2h-2v-3zM311 405q-2 0 -2 -0.5t-1 -0.5h2z" />
    <glyph glyph-name="questiondown" unicode="&#xbf;" horiz-adv-x="447" 
d="M139 -72v10h-45v14h-10v9h-22v13h-11v12h-10v10h-13v13h-10v11h-12v34h-10v148h10q0 6 2 14t2 12l17 9h-9v24h10v22h17v2l17 9h-8q0 1 0.5 2t0.5 3l16 8h-9v10h15v4l16 8h-9v12h10v12h11q0 1 1 2l2 6h-1l2 8v-1l17 8h-9v10h13q0 1 0.5 0.5t0.5 3.5l17 8h-9v22h9q0 1 1 2
l2 6h-1q2 10 2 13l25 2h-16v83h10v10h122v-10h10v-126h-10q0 -2 -1 -7.5t-2 -11.5l-2 -16v1l-23 -2h16v-22h-12l-1 1l-1 -1q-1 -2 -1 -4.5v-4.5l-23 -2h16v-23h-10v-24h-22q-1 -1 -1.5 -4t-1.5 -5h1l-3 -12v1l-24 -2h17v-11h-14q0 -1 -1 -4.5t-1 -5.5l-23 -2h16q0 -5 -2 -11
t-2 -11l-6 -2h-17h15q-3 -5 -3 -10h1q-2 -8 -2 -10l-23 -2h17v-24h-8v-36h8v-35h12v-23h23v-11h36v2l18 9h-9v13h9v23h11q0 20 2 44t2 45l25 2h-17v11h9v11h123v-11h9v-11h13v-137h-13v-11h-9q-1 -1 -2 -3l-3 -6h2q-3 -6 -3 -11l-23 -2h17v-23h-15q0 -1 -0.5 -5t-0.5 -6
l-23 -2h17v-22h-23v-15h-41h15v-5l-23 -2h16v-14h-31v-10h-154zM161 550v11h-22v12h-22v23h-12v23h-11v89h11q0 1 1 2l2 6h-1l2 8l17 9h-9v23h22v10h164v-10h13v-12h8v-138h-8v-10h-13v-23h-22v-12h-22v-11h-98zM161 215h21h-21zM193 239h-1q0 1 1 1v-1z" />
    <glyph glyph-name="Agrave" unicode="&#xc0;" horiz-adv-x="777" 
d="M60 140l17 8h-10v14h11q0 6 2 14t2 12l18 8h-10v11h10q0 7 2 15.5t2 11.5l17 8h-10q0 6 2 14t2 12l17 8h-9q0 6 2 14t2 12l16 8h-10v24h11q0 1 1 2l2 6h-1l2 8l18 9h-10v22h10q0 9 2 19.5t2 18.5l17 8h-10l4 6h-3l3 12q1 0 1 -4l16 8h-9l3 5h-2q0 3 2 7q1 2 1 3l17 8h-9
v36h9v21h10q0 7 2.5 15.5t2.5 11.5l16 8h-9v46h11q0 6 2 14t2 12l17 9h-10v35h11l3 6h-2q0 1 0.5 3.5t0.5 5.5q0 4 1 7q1 0 1 -7l18 8h-10v46h10v47h40h-10l-181 114l5 6h5l-25 16l9 18h3l-5 6l49 93l10 -10l5 9l97 -58l-4 -5h-6l8 -4t3 -2t3 -2t7 -4v7l119 -70l-2 -6h-9
l21 -11l-4 -10h-5l7 -6l-32 -60h24v-11h11v-12h11v-22h10v-35h12v-23h11v-34h11v-35h11v-35h11v-34h11v-35h11v-33h11v-36h11v-23h10v-22h12v-23h11v-45h11v-25h11v-24h10v-45h12v-23h10v-35h12v-22h10v-23h12v-23h23v-12h32v-11h21v-103h-10v-11h-297v11h-34l5 82l16 8h-9
v13h44v11h33v25h-10v35h-12v21h-11v12h-12v12h-153v11h-11v-11h-26q0 -2 -0.5 -5t-0.5 -5l-23 -2h17v-45h-10v-36h10v-12h66v-11h11l-6 -82l-10 -8h5v-13h-121v-11h-176v11h-17v94l17 9h-9v11h22v12h24v1zM298 367h11v-8h103l11 8l-4 4h-12v45h-10v35h-13v34h-9v24h-11v11
h-11v-23h-11q0 -2 -1 -9.5t-2 -15.5q-1 -10 -2 -21v2l-23 -2h17q0 -1 -1 -4l-2 -6h1q-1 -3 -2 -7.5t-2 -4.5v1l-22 -2h17q0 -7 -2 -15l-3 -18l-23 -2h17v-22h-11v-4z" />
    <glyph glyph-name="Aacute" unicode="&#xc1;" horiz-adv-x="777" 
d="M541 1051l5 -22q4 2 5 3t2 1l44 -81l-6 -6h3l12 -18l-30 -15h6q1 -6 3 -6l-169 -101h14v-12h11v-22h10v-35h12v-23h11v-34h11v-35h11v-35h11v-34h11v-35h11v-33h11v-36h11v-23h10v-22h12v-23h11v-45h11v-25h11v-24h10v-45h12v-23h10v-35h12v-22h10v-23h12v-23h23v-12h32
v-11h21v-103h-10v-11h-297v11h-34l5 82l16 8h-9v13h44v11h33v25h-10v35h-12v21h-11v12h-12v12h-153v11h-11v-11h-26q0 -2 -0.5 -5t-0.5 -5l-23 -2h17v-45h-10v-36h10v-12h66v-11h11l-6 -82l-10 -8h5v-13h-121v-11h-176v11h-17v94l17 9h-9v11h22v12h24l17 9h-10v14h11
q0 6 2 14t2 12l18 8h-10v11h10q0 7 2 15.5t2 11.5l17 8h-10q0 6 2 14t2 12l17 8h-9q0 6 2 14t2 12l16 8h-10v24h11q0 1 1 2l2 6h-1l2 8l18 9h-10v22h10q0 9 2 19.5t2 18.5l17 8h-10l4 6h-3l3 12q1 0 1 -4l16 8h-9l3 5h-2q0 3 2 7q1 2 1 3l17 8h-9v36h9v21h10q0 7 2.5 15.5
t2.5 11.5l16 8h-9v46h11q0 6 2 14t2 12l17 9h-10v35h11l3 6h-2q0 1 0.5 3.5t0.5 5.5q0 4 1 7q1 0 1 -7l18 8h-10v46h10v45h23l2 4l18 8h-10v11h9l-32 63l1 1q-1 1 -2.5 3.5t-1.5 4.5l20 13h-5l-3 7l121 73v-12l17 12h-6q0 2 -1 2.5t-1 2.5l2 1zM298 367h11v-8h103l11 8l-4 4
h-12v45h-10v35h-13v34h-9v24h-11v11h-11v-23h-11q0 -2 -1 -9.5t-2 -15.5q-1 -10 -2 -21v2l-23 -2h17q0 -1 -1 -4l-2 -6h1q-1 -3 -2 -7.5t-2 -4.5v1l-22 -2h17q0 -7 -2 -15l-3 -18l-23 -2h17v-22h-11v-4zM438 988l-2 -1h-1q0 4 1 4l1 -1q0 -1 1 -2zM589 908l-1 -2l-1 1z
M525 1021h1l2 1h-2z" />
    <glyph glyph-name="Acircumflex" unicode="&#xc2;" horiz-adv-x="777" 
d="M370 1019q9 2 24 6.5t23 7.5l1 -22h-2l91 -162l-7 -6h3q5 -10 8 -13l-28 -16h6l-56 -36h8v-6h10v-35h12v-23h11v-34h11v-35h11v-35h11v-34h11v-35h11v-33h11v-36h11v-23h10v-22h12v-23h11v-45h11v-25h11v-24h10v-45h12v-23h10v-35h12v-22h10v-23h12v-23h23v-12h32v-11h21
v-103h-10v-11h-297v11h-34l5 82l16 8h-9v13h44v11h33v25h-10v35h-12v21h-11v12h-12v12h-153v11h-11v-11h-26q0 -2 -0.5 -5t-0.5 -5l-23 -2h17v-45h-10v-36h10v-12h66v-11h11l-6 -82l-10 -8h5v-13h-121v-11h-176v11h-17v94l17 9h-9v11h22v12h24l17 9h-10v14h11q0 6 2 14t2 12
l18 8h-10v11h10q0 7 2 15.5t2 11.5l17 8h-10q0 6 2 14t2 12l17 8h-9q0 6 2 14t2 12l16 8h-10v24h11q0 1 1 2l2 6h-1l2 8l18 9h-10v22h10q0 9 2 19.5t2 18.5l17 8h-10l4 6h-3l3 12q1 0 1 -4l16 8h-9l3 5h-2q0 3 2 7q1 2 1 3l17 8h-9v36h9v21h10q0 7 2.5 15.5t2.5 11.5l16 8
h-9v46h11q0 6 2 14t2 12l17 9h-10v35h11l3 6h-2q0 1 0.5 3.5t0.5 5.5q0 4 1 7q1 0 1 -7l18 8h-10v46h10v37h7l-46 29h7l-25 16l6 12h11q-5 1 -11 3q-3 1 -5 2l94 162h-2v27l9 -4v6zM298 367h11v-8h104h-1l1 1l10 7l-4 4h-12v45h-10v35h-13v34h-9v24h-11v11h-11v-23h-11
q0 -2 -1 -9.5t-2 -15.5q-1 -10 -2 -21v2l-23 -2h17q0 -1 -1 -4l-2 -6h1q-1 -3 -2 -7.5t-2 -4.5v1l-22 -2h17q0 -7 -2 -15l-3 -18l-23 -2h17v-22h-11v-4zM363 817h13l-6 12zM489 817l2 -2zM511 830l1 1z" />
    <glyph glyph-name="Atilde" unicode="&#xc3;" horiz-adv-x="777" 
d="M60 140l17 8h-10v14h11q0 6 2 14t2 12l18 8h-10v11h10q0 7 2 15.5t2 11.5l17 8h-10q0 6 2 14t2 12l17 8h-9q0 6 2 14t2 12l16 8h-10v24h11q0 1 1 2l2 6h-1l2 8l18 9h-10v22h10q0 9 2 19.5t2 18.5l17 8h-10l4 6h-3l3 12q1 0 1 -4l16 8h-9l3 5h-2q0 3 2 7q1 2 1 3l17 8h-9
v36h9v21h10q0 7 2.5 15.5t2.5 11.5l16 8h-9v46h11q0 6 2 14t2 12l17 9h-10v35h11l3 6h-2q0 1 0.5 3.5t0.5 5.5q0 4 1 7q1 0 1 -7l18 8h-10v46h10v45h24l16 2h-152v13h-12v11h-11v124h11v12h32v12h177v-12h88v12h152v-12h13v-12h9v-112h-9v-23h-45v-15h-166h27v-22h10v-35h12
v-23h11v-34h11v-35h11v-35h11v-34h11v-35h11v-33h11v-36h11v-23h10v-22h12v-23h11v-45h11v-25h11v-24h10v-45h12v-23h10v-35h12v-22h10v-23h12v-23h23v-12h32v-11h21v-103h-10v-11h-297v11h-34l5 82l16 8h-9v13h44v11h33v25h-10v35h-12v21h-11v12h-12v12h-153v11h-11v-11
h-26q0 -2 -0.5 -5t-0.5 -5l-23 -2h17v-45h-10v-36h10v-12h66v-11h11l-6 -82l-10 -8h5v-13h-121v-11h-176v11h-17v94l17 9h-9v11h22v12h24v1zM298 367h11v-8h103l11 8l-4 4h-12v45h-10v35h-13v34h-9v24h-11v11h-11v-23h-11q0 -2 -1 -9.5t-2 -15.5q-1 -10 -2 -21v2l-23 -2h17
q0 -1 -1 -4l-2 -6h1q-1 -3 -2 -7.5t-2 -4.5v1l-22 -2h17q0 -7 -2 -15l-3 -18l-23 -2h17v-22h-11v-4z" />
    <glyph glyph-name="Adieresis" unicode="&#xc4;" horiz-adv-x="777" 
d="M60 140l17 8h-10v14h11q0 6 2 14t2 12l18 8h-10v11h10q0 7 2 15.5t2 11.5l17 8h-10q0 6 2 14t2 12l17 8h-9q0 6 2 14t2 12l16 8h-10v24h11q0 1 1 2l2 6h-1l2 8l18 9h-10v22h10q0 9 2 19.5t2 18.5l17 8h-10l4 6h-3l3 12q1 0 1 -4l16 8h-9l3 5h-2q0 3 2 7q1 2 1 3l17 8h-9
v36h9v21h10q0 7 2.5 15.5t2.5 11.5l16 8h-9v46h11q0 6 2 14t2 12l17 9h-10v35h11l3 6h-2q0 1 0.5 3.5t0.5 5.5q0 4 1 7q1 0 1 -7l18 8h-10v46h10v38h-77v12h-34v24h-10v10h-12v125h12v11h10v12h34v11h77v-11h32v-12h12v-11h9v-125h-9v-16h88v-11h6v17h-9v33h-13v91h13v22h21
v12h22v11h76v-11h33v-12h12v-11h10v-135h-10v-13h-15l-6 -5h3v1q1 0 1 -5l-23 -2h16v-12h-109v12h-17v-5h11v-22h10v-35h12v-23h11v-34h11v-35h11v-35h11v-34h11v-35h11v-33h11v-36h11v-23h10v-22h12v-23h11v-45h11v-25h11v-24h10v-45h12v-23h10v-35h12v-22h10v-23h12v-23
h23v-12h32v-11h21v-103h-10v-11h-297v11h-34l5 82l16 8h-9v13h44v11h33v25h-10v35h-12v21h-11v12h-12v12h-153v11h-11v-11h-26q0 -2 -0.5 -5t-0.5 -5l-23 -2h17v-45h-10v-36h10v-12h66v-11h11l-6 -82l-10 -8h5v-13h-121v-11h-176v11h-17v94l17 9h-9v11h22v12h24v1zM298 367
h11v-8h103l11 8l-4 4h-12v45h-10v35h-13v34h-9v24h-11v11h-11v-23h-11q0 -2 -1 -9.5t-2 -15.5q-1 -10 -2 -21v2l-23 -2h17q0 -1 -1 -4l-2 -6h1q-1 -3 -2 -7.5t-2 -4.5v1l-22 -2h17q0 -7 -2 -15l-3 -18l-23 -2h17v-22h-11v-4zM312 798l2 1h-27l11 -5h12zM320 806v4l-1 -9
l11 5h-10z" />
    <glyph glyph-name="Aring" unicode="&#xc5;" horiz-adv-x="777" 
d="M60 140l17 8h-10v14h11q0 6 2 14t2 12l18 8h-10v11h10q0 7 2 15.5t2 11.5l17 8h-10q0 6 2 14t2 12l17 8h-9q0 6 2 14t2 12l16 8h-10v24h11q0 1 1 2l2 6h-1l2 8l18 9h-10v22h10q0 9 2 19.5t2 18.5l17 8h-10l4 6h-3l3 12q1 0 1 -4l16 8h-9l3 5h-2q0 3 2 7q1 2 1 3l17 8h-9
v36h9v21h10q0 7 2.5 15.5t2.5 11.5l16 8h-9v46h11q0 6 2 14t2 12l17 9h-10v35h11l3 6h-2q0 1 0.5 3.5t0.5 5.5q0 4 1 7q1 0 1 -7l18 8h-10v46h10v45h22q0 4 2 6q-4 1 -8 2.5t-6 4.5h3q-8 1 -13 3.5t-6 7.5h7l-11 7l-25 -31v89q0 6 -0.5 12t-0.5 11v44q0 14 2.5 19t12.5 11
h-8q0 3 12 16h-4q2 5 17 14h-4l3 3l-24 26h221l-20 -21h4q0 -1 1 -1.5t1 -1.5h-5q3 -6 4 -6l11 -11l8 -16l-2 -1h-1q0 -1 2 -6t4 -7h12v-70q0 -9 -4 -15.5t-7 -11.5h3q0 -5 -2 -9t-10 -12h4q-1 -1 -3 -4q-4 -6 -13 -15l2 4l-9 -11h1v-1q1 0 1 1h1q-1 -2 -5.5 -5t-16.5 -5h8
l22 -23h-17q-4 0 -6.5 -0.5t-5.5 -0.5v-18h10v-35h12v-23h11v-34h11v-35h11v-35h11v-34h11v-35h11v-33h11v-36h11v-23h10v-22h12v-23h11v-45h11v-25h11v-24h10v-45h12v-23h10v-35h12v-22h10v-23h12v-23h23v-12h32v-11h21v-103h-10v-11h-297v11h-34l5 82l16 8h-9v13h44v11h33
v25h-10v35h-12v21h-11v12h-12v12h-153v11h-11v-11h-26q0 -2 -0.5 -5t-0.5 -5l-23 -2h17v-45h-10v-36h10v-12h66v-11h11l-6 -82l-10 -8h5v-13h-121v-11h-176v11h-17v94l17 9h-9v11h22v12h24v1zM298 367h11v-8h103l11 8l-4 4h-12v45h-10v35h-13v34h-9v24h-11v11h-11v-23h-11
q0 -2 -1 -9.5t-2 -15.5q-1 -10 -2 -21v2l-23 -2h17q0 -1 -1 -4l-2 -6h1q-1 -3 -2 -7.5t-2 -4.5v1l-22 -2h17q0 -7 -2 -15l-3 -18l-23 -2h17v-22h-11v-4zM390 917q-18 9 -19 18h9q-2 1 -5 1.5t-3 2.5h-2l-1 -1v1l-10 -9h5q0 -2 -1 -6t-2 -7l5 -9q2 0 8 -2l14 9h-8q0 1 0.5 1
t0.5 1h9zM461 824h-1l6 7q-2 -4 -5 -7zM275 1010h4l-2 -1q-1 0 -1 -1q-1 0 -1 2zM378 905q2 0 4 1h-6q1 -1 2 -1zM467 1009v-1q-1 0 -1 1h1z" />
    <glyph glyph-name="AE" unicode="&#xc6;" horiz-adv-x="965" 
d="M315 798l19 8h-10v11h5v5h562v-12h12v-36h5v-100l-22 -2h17q0 -14 -2.5 -31t-2.5 -24l-16 -7h9q0 -2 -1 -7l-2 -10l-2 -14v4l-16 -7h10v-12h-111v23h-15v71h5q-1 1 -9 1l-3 13h-25v11h-68v12q-32 0 -66.5 -1t-69.5 -1l-41 -2v-11h11v-35h12v-35h11v-34h10v-35h11v-12h8
v-16h11v-11h58v1l3 5h-2q0 1 0.5 3.5t0.5 5.5q0 4 1 7q1 0 1 -7l17 8h-9l3 6h-2q1 3 1.5 7.5t1.5 4.5v-4l18 9h-10q0 6 2 15.5t2 12.5l16 8h-9v13h90v-13h9v-23h12v-68h-12v-214h-100v20h5q-1 1 -2.5 1.5t-8.5 0.5l-3 15h-13v32h9q-4 2 -17 2l-3 13h-10v9h-13v-13h11v-25h10
v-24h11v-45h12v-23h11v-35h12v-22h10v-23h10v-23h-11q5 -2 10 -3t14 -1l3 -3v13h45v10h25v4l18 8h-9v26h10v47h14v35h9v11h101v-11h10v-23h13v-222h-17q0 -2 -0.5 -3.5t-0.5 -2.5l-10 -8h5v-11h-23v-13h-87v12q-19 -1 -42 -1.5t-42 -0.5h-264v11h-30v82l17 8h-10v13h44v11
h33v25h-11v35h-10v21h-12v12h-11v12h-153v11h-12v-11h-24q0 -2 -0.5 -5t-0.5 -5l-24 -2h17q0 -11 -2.5 -21.5t-2.5 -21.5l-23 -2h17v-36h11v-12h65v-11h11v-90h-11v-13h-119v-11h-178v11h-17v94l17 9h-9v11h21v12h21v9h12q0 -2 1 -2q0 1 1 1l2 1l4 4h-3l-1 -1v2l16 9h-9
q0 6 2 14t2 12l17 8h-10v11h9q0 7 2 15.5t2 11.5l18 8h-10v34h11q0 6 2 14t2 12l18 8h-9v24h10q0 1 1 2l2 6h-1l2 8l17 9h-9v22h10q0 9 2 19.5t2 18.5l16 8h-9v22h10l3 5h-2q0 3 2 7q1 2 1 3l18 8h-9v36h9v21h11q0 7 2 15.5t2 11.5l18 8h-10v46h10q0 6 2 14t2 12l17 9h-10
v35h11l3 6h-2q0 1 0.5 3.5t0.5 5.5q0 4 1 7q1 0 1 -7l17 8h-10q0 9 2 20.5t2 17.5l17 8h-9v45h22zM301 367h10v-8h104l11 8l-4 4h-11v45h-11v35h-12v34h-9v24h-12v34h-2v-3q-1 -5 -1.5 -9.5t-0.5 -8.5l-23 -2h17q0 -2 -1 -3q-2 -4 -2 -5h1q-1 -3 -2 -6.5t-1 -6.5l-23 -2h16
q0 -2 -1 -9.5t-2 -15.5q-1 -10 -2 -21v2l-23 -2h17v-23h-11v-35h-12l4 -22h-14v-4z" />
    <glyph glyph-name="Ccedilla" unicode="&#xc7;" horiz-adv-x="613" 
d="M399 140l17 8h-10v14h10v-1l3 6h-2q0 3 2 7q1 2 1 3l18 8h-10v11h11q0 9 2 20.5t2 17.5l17 8h-10v34h11v12h10v10h100v-10h17v-198l-16 -8h10v-12h-13h-1h-2l-3 -3h3l-16 -8h10v-13h-23v-10h-11v-10h-21v-13h-23v-11h-55q-1 -2 3.5 -4t4.5 -4l21 -77h-7l16 -62l-21 -12
h10v-17h-7v-5l-91 -21l-5 4q-4 0 -9.5 -0.5t-17.5 -0.5l-9 35h-11l-31 141h-9v11h-56v12h-34v11h-21v13h-22v10h-10v10h-12v13h-10v11h-12v12h-9v24h-12v12h-11v11h-12v34h-12v24h-11v33h-8v59h-9v208l18 8h-9v46h8q0 7 2 15.5t2 11.5l17 8h-10q0 7 3 15.5t2 10.5l16 8h-9
q0 1 1 2l2 6h-1q0 1 0.5 2.5t0.5 2.5t1 2l17 9h-9v23h15v3l17 9h-9v21h10l1 -1v1q2 2 2 5l17 8h-9v11h14v4l17 8h-9v11h10v12h11v12h26v3l16 8h-10v10h23v12h33v12h187v-12h55v-12h99v-10h11v-23h6v-76l-23 -2h17v-61h6v-77l-23 -2h17v-11h-11v-11h-110v11h-11v23h-11v59
h-11v22h-12v11h-10v12h-11v12h-22v12h-65v-12h-22v-12h-27q0 -2 -0.5 -5t-0.5 -5l-23 -2h17v-11h-15q-2 -4 -2 -10l-23 -2h17v-24h-10v-11h-12v-23h-10v-34h-9v-46h-13v-176h13v-43h9v-36h10v-12h12v-22h10v-12h11v-11h12v-14h23v-9h20v-12h23v-11h33v11h22v12h26v1z" />
    <glyph glyph-name="Egrave" unicode="&#xc8;" horiz-adv-x="649" 
d="M420 902h-1l17 -11l-6 -10h-3q2 -2 4.5 -3.5t5.5 -1.5l-46 -82h202v-12h11v-33h10v-102h-10q0 -2 -0.5 -12t-1.5 -21t-2 -20t-2 -9v11l-10 -8h5v-34h-10v-11h-111v22h-12v59h-10v23h-23v12h-65v12h-103q0 -2 -0.5 -5t-0.5 -5l-23 -2h17v-164h12v-11h53q0 1 1 3.5t2 4.5
h-1l2 8l18 8h-9v21h9q0 7 2 15.5t2 11.5l18 8h-9v12h88v-12h9v-23h12l-5 -65l-23 -2h16v-208h-97v13h-13v22h-9v23h-13v25h-9v10h-33v12h-11v-22h-15q-1 -1 -1 -4q0 -2 -1 -3l-16 -7h9v-173h12v-23h12v-12h132v12h43v9h25l4 4h-3l-1 -1v2l18 9h-10v23h11q0 9 2 21t2 17l16 8
h-10q0 5 2.5 13t2.5 13l16 8h-9v11h99v-11h10v-23h13v-216h-13v-13h-10v-11h-21v-12h-90v12h-462v11h-8v13h-13l5 69l18 8h-10v13h20v11h38v3l18 9h-10v9h10v511h-22v12h-54v10h-13v12h-10v89h10v12h315q-43 26 -90 56.5t-91 56.5l4 6h7l-28 17l11 16q-2 2 -3.5 3t-2.5 3
l55 92l6 -6l4 9l100 -60l-4 -6h-7q3 -2 8.5 -5t8.5 -5v8l123 -71z" />
    <glyph glyph-name="Eacute" unicode="&#xc9;" horiz-adv-x="649" 
d="M10 794h192l-46 87l6 1l-6 10l17 10h-5l-3 7l122 73v-11l17 11h-3q-5 5 -6 5v-1l-2 2l78 40l4 -1q2 1 4.5 1t7.5 1l18 18l51 -95l-7 -6h5q9 -20 9 -19l-27 -14h6l3 -6l-180 -113h328v-12h11v-33h10v-102h-10q0 -2 -0.5 -12t-1.5 -21t-2 -20t-2 -9v11l-10 -8h5v-34h-10
v-11h-111v22h-12v59h-10v23h-23v12h-65v12h-103q0 -2 -0.5 -5t-0.5 -5l-23 -2h17v-164h12v-11h53q0 1 1 3.5t2 4.5h-1l2 8l18 8h-9v21h9q0 7 2 15.5t2 11.5l18 8h-9v12h88v-12h9v-23h12l-5 -65l-23 -2h16v-208h-97v13h-13v22h-9v23h-13v25h-9v10h-33v12h-11v-22h-15
q-1 -1 -1 -4q0 -2 -1 -3l-16 -7h9v-173h12v-23h12v-12h132v12h43v9h25l4 4h-3l-1 -1v2l18 9h-10v23h11q0 9 2 21t2 17l16 8h-10q0 5 2.5 13t2.5 13l16 8h-9v11h99v-11h10v-23h13v-216h-13v-13h-10v-11h-21v-12h-90v12h-462v11h-8v13h-13l5 69l18 8h-10v13h20v11h38v3l18 9
h-10v9h10v511h-22v12h-54v10h-13v12h-10v89h10v12zM207 794h13l-4 3zM447 908q0 -3 -1 -3q-1 1 -1 2z" />
    <glyph glyph-name="Ecircumflex" unicode="&#xca;" horiz-adv-x="649" 
d="M331 1021l10 2q4 0 7 1h-6l33 15v-26h-2q24 -41 45 -83t45 -83l-18 -2h15l7 -13l-26 -16h8l-37 -22h181v-12h11v-33h10v-102h-10q0 -2 -0.5 -12t-1.5 -21t-2 -20t-2 -9v11l-10 -8h5v-34h-10v-11h-111v22h-12v59h-10v23h-23v12h-65v12h-103q0 -2 -0.5 -5t-0.5 -5l-23 -2
h17v-164h12v-11h53q0 1 1 3.5t2 4.5h-1l2 8l18 8h-9v21h9q0 7 2 15.5t2 11.5l18 8h-9v12h88v-12h9v-23h12l-5 -65l-23 -2h16v-208h-97v13h-13v22h-9v23h-13v25h-9v10h-33v12h-11v-22h-15q-1 -1 -1 -4q0 -2 -1 -3l-16 -7h9v-173h12v-23h12v-12h132v12h43v9h25l4 4h-3l-1 -1v2
l18 9h-10v23h11q0 9 2 21t2 17l16 8h-10q0 5 2.5 13t2.5 13l16 8h-9v11h99v-11h10v-23h13v-216h-13v-13h-10v-11h-21v-12h-90v12h-462v11h-8v13h-13l5 69l18 8h-10v13h20v11h38v3l18 9h-10v9h10v511h-22v12h-54v10h-13v12h-10v89h10v12h234q-8 4 -19 11t-17 11l-2 1h7
l-24 16l6 12h10q-2 1 -5.5 1.5t-11.5 0.5l95 165h-2v27l8 -4v7zM307 794h41l-20 36z" />
    <glyph glyph-name="Edieresis" unicode="&#xcb;" horiz-adv-x="649" 
d="M366 953v22h21v12h24v10h75v-10h34v-12h10v-12h11v-136h-11v-12l-13 1q0 -1 -1.5 -3t-1.5 -7l-23 -2h17v-10h85v-12h11v-33h10v-102h-10q0 -2 -0.5 -12t-1.5 -21t-2 -20t-2 -9v11l-10 -8h5v-34h-10v-11h-111v22h-12v59h-10v23h-23v12h-65v12h-103q0 -2 -0.5 -5t-0.5 -5
l-23 -2h17v-164h12v-11h53q0 1 1 3.5t2 4.5h-1l2 8l18 8h-9v21h9q0 7 2 15.5t2 11.5l18 8h-9v12h88v-12h9v-23h12l-5 -65l-23 -2h16v-208h-97v13h-13v22h-9v23h-13v25h-9v10h-33v12h-11v-22h-15q-1 -1 -1 -4q0 -2 -1 -3l-16 -7h9v-173h12v-23h12v-12h132v12h43v9h25l4 4h-3
l-1 -1v2l18 9h-10v23h11q0 9 2 21t2 17l16 8h-10q0 5 2.5 13t2.5 13l16 8h-9v11h99v-11h10v-23h13v-216h-13v-13h-10v-11h-21v-12h-90v12h-462v11h-8v13h-13l5 69l18 8h-10v13h20v11h38v3l18 9h-10v9h10v511h-22v12h-54v10h-13v12h-10v89h10v12h152v10h-35v23h-10v11h-12
v125h12v12h10v12h35v10h75v-10h33v-12h12v-12h9v-125h-9v-23h-12v-11h-33v-10h162v10h-23v23h-10v33h-12v93h12z" />
    <glyph glyph-name="Igrave" unicode="&#xcc;" horiz-adv-x="567" 
d="M314 900h-1l19 -13l-4 -9h-6l8 -7l-44 -77h54v12h77v-12h75v-12h12v-10h10v-68h-10v-33h-56v-12h-99v-12h-9v-499h9v-9h23v-12h154v-11h12v-13h11v-90h-23v-11h-472v11h-11v13h-10v90h10v11h22v12h110v23h11v485h-11v12h-88v12h-78v10h-6v83l16 8h-10v22h208
q-42 27 -89.5 55.5t-89.5 55.5l4 6h7l-28 17l10 16h4l-8 7l51 86l7 -5l6 13l100 -60l-3 -6h-5l14 -11v9l123 -71z" />
    <glyph glyph-name="Iacute" unicode="&#xcd;" horiz-adv-x="567" 
d="M183 881l3 1q-1 2 -2 3.5t-2 3.5l17 13h-5l-2 7l110 66l5 -8l24 15h-3q-5 5 -7 5v-1l-2 1l110 66l-3 -27l15 6l43 -80l-6 -6h4q2 -5 5 -9t5 -9l-28 -17h7q0 -1 0.5 -1.5t0.5 -1.5v-1l-191 -113h59v12h77v-12h75v-12h12v-10h10v-68h-10v-33h-56v-12h-99v-12h-9v-499h9v-9
h23v-12h154v-11h12v-13h11v-90h-23v-11h-472v11h-11v13h-10v90h10v11h22v12h110v23h11v485h-11v12h-88v12h-78v10h-6v83l16 8h-10v22h230l-2 4h-10zM475 908l-1 -1l-1 -1q-1 0 -1 1z" />
    <glyph glyph-name="Icircumflex" unicode="&#xce;" horiz-adv-x="567" 
d="M261 1028q9 3 15 3l32 11v-22h-2q23 -40 44.5 -82t44.5 -82l-7 -7l12 -11l-25 -15h7l-25 -17h60v-12h75v-12h12v-10h10v-68h-10v-33h-56v-12h-99v-12h-9v-499h9v-9h23v-12h154v-11h12v-13h11v-90h-23v-11h-472v11h-11v13h-10v90h10v11h22v12h110v23h11v485h-11v12h-88v12
h-78v10h-6v83l16 8h-10v22h173l-43 30h7l-25 15l7 10h7l-13 8l93 162h-2v27l9 -4v7zM214 794h69l-23 42l-23 -41h-6zM338 794h2h-2z" />
    <glyph glyph-name="Idieresis" unicode="&#xcf;" horiz-adv-x="567" 
d="M310 952v22h21v12h22v11h75v-11h34v-12h12v-13h10v-135h-15q0 -1 -0.5 -4.5t-0.5 -5.5l-23 -2h17v-11h-11v-9h41v-12h12v-10h10v-68h-10v-33h-56v-12h-99v-12h-9v-499h9v-9h23v-12h154v-11h12v-13h11v-90h-23v-11h-472v11h-11v13h-10v90h10v11h22v12h110v23h11v485h-11
v12h-88v12h-78v10h-6v83l16 8h-10v22h95v9h-34v23h-10v11h-12v124h12v13h10v12h34v11h77v-11h31v-12h13v-13h9v-124h-9v-23h-13v-11h-31v-9h159v9h-22v23h-8v33h-13v93h13z" />
    <glyph glyph-name="Eth" unicode="&#xd0;" horiz-adv-x="685" 
d="M14 447h7v7h26v11h54v112h26h-26v70h-13v12h-32v12h-43v10h-9v83l18 8h-9v10h10v12h143v-12h56v12h87v-12h109v-10h33v-11h23v-12h22v-12h22v-11h11v-12h9v-11h12v-13h11v-10h11v-11h11v-12h11v-23h11v-14h11v-21h10v-35h11v-46h12v-57h6v-152l-16 -8h10q0 -5 -0.5 -16.5
t-1.5 -23t-2 -20.5l-1 -9v2l-7 -2v1l-1 -4t-2 -9.5t-1.5 -11t-0.5 -7.5l-23 -2h17v-36h-10v-24h-11v-21h-15q0 -1 -0.5 -4.5t-0.5 -5.5l-23 -2h17v-12h-13q-2 0 -7 -5h3q0 1 1 1v-1l-16 -7h10v-23h-28q0 -2 -0.5 -5t-0.5 -6l-22 -2h15q-1 -1 -1 -8l-23 -2h17v-10h-22v-13
h-13v-11h-65v-12h-384v12h-11v11h-10v90h21v13h33v11h25v3l18 9h-9v178h-70v11h3h-5q-1 0 -2 1l-4 6h-9v112zM484 461h-12v36h-9v34h-12v12h-11v22h-11v12h-11v25h-22v10h-11v12h-11v11h-11v12h-43v12h-45v-12h-15q0 -1 -0.5 -4.5t-0.5 -5.5l-23 -2h17v-181h6v11h135v-13h-6
q0 -1 1 -1h4l5 -4h14v-102h-9v-18h-34v-10h-116v-178h12v-12h65v12h33v9h22v14h23v23h11v-1q1 0 1.5 0.5l4.5 4.5h-2l16 7h-10v11h11q0 -2 0.5 1.5t1 8t1.5 8.5l1 4v-6l17 8h-10q1 0 4 8h-1l2 8l16 8h-9v33h9q0 5 2.5 13t2.5 13l16 8h-9v139zM525 46l1 1z" />
    <glyph glyph-name="Ntilde" unicode="&#xd1;" horiz-adv-x="695" 
d="M1 794h11v12h105v6h-12v11h-11v124h11v12h33v12h175v-12h89v12h151v-12h13v-12h10v-112h-10v-23h-44v-12h-378v-6h99v-12h11v-21h10v-24h12v-23h11v-11h11v-34h10v-24h10v-11h12v-24h10v-23h12v-23h11v-23h12v-12h9v-11h13v-23h9v-23h12v-23h11v-11h12v-23h9v-11h12v-23
h10v-22h2v172h-12v93h-12v23h-11v12h-42v12h-22v10h-19v93l17 8h-10v12h296v-12h7v-99l-23 -2h16v-10h-22v-12h-22v-150h-9v-175h9v-321h-9v-11h-22v-12h-100v12h-10v11h-12v13h-12v20h-11v24h-11v24h-11v24h-10v21h-10v24h-13v36h-9v9h-12v35h-11v12h-11v24h-10v10h-12v23
h-10v23h-13v24h-10v12h-12v22h-9v23h-12v24h-10v11h-11v23h-12v23h-11v-209h11v-103h11v-23h12v-14h33v-9h42v-12h12v-11h10v-103h-64v-11h-241v11h-23v23h-11v67h14v2q0 1 1 2l17 9h-10v11h14v1l1 2l17 9h-10v9h10v14h23v497h-11v12h-55v10h-11v113zM218 554h-3h2h1z" />
    <glyph glyph-name="Ograve" unicode="&#xd2;" horiz-adv-x="659" 
d="M364 908h-5l18 -12l-4 -9h-6l7 -6l-24 -50h2v-14h66v-11h43v-12h21v-12h11v-10h12v-11h21v-12h12v-23h10v-12h13v-11h9v-13h12v-21h11v-35h11v-24h9v-46h13v-56h10v-196h-10v-57h-13v-56h-9l-1 1q-1 -1 -1 -3q-1 -2 -1 -5h1q-2 -10 -2 -15l-7 -2h-17h15q-2 -6 -2 -10h1
q-2 -8 -2 -11l-6 -2h-17h15q-1 -2 -2 -5t-1 -5h2q-3 -6 -3 -11l-23 -2h17v-23h-9v-12h-28l-5 -5h3q0 1 1 1v-1l-15 -7h9v-12h-9v-11h-16q0 -1 -0.5 -4.5t-0.5 -6.5l-23 -2h16v-10h-22v-10h-22v-13h-66v-11h-165v11h-43v13h-22v10h-23v10h-22v13h-9v11h-12v24h-10v12h-11v12
h-11v21h-12v13h-12v35h-8v33h-13v46h-10v252h10q0 17 2.5 35t2.5 38l18 8h-10v21h8v37h16v3l17 9h-9q0 7 2 15t2 11l17 8h-10v11h11v12h10v23h25v4l17 8h-9v11h23v10h10v12h22v12h43v11h21l-154 96l4 6h5q-4 2 -12.5 7t-7.5 5h2q-3 2 -4.5 2t-3.5 2l12 18h2l-7 6l47 84l5 -4
v21l109 -66l-3 -6h-5l17 -11v8l122 -72zM464 383l18 9h-10v48h-12v69h-10v45h-11v11h-12v23h-11v24h-10v23h-10v12h-23v12h-21v12h-22v10h-44v-10h-38q0 -2 -0.5 -5t-0.5 -5l-23 -2h16v-12h-9v-12h-13v-23h-9q0 1 -1 1t-2 -4.5t-1 -6.5h1q-1 -2 -1 -5q0 -1 -1 -2l-16 -7h9
q0 -1 -1 -3q-2 -4 -2 -6h1q-1 -2 -1.5 -7.5t-1.5 -5.5v6l-16 -7h10q0 -2 -0.5 -7t-1.5 -7l-3 -18l-24 -2h17v-46h-9v-151h9v-46h12v-33h11v-24h12v-24h9v-11h13v-11h9v-12h12v-11h23v-14h21v-9h43v9h22v14h27v2l17 9h-9v12h10v22h14v4l17 8h-10l3 5h-2q0 3 2 7q1 2 2 3l16 8
h-8q0 1 2 7h-1l2 8l17 8h-10v45h10zM123 1025q0 -2 1 -2q0 1 1 1l2 1h-4zM593 175l-2 1h2v-1zM582 152l-2 1h2v-1z" />
    <glyph glyph-name="Oacute" unicode="&#xd3;" horiz-adv-x="659" 
d="M253 902l-4 11l120 71v-8l18 12h-5l-3 5l108 65l-3 -26l14 7l43 -82l-7 -7h4l8 -16l-32 -17h13q0 -2 0.5 -2t0.5 -1t1 -1l-160 -96h49v-11h43v-12h21v-12h11v-10h12v-11h21v-12h12v-23h10v-12h13v-11h9v-13h12v-21h11v-35h11v-24h9v-46h13v-56h10v-196h-10v-57h-13v-56
h-9l-1 1q-1 -1 -1 -3q-1 -2 -1 -5h1q-2 -10 -2 -15l-7 -2h-17h15q-2 -6 -2 -10h1q-2 -8 -2 -11l-6 -2h-17h15q-1 -2 -2 -5t-1 -5h2q-3 -6 -3 -11l-23 -2h17v-23h-9v-12h-28l-5 -5h3q0 1 1 1v-1l-15 -7h9v-12h-9v-11h-16q0 -1 -0.5 -4.5t-0.5 -6.5l-23 -2h16v-10h-22v-10h-22
v-13h-66v-11h-165v11h-43v13h-22v10h-23v10h-22v13h-9v11h-12v24h-10v12h-11v12h-11v21h-12v13h-12v35h-8v33h-13v46h-10v252h10q0 17 2.5 35t2.5 38l18 8h-10v21h8v37h16v3l17 9h-9q0 7 2 15t2 11l17 8h-10v11h11v12h10v23h25v4l17 8h-9v11h23v10h10v12h22v12h43v11h33v14
h16l-27 50l16 14h-4zM464 383l18 9h-10v48h-12v69h-10v45h-11v11h-12v23h-11v24h-10v23h-10v12h-23v12h-21v12h-22v10h-44v-10h-38q0 -2 -0.5 -5t-0.5 -5l-23 -2h16v-12h-9v-12h-13v-23h-9q0 1 -1 1t-2 -4.5t-1 -6.5h1q-1 -2 -1 -5q0 -1 -1 -2l-16 -7h9q0 -1 -1 -3
q-2 -4 -2 -6h1q-1 -2 -1.5 -7.5t-1.5 -5.5v6l-16 -7h10q0 -2 -0.5 -7t-1.5 -7l-3 -18l-24 -2h17v-46h-9v-151h9v-46h12v-33h11v-24h12v-24h9v-11h13v-11h9v-12h12v-11h23v-14h21v-9h43v9h22v14h27v2l17 9h-9v12h10v22h14v4l17 8h-10l3 5h-2q0 3 2 7q1 2 2 3l16 8h-8q0 1 2 7
h-1l2 8l17 8h-10v45h10zM582 152l-2 1h2v-1zM593 175l-2 1h2v-1z" />
    <glyph glyph-name="Ocircumflex" unicode="&#xd4;" horiz-adv-x="659" 
d="M311 1025q8 2 13 2l31 12v-23h-2q23 -40 44 -82t45 -82l-5 -5h4l6 -12l-25 -15h7l-16 -14h48v-12h21v-12h11v-10h12v-11h21v-12h12v-23h10v-12h13v-11h9v-13h12v-21h11v-35h11v-24h9v-46h13v-56h10v-196h-10v-57h-13v-56h-9v1q-1 0 -1.5 -3t-1.5 -5h1q-2 -10 -2 -15
l-7 -2h-17h15q-2 -6 -2 -10h1q-2 -8 -2 -11l-6 -2h-17h15q-1 -2 -2 -5t-1 -5h2q-3 -6 -3 -11l-23 -2h17v-23h-9v-12h-28l-5 -5h3q0 1 1 1v-1l-15 -7h9v-12h-9v-11h-16q0 -1 -0.5 -4.5t-0.5 -6.5l-23 -2h16v-10h-22v-10h-22v-13h-66v-11h-165v11h-43v13h-22v10h-23v10h-22v13
h-9v11h-12v24h-10v12h-11v12h-11v21h-12v13h-12v35h-8v33h-13v46h-10v252h10q0 17 2.5 35t2.5 38l18 8h-10v21h8v37h16v3l17 9h-9q0 7 2 15t2 11l17 8h-10v11h11v12h10v23h25v4l17 8h-9v11h23v10h10v12h22v12h35l-23 12l-2 3h7l-23 15l8 11h7l-15 6l93 162h-2v28l8 -4v8z
M464 383l18 9h-10v48h-12v69h-10v45h-11v11h-12v23h-11v24h-10v23h-10v12h-23v12h-21v12h-22v10h-44v-10h-38q0 -2 -0.5 -5t-0.5 -5l-23 -2h16v-12h-9v-12h-13v-23h-9q0 1 -1 1t-2 -4.5t-1 -6.5h1q-1 -2 -1 -5q0 -1 -1 -2l-16 -7h9q0 -1 -1 -3q-2 -4 -2 -6h1
q-1 -2 -1.5 -7.5t-1.5 -5.5v6l-16 -7h10q0 -2 -0.5 -7t-1.5 -7l-3 -18l-24 -2h17v-46h-9v-151h9v-46h12v-33h11v-24h12v-24h9v-11h13v-11h9v-12h12v-11h23v-14h21v-9h43v9h22v14h27v2l17 9h-9v12h10v22h14v4l17 8h-10l3 5h-2q0 3 2 7q1 2 2 3l16 8h-8q0 1 2 7h-1l2 8l17 8
h-10v45h10zM306 831h2l-1 2zM593 175l-2 1h2v-1zM582 152l-2 1h2v-1z" />
    <glyph glyph-name="Otilde" unicode="&#xd5;" horiz-adv-x="659" 
d="M67 959h33v12h176v-12h88v12h153v-12h10v-12h6v-110l-23 -2h17v-23h-43v-12h-23v-6h21v-12h11v-10h12v-11h21v-12h12v-23h10v-12h13v-11h9v-13h12v-21h11v-35h11v-24h9v-46h13v-56h10v-196h-10v-57h-13v-56h-9l-1 1q-1 -1 -1 -3q-1 -2 -1 -5h1q-2 -10 -2 -15l-7 -2h-17
h15q-2 -6 -2 -10h1q-2 -8 -2 -11l-6 -2h-17h15q-1 -2 -2 -5t-1 -5h2q-3 -6 -3 -11l-23 -2h17v-23h-9v-12h-28l-5 -5h3q0 1 1 1v-1l-15 -7h9v-12h-9v-11h-16q0 -1 -0.5 -4.5t-0.5 -6.5l-23 -2h16v-10h-22v-10h-22v-13h-66v-11h-165v11h-43v13h-22v10h-23v10h-22v13h-9v11h-12
v24h-10v12h-11v12h-11v21h-12v13h-12v35h-8v33h-13v46h-10v252h10q0 17 2.5 35t2.5 38l18 8h-10v21h8v37h16v3l17 9h-9q0 7 2 15t2 11l17 8h-10v11h11v12h10v23h25v4l17 8h-9v11h23v10h10v12h22v6h-96v12h-12v11h-10v124h10v12zM464 383l18 9h-10v48h-12v69h-10v45h-11v11
h-12v23h-11v24h-10v23h-10v12h-23v12h-21v12h-22v10h-44v-10h-38q0 -2 -0.5 -5t-0.5 -5l-23 -2h16v-12h-9v-12h-13v-23h-9q0 1 -1 1t-2 -4.5t-1 -6.5h1q-1 -2 -1 -5q0 -1 -1 -2l-16 -7h9q0 -1 -1 -3q-2 -4 -2 -6h1q-1 -2 -1.5 -7.5t-1.5 -5.5v6l-16 -7h10q0 -2 -0.5 -7
t-1.5 -7l-3 -18l-24 -2h17v-46h-9v-151h9v-46h12v-33h11v-24h12v-24h9v-11h13v-11h9v-12h12v-11h23v-14h21v-9h43v9h22v14h27v2l17 9h-9v12h10v22h14v4l17 8h-10l3 5h-2q0 3 2 7q1 2 2 3l16 8h-8q0 1 2 7h-1l2 8l17 8h-10v45h10zM582 152l-2 1h2v-1zM593 175l-2 1h2v-1z" />
    <glyph glyph-name="Odieresis" unicode="&#xd6;" horiz-adv-x="659" 
d="M359 949v22h22v12h23v11h75v-11h33v-12h12v-11h9v-136h-9v-12h-12v-11h-10v-13h-20v-6h11v-10h12v-11h21v-12h12v-23h10v-12h13v-11h9v-13h12v-21h11v-35h11v-24h9v-46h13v-56h10v-196h-10v-57h-13v-56h-9l-1 1q-1 -1 -1 -3q-1 -2 -1 -5h1q-2 -10 -2 -15l-7 -2h-17h15
q-2 -6 -2 -10h1q-2 -8 -2 -11l-6 -2h-17h15q-1 -2 -2 -5t-1 -5h2q-3 -6 -3 -11l-23 -2h17v-23h-9v-12h-28l-5 -5h3q0 1 1 1v-1l-15 -7h9v-12h-9v-11h-16q0 -1 -0.5 -4.5t-0.5 -6.5l-23 -2h16v-10h-22v-10h-22v-13h-66v-11h-165v11h-43v13h-22v10h-23v10h-22v13h-9v11h-12v24
h-10v12h-11v12h-11v21h-12v13h-12v35h-8v33h-13v46h-10v252h10q0 17 2.5 35t2.5 38l18 8h-10v21h8v37h16v3l17 9h-9q0 7 2 15t2 11l17 8h-10v11h11v12h10v23h25v4l17 8h-9v11h23v10h10q0 3 0.5 6t0.5 6v7h-34v23h-10v11h-11v125h11v11h10v12h34v11h77v-11h33v-12h11v-11h11
v-125h-12l-1 -4h79v-14h18v7h-11v34h-11v91h11zM464 383l18 9h-10v48h-12v69h-10v45h-11v11h-12v23h-11v24h-10v23h-10v12h-23v12h-21v12h-22v10h-44v-10h-38q0 -2 -0.5 -5t-0.5 -5l-23 -2h16v-12h-9v-12h-13v-23h-9q0 1 -1 1t-2 -4.5t-1 -6.5h1q-1 -2 -1 -5q0 -1 -1 -2
l-16 -7h9q0 -1 -1 -3q-2 -4 -2 -6h1q-1 -2 -1.5 -7.5t-1.5 -5.5v6l-16 -7h10q0 -2 -0.5 -7t-1.5 -7l-3 -18l-24 -2h17v-46h-9v-151h9v-46h12v-33h11v-24h12v-24h9v-11h13v-11h9v-12h12v-11h23v-14h21v-9h43v9h22v14h27v2l17 9h-9v12h10v22h14v4l17 8h-10l3 5h-2q0 3 2 7
q1 2 2 3l16 8h-8q0 1 2 7h-1l2 8l17 8h-10v45h10zM582 152l-2 1h2v-1zM593 175l-2 1h2v-1z" />
    <glyph glyph-name="multiply" unicode="&#xd7;" horiz-adv-x="450" 
d="M419 304h-3l33 -24l-7 -7l5 -5l-64 -89h-5q-1 -1 -1 -2t-1 -1h-16l-14 -20l-129 93l-22 -15h1l-131 -95v15l-15 -11v27h2l-67 101l3 2q-1 2 -2 2t-2 2l35 27h-3l-6 9l61 45l-55 38l6 8h4l-39 27l11 17h3l-9 8l97 151v-50l119 -88l-6 -7h-5q8 -5 10.5 -7t9.5 -7l19 14h-4
l-5 7l145 108v-35l12 7l59 -93l-9 -8h2l12 -17l-40 -27h3q2 -2 3.5 -3t1.5 -2l2 -4l-54 -37h1q19 -13 38 -29l22 -18z" />
    <glyph glyph-name="Oslash" unicode="&#xd8;" horiz-adv-x="659" 
d="M403 868l18 9h-9v11h111v-11h8v-12h13v-102h-13v-14h7v-23h10v-12h13v-11h9v-13h12v-21h11v-35h11v-24h9v-46h13v-56h10v-196h-10v-57h-13v-56h-9v1q-1 0 -1.5 -3t-1.5 -5h1q-2 -10 -2 -15l-7 -2h-17h15q-2 -6 -2 -10h1q-2 -8 -2 -11l-6 -2h-17h15q-1 -2 -2 -5t-1 -5h2
q-3 -6 -3 -11l-23 -2h17v-23h-9v-12h-28l-5 -5h3q0 1 1 1v-1l-15 -7h9v-12h-9v-11h-16q0 -1 -0.5 -4.5t-0.5 -6.5l-23 -2h16v-10h-22v-10h-22v-13h-66v-11h-114v-11h-11q0 -9 -2 -19l-3 -24l-23 -2h17v-47h-13q-2 0 -7 -5h3v1q1 0 1 -5l-23 -2h17v-11h-33v-12h-79v12h-8v11
h-12l5 82l16 8h-9v46h8v22h-5v13h-9v11h-12v24h-10v12h-11v12h-11v21h-12v13h-12v35h-8v33h-13v46h-10v252h10q0 17 2.5 35t2.5 38l18 8h-10v21h8v37h16v3l17 9h-9q0 7 2 15t2 11l17 8h-10v11h11v12h10v23h25v4l17 8h-9v11h23v10h10v12h22v12h43v11h33v14h101v-14
q9 0 18.5 0.5t19.5 0.5v36h10zM330 681h-44v-10h-38q0 -2 -0.5 -5t-0.5 -5l-23 -2h16v-12h-9v-12h-13v-23h-9v2q-1 0 -2 -5t-2 -7h1q-1 -2 -1 -5q0 -1 -1 -2l-16 -7h9q0 -1 -1 -3q-2 -4 -2 -6h1q-1 -2 -1.5 -7.5t-1.5 -5.5v6l-16 -7h10q0 -2 -0.5 -7t-1.5 -7l-3 -18l-24 -2
h17v-46h-9v-151h9v-46h12v-33h6v22h11q0 6 2 15t2 12l18 8h-10v25h10v23h10q0 5 2 13t2 11l18 9h-9v47h9q0 6 1.5 14t1.5 11l17 8h-8q0 1 2 7h-1l2 8l17 8h-10q0 7 2 15.5t2 11.5l17 8h-9q0 6 2 14t2 12l17 8h-10q0 6 2.5 14t2.5 12l16 8h-9v36h9l4 6h-3q1 3 1.5 7.5
t1.5 4.5t1 -4l17 9h-9v13h-6v10zM464 383l18 9h-10v48h-12v69h-10v42l-10 -8h5q-1 -1 -2 -3q-2 -4 -2 -6h1q-1 -2 -1 -5q0 -1 -1 -2v1l-16 -7h10v-45h-10v-35h-12v-34h-11q0 -1 -1 -4l-2 -6h1l-3 -12v1l-23 -2h17v-35h-11q0 -2 -0.5 -7t-1.5 -7l-3 -18l-22 -2h15
q0 -3 -2 -11q-1 -4 -2 -7l-15 -7h9q0 -2 -1 -6.5t-2 -9.5l-2 -14v4l-16 -7h9v-36h-10v-22h-13v-45h-9v-15h26v9h22v14h27v2l17 9h-9v12h10v22h14v4l17 8h-10l3 5h-2q0 3 2 7q1 2 2 3l16 8h-8q0 1 2 7h-1l2 8l17 8h-10v45h10zM197 243v-2l5 2h-5zM582 152l-2 1h2v-1zM593 175
l-2 1h2v-1zM456 569q-1 0 -1 -1h1v1z" />
    <glyph glyph-name="Ugrave" unicode="&#xd9;" 
d="M417 902h-9l19 -11l-5 -9h-3q2 -2 4 -3.5t5 -1.5l-46 -83h-2v-26l-17 11l-4 -11l-31 19v-61h-11l-3 -12q-2 -8 -2 -11l-22 -2h17v-11l-50 1q-2 -4 -2 -10l-23 -2h17q0 -2 -1 -8.5t-2 -12.5l-2 -16v1l-24 -2h17v-194h12v-263h11v-12h11v-11h12v-15h11v-11h23v-12h22v-11
h26v11h47v12h23l2 2l17 9h-10v15h13q0 -2 1 -2q0 1 1 1l2 1h-1v2l18 9h-10v24h11v445h-11v38h-24v11h-32v11h-12v13h-13l5 71l17 8h-9v12h281v-12h11v-103h-22v-11h-34v-26h-10v-48h-13v-466h-10q0 -6 -2 -14l-4 -18l-23 -2h17q0 -2 -1 -5t-2 -8t-2 -11v1l-23 -2h17v-24h-13
v-13h-11v-11h-22v-12h-12v-11h-34v-12h-23v-14h-249v14h-21v12h-23v11h-24v12h-12v19h10q-2 1 -5.5 2t-12.5 1l-1 13h-14v24h-10v37h-12v539h-11v12h-11v11h-45v11h-23v104h23v11h179v-11h2v11h77l-147 92l5 6h6l-26 16l8 18h4l-5 6l45 67h5l14 27l99 -60l-3 -6h-9l18 -10v9
l123 -73zM283 805h17l-17 10v-10zM319 793l-2 1z" />
    <glyph glyph-name="Uacute" unicode="&#xda;" 
d="M307 881l3 1q-1 2 -2 3.5t-2 3.5l17 13h-5l-2 7l110 66l4 -8l25 15h-4q-5 5 -6 5v-1l-2 1l110 66l-3 -27l15 6l43 -80l-6 -6h4l9 -18l-26 -17h6q0 -1 0.5 -1.5t0.5 -1.5v-1l-179 -102h264v-12h11v-103h-22v-11h-34v-26h-10v-48h-13v-466h-10q0 -6 -2 -14l-4 -18l-23 -2
h17q0 -2 -1 -5t-2 -8t-2 -11v1l-23 -2h17v-24h-13v-13h-11v-11h-22v-12h-12v-11h-34v-12h-23v-14h-249v14h-21v12h-23v11h-24v12h-12v19h10q-2 1 -5.5 2t-12.5 1l-1 13h-14v24h-10v37h-12v539h-11v12h-11v11h-45v11h-23v104h23v11h179v-11h2v11h78v-11h34v-12h11v-67h-11
l-3 -12q-2 -8 -2 -11l-22 -2h17v-11l-50 1q-2 -4 -2 -10l-23 -2h17q0 -2 -1 -8.5t-2 -12.5l-2 -16v1l-24 -2h17v-194h12v-263h11v-12h11v-11h12v-15h11v-11h23v-12h22v-11h26v11h47v12h23l2 2l17 9h-10v15h13q0 -2 1 -2q0 1 1 1l2 1h-1v2l18 9h-10v24h11v445h-11v38h-24v11
h-32v11h-12v13h-13l5 71l17 8h-9v2l-12 -6h-8l-9 -3q-2 -1 -4 -1l-10 13h-6zM598 908l-1 -2q-1 0 -1 1z" />
    <glyph glyph-name="Ucircumflex" unicode="&#xdb;" 
d="M365 1023l13 3h-4l33 16v-27h-2q24 -40 45.5 -81.5t44.5 -82.5l-6 -5h3l8 -12l-26 -16h5l-18 -13h220v-12h11v-103h-22v-11h-34v-26h-10v-48h-13v-466h-10q0 -6 -2 -14l-4 -18l-23 -2h17q0 -2 -1 -5t-2 -8t-2 -11v1l-23 -2h17v-24h-13v-13h-11v-11h-22v-12h-12v-11h-34
v-12h-23v-14h-249v14h-21v12h-23v11h-24v12h-12v19h10q-2 1 -5.5 2t-12.5 1l-1 13h-14v24h-10v37h-12v539h-11v12h-11v11h-45v11h-23v104h23v11h179v-11h2v11h34q0 1 -0.5 2t-0.5 2h8l-24 15l8 11h6l-14 6l94 162h-2v28l7 -4v9zM400 714h-13v76h-3l-24 43l-23 -42h-5v-13h-4
v-52h-11l-3 -12q-2 -8 -2 -11l-22 -2h17v-11l-50 1q-2 -4 -2 -10l-23 -2h17q0 -2 -1 -8.5t-2 -12.5l-2 -16v1l-24 -2h17v-194h12v-263h11v-12h11v-11h12v-15h11v-11h23v-12h22v-11h26v11h47v12h23l2 2l17 9h-10v15h13q0 -2 1 -2q0 1 1 1l2 1h-1v2l18 9h-10v24h11v445h-11v38
h-24v11h-32v11h-12v13zM482 820v-2h-3z" />
    <glyph glyph-name="Udieresis" unicode="&#xdc;" 
d="M404 949v22h22v12h22v11h77v-11h33v-12h11v-11h10v-136h-10v-12h-16l-3 -7h131v-12h11v-103h-22v-11h-34v-26h-10v-48h-13v-466h-10q0 -6 -2 -14l-4 -18l-23 -2h17q0 -2 -1 -5t-2 -8t-2 -11v1l-23 -2h17v-24h-13v-13h-11v-11h-22v-12h-12v-11h-34v-12h-23v-14h-249v14
h-21v12h-23v11h-24v12h-12v19h10q-2 1 -5.5 2t-12.5 1l-1 13h-14v24h-10v37h-12v539h-11v12h-11v11h-45v11h-23v104h23v11h141v8h-10v11h-11v125h11v11h10v12h33v11h78v-11h32v-12h11v-11h11v-125h-11q0 -1 -1 -4l-2 -6h1l-3 -12v1l-23 -2h17v-7h9v-12h11v-67h-11l-3 -12
q-2 -8 -2 -11l-22 -2h17v-11l-50 1q-2 -4 -2 -10l-23 -2h17q0 -2 -1 -8.5t-2 -12.5l-2 -16v1l-24 -2h17v-194h12v-263h11v-12h11v-11h12v-15h11v-11h23v-12h22v-11h26v11h47v12h23l2 2l17 9h-10v15h13q0 -2 1 -2q0 1 1 1l2 1h-1v2l18 9h-10v24h11v445h-11v38h-24v11h-32v11
h-12v13h-13l5 71l17 8h-9v12h15v19h-11v34h-11v91h11z" />
    <glyph glyph-name="Yacute" unicode="&#xdd;" 
d="M302 883q-3 3 -3 7l20 13h-5l-3 7l122 73v-10l14 10h-4l-2 4l-1 1v-1l-2 1l107 64l6 -22l8 4l44 -80l-7 -7h5q2 -5 5 -9t5 -9l-29 -15h5l5 -6l-156 -92h135v15h100v-15h17v-100l-23 -2h16v-13h-10v-11h-35v-23h-10v-14h-13v-12h-10q0 -2 -1 -3q-2 -4 -2 -5h1
q-1 -3 -2.5 -6.5t-1.5 -6.5l-23 -2h16q0 -5 -2 -11t-2 -11l-23 -2h17v-24h-13v-12h-11v-11h-12v-35h-10v-14h-12q0 -2 -1 -3q-2 -4 -2 -5h1q-1 -2 -1 -4.5t-1 -4.5q-1 -3 -1 -6v1l-24 -2h17v-12h-10v2q-1 0 -2 -5t-2 -7h1q-2 -8 -2 -10l-24 -2h17v-25h-16q0 -1 -0.5 -4.5
t-0.5 -5.5l-23 -2h17q0 -5 -2 -13q-1 -4 -2 -7v1l-16 -7h10v-22h-13v-194h13v-26h101v-12h24v-11h11l-5 -78l-23 -2h17v-23h-36v-12h-88v12h-14v-12h-159v12h-100v23h-11v67h11v24h22v12h59v11h9v15h10v171h-10v23h-9v11h-13v37h-11v12h-12v20h7q-2 2 -4.5 2.5t-10.5 0.5
l-3 12h-12v21h9q-2 1 -5.5 2t-12.5 1v13h-13v25h-11v17h10q-2 1 -6 2t-14 1l-1 15h-13v23h-12v12h-10v23h-13v13h-10v23h-11l-2 22h10q-6 0 -12 2q-3 1 -5 2l-2 12h-12v11h-45v11h-23v115h23v15h236v-15h57v-23h12v-67h-16q0 -1 -0.5 -4.5t-0.5 -5.5l-22 -2h17v-13h-47v-4
h11v-23h12v-24h11v-13h13v-23h10v-11h12v-24h10v-25h12v-25h12v-10h11v-6l12 6h-5h-1v2l17 8h-10q0 3 4 10h-1l2 8v-1l17 8h-9q0 1 1 2l2 6h-1l2 8l17 9h-9v24l27 2h-17q0 2 2 10q1 4 1 7q1 0 1 -4l17 8h-9q0 -2 0.5 1.5t1 8t1.5 8.5l1 4v-6l17 8h-7l3 3h-3l17 8h-9v29h-34
v11h-22v13h-9v76l-7 -4l-24 13h-15zM377 519h4l-2 -1q-1 0 -1 -1q-1 0 -1 2zM445 650h3q-2 -2 -3 -2v2zM594 909l-1 -2q-1 0 -1 1zM530 1022h1l2 1h-2zM591 618h-1q0 1 1 1v-1z" />
    <glyph glyph-name="Thorn" unicode="&#xde;" horiz-adv-x="659" 
d="M15 787l18 8h-10v10l208 11q19 0 29.5 -7.5t15.5 -18t6 -22.5t1 -21q0 -5 -0.5 -8.5t-0.5 -6.5v-24h-14q33 -3 63.5 -3.5t62 -2.5t65.5 -8t73 -20v-3h13v-12h23v-11h12v-13h11v-12h10v-24h12v-13h12v-24h6v-196l-23 -2h17q0 -2 -1 -3q-2 -4 -2 -5h1q-1 -3 -2 -9t-2 -6v1
l-23 -2h17v-23h-12v-26h-10v-11h-16q0 -1 -0.5 -2.5t-0.5 -2.5l-15 -7h9v-13h-23v-11h-22v-12h-23v-12h-46v-12h-34v-12h-137q0 -3 -0.5 -8t-1.5 -7l-3 -18l-23 -2h28v-26h21v-12h80v-11h23v-13h13v-90h-13v-12h-34v-14h-338v14h-8v94l17 8h-9v13h10v11h58v12h12q2 0 3 1v2
l16 8h-9q0 127 -0.5 253t-0.5 253h5q-1 1 -2.5 1.5t-8.5 0.5l-4 14h-102v23h-8v83l17 8h-8zM457 420h10v60h17q2 0 -7.5 1t-17.5 1l-1 14h-14v11h-10v12h-11v11h-12v13h-23v11h-80v14h-16q0 -3 -1 -6l-17 -8h9v-219h11v-11h47v11h47v13h23v14h39h-16q0 2 2 10q1 4 1 7
q1 0 1 -4l17 8h-9q2 2 2 5l18 8h-9v24z" />
    <glyph glyph-name="germandbls" unicode="&#xdf;" horiz-adv-x="505" 
d="M325 197v14h-10v32h-11v21h-9v11h-10v11h-10v11h-10v11h-22v10h-19v26h2l-25 39v8q0 2 0.5 3.5t0.5 3.5l2 13q1 10 2.5 22.5t2 23.5t1.5 19l1 8l2 -5h11q1 2 4.5 5.5t3.5 5.5h11v9h10v-1q0 1 1 3q0 2 2 6h-1l2 6l17 8h-9v21h10v10h-10v31h-12v12h-10v10h-19v11h-41v10h-7
q-1 -2 -4.5 -5t-3.5 -5h-11v-21h-10v-466h12l-10 -128h-145v289l17 8h-9v20h-10v415h287v-10h51v-9h20v-11h11v-11h19v-22h10v-11h11v-21h10v-53h11v-67h-11v-39h-10v-22h-11v-22h-10v-10h-9v-10h-10v-11h19v-10h10v-11h21v-10h11v-10h8v-12h10v-21h12v-11h10v-32h5v-133
l-5 -13v-24h-10q0 -1 -1 -3q-2 -4 -2 -6h1q-1 -2 -1 -3.5t-1 -3.5t-1 -4l-23 -2h16v-21h-10v-11h-8v-11h-11v-11h-21v-12h-27h8l-51 -31h8v-20h-20v-10h-41v-12h-72v121l17 9h-10v11h21v10h10v12h37l30 32h-4v25h10v21h9z" />
    <glyph glyph-name="agrave" unicode="&#xe0;" horiz-adv-x="636" 
d="M359 660h-4l22 -12l-4 -8h-6l6 -5l-32 -61h91v-12h21v-10h21v-11h11v-12h11v-11h12v-22h10v-178h-10v-171h73v-8h10v-12h12l-6 -81l-15 -8h9v-10h-43v-12h-30v-12h-140v12h-12v12h-8v-12h-45v-12h-212v12h-23v12h-21v10h-21v10h-12v23h-9v23h-8v124l17 9h-9v22h9l3 6h-2
q1 3 1.5 7.5t1.5 4.5v-4l17 9h-9v12h10v11h20v12h23v9h20v12h33v11h43v12h64v11h100v9l24 2h-17v11h10v35h-10v11h-12v11h-10v12h-21v11h-20v-11h-22v-12h-20v-11h-11v-11h-12q0 -2 -0.5 -7t-1.5 -7l-3 -18l-24 -2h15q-1 -2 -1 -4.5v-4.5l-23 -2h17v-11h-118v11h-11v11h-8
v103l17 8h-9v22h23v11h20v12h21v11h22v10h53v12h21l-148 91l4 6h8l-29 17l10 17h3l-6 7l52 88l7 -6l4 9l97 -59l-4 -6h-6l16 -9v8l119 -71zM348 186l17 9h-9v34h-12v11h-83v-11h-33v-12h-21v-11h-24q0 -2 -0.5 -4.5t-0.5 -4.5l-23 -2h16v-10h-9v-38h21v-8h20v-12h64v12h21v8
h21v12h21l25 11h-15zM214 385l1 1z" />
    <glyph glyph-name="aacute" unicode="&#xe1;" horiz-adv-x="636" 
d="M164 562h53v12h51q-8 14 -18.5 34t-16.5 34l2 3h2l-5 9l21 10h-8l-4 6l120 73v-12l17 10h-6l-2 3h2q-2 2 -3 2l106 65v-23l9 4l44 -79l-5 -6h1q2 -5 5 -9t5 -9l-28 -15h5l6 -6l-154 -94h69v-12h21v-10h21v-11h11v-12h11v-11h12v-22h10v-178h-10v-171h73v-8h10v-12h12
l-6 -81l-15 -8h9v-10h-43v-12h-30v-12h-140v12h-12v12h-8v-12h-45v-12h-212v12h-23v12h-21v10h-21v10h-12v23h-9v23h-8v124l17 9h-9v22h9l3 6h-2q1 3 1.5 7.5t1.5 4.5v-4l17 9h-9v12h10v11h20v12h23v9h20v12h33v11h43v12h64v11h100v9l24 2h-17v11h10v35h-10v11h-12v11h-10
v12h-21v11h-20v-11h-22v-12h-20v-11h-11v-11h-12q0 -2 -0.5 -7t-1.5 -7l-3 -18l-24 -2h15q-1 -2 -1 -4.5v-4.5l-23 -2h17v-11h-118v11h-11v11h-8v103l17 8h-9v22h23v11h20v12h21v11h22v10zM348 186l17 9h-9v34h-12v11h-83v-11h-33v-12h-21v-11h-24q0 -2 -0.5 -4.5t-0.5 -4.5
l-23 -2h16v-10h-9v-38h21v-8h20v-12h64v12h21v8h21v12h21v11h10zM460 783q1 -1 2 -1l2 1h-4zM519 669l-1 -2q-1 0 -1 1zM369 746l-3 -1v1q0 1 1 1t1 -0.5t1 -0.5zM369 746q1 -1 1 -2h-1v2zM214 385l1 1z" />
    <glyph glyph-name="acircumflex" unicode="&#xe2;" horiz-adv-x="636" 
d="M301 787h17l32 12v-21h-2q10 -20 21 -40.5t22 -40.5l43 -79l-6 -5h4l8 -13l-41 -26h33v-12h21v-10h21v-11h11v-12h11v-11h12v-22h10v-178h-10v-171h73v-8h10v-12h12l-6 -81l-15 -8h9v-10h-43v-12h-30v-12h-140v12h-12v12h-8v-12h-45v-12h-212v12h-23v12h-21v10h-21v10
h-12v23h-9v23h-8v124l17 9h-9v22h9l3 6h-2q1 3 1.5 7.5t1.5 4.5v-4l17 9h-9v12h10v11h20v12h23v9h20v12h33v11h43v12h64v11h100v9l24 2h-17v11h10v35h-10v11h-12v11h-10v12h-21v11h-20v-11h-22v-12h-20v-11h-11v-11h-12q0 -2 -0.5 -7t-1.5 -7l-3 -18l-24 -2h15
q-1 -2 -1 -4.5v-4.5l-23 -2h17v-11h-118v11h-11v11h-8v103l17 8h-9v22h23v11h20v12h21v11h22v10h60l-38 24h5l-24 15l7 11h8l-14 7l91 158h-2v26l8 -4v5zM348 186l17 9h-9v34h-12v11h-83v-11h-33v-12h-21v-11h-24q0 -2 -0.5 -4.5t-0.5 -4.5l-23 -2h16v-10h-9v-38h21v-8h20
v-12h64v12h21v8h21v12h21l-33 11h43zM290 574h28l-14 26zM215 386l1 -1h-2z" />
    <glyph glyph-name="atilde" unicode="&#xe3;" horiz-adv-x="636" 
d="M164 561h-72v12h-11v10h-11v123h11v10h31v12h174v-12h85v12h149v-12h10v-10h11v-111h-11v-22h-43v-12h-34v-9h21v-11h11v-12h11v-11h12v-22h10v-178h-10v-171h73v-8h10v-12h12l-6 -81l-15 -8h9v-10h-43v-12h-30v-12h-140v12h-12v12h-8v-12h-45v-12h-212v12h-23v12h-21v10
h-21v10h-12v23h-9v23h-8v124l17 9h-9v22h9l3 6h-2q1 3 1.5 7.5t1.5 4.5v-4l17 9h-9v12h10v11h20v12h23v9h20v12h33v11h43v12h64v11h100v9l24 2h-17v11h10v35h-10v11h-12v11h-10v12h-21v11h-20v-11h-22v-12h-20v-11h-11v-11h-12q0 -2 -0.5 -7t-1.5 -7l-3 -18l-24 -2h15
q-1 -2 -1 -4.5v-4.5l-23 -2h17v-11h-118v11h-11v11h-8v103l17 8h-9v22h23v11h20v12h21v11h22v9zM348 186l17 9h-9v34h-12v11h-83v-11h-33v-12h-21v-11h-24q0 -2 -0.5 -4.5t-0.5 -4.5l-23 -2h16v-10h-9v-38h21v-8h20v-12h64v12h21v8h21v12h21v11h10zM214 385l1 1z" />
    <glyph glyph-name="adieresis" unicode="&#xe4;" horiz-adv-x="636" 
d="M344 707v21h21v12h21v10h76v-10h33v-12h11v-11h4v-130l-23 -2h15q0 -1 -0.5 -4.5t-0.5 -5.5l-23 -2h17v-11h-11v-12h-10v-9h11v-12h11v-11h12v-22h10v-178h-10v-171h73v-8h10v-12h12l-6 -81l-15 -8h9v-10h-43v-12h-30v-12h-140v12h-12v12h-8v-12h-45v-12h-212v12h-23v12
h-21v10h-21v10h-12v23h-9v23h-8v124l17 9h-9v22h9l3 6h-2q1 3 1.5 7.5t1.5 4.5v-4l17 9h-9v12h10v11h20v12h23v9h20v12h33v11h43v12h64v11h100v9l24 2h-17v11h10v35h-10v11h-12v11h-10v12h-21v11h-20v-11h-22v-12h-20v-11h-11v-11h-12q0 -2 -0.5 -7t-1.5 -7l-3 -18l-24 -2
h15q-1 -2 -1 -4.5v-4.5l-23 -2h17v-11h-118v11h-11v11h-8v103l17 8h-9v22h23v11h20v12h22l3 11l-1 10h-34v23h-8v10h-13v122h13v11h8v12h34v10h75v-10h32v-12h12v-11h9v-122h-11l-2 -5h1q-2 -3 -2.5 -7.5t-0.5 -7.5l-20 -1h116v11h-10v33h-11v89h11zM348 186l17 9h-9v34h-12
v11h-83v-11h-33v-12h-21v-11h-24q0 -2 -0.5 -4.5t-0.5 -4.5l-23 -2h16v-10h-9v-38h21v-8h20v-12h64v12h21v8h21v12h21l10 11zM214 385l1 1z" />
    <glyph glyph-name="aring" unicode="&#xe5;" horiz-adv-x="636" 
d="M417 814l-20 -21l5 -5t3 -4h-1l18 -27h-1h-2l5 -12h11v-70q0 -10 -2 -15t-14 -11h9q-1 -5 -11 -19h4q0 -1 -3 -4.5t-11 -12.5h-12q1 -2 3.5 -3.5t4.5 -1.5q-2 -3 -4.5 -6t-16.5 -8h5l20 -20h25v-12h21v-10h21v-11h11v-12h11v-11h12v-22h10v-178h-10v-171h73v-8h10v-12h12
l-6 -81l-15 -8h9v-10h-43v-12h-30v-12h-140v12h-12v12h-8v-12h-45v-12h-212v12h-23v12h-21v10h-21v10h-12v23h-9v23h-8v124l17 9h-9v22h9l3 6h-2q1 3 1.5 7.5t1.5 4.5v-4l17 9h-9v12h10v11h20v12h23v9h20v12h33v11h43v12h64v11h100v9l24 2h-17v11h10v35h-10v11h-12v11h-10
v12h-21v11h-20v-11h-22v-12h-20v-11h-11v-11h-12q0 -2 -0.5 -7t-1.5 -7l-3 -18l-24 -2h15q-1 -2 -1 -4.5v-4.5l-23 -2h17v-11h-118v11h-11v11h-8v103l17 8h-9v22h23v11h20v12h21v11h22v10h53v12h55q-20 10 -33 11t-15 14h8q-4 2 -7.5 4t-6.5 4l-23 -22v43q0 9 -0.5 19
t-0.5 15v65q0 10 2.5 16.5t6.5 11.5h-2q0 4 15 16h-6q1 2 3 4.5t13 9.5h-9q0 1 0.5 1.5t0.5 2.5h7q-8 5 -10 6.5t-2 2.5v2q-1 0 3 -2l-15 16h216zM348 186l17 9h-9v34h-12v11h-83v-11h-33v-12h-21v-11h-24q0 -2 -0.5 -4.5t-0.5 -4.5l-23 -2h16v-10h-9v-38h21v-8h20v-12h64
v12h21v8h21v12h21v11h10zM299 692l7 -7h4t3 -2q3 0 5 1h-4q1 1 3.5 2.5t14.5 4.5h-13q0 1 0.5 2t0.5 2h10q-9 5 -13.5 10t-6.5 11l-10 -8h6l-2 -8zM214 385l1 1zM312 719l-2 -2z" />
    <glyph glyph-name="ae" unicode="&#xe6;" horiz-adv-x="983" 
d="M518 554h21v12h215v-12h20v-10h22v-9h11v-13h20v-10h12v-11h9v-11h12v-24h10v-12h12v-22h9v-32h7v-143l-23 -2h16v-10h-31v-12h-277v-11h-55v-13h12v-22h10v-11h11v-12h9v-11h23v-11h21v-10h43v-12h20v12h64v10h33v11h30v11h108v-11h7v-86l-23 -2h16v-11h-9v-12h-21v-10
h-22v-12h-43v-11h-43v-12h-54v-11h-171v11h-43v7h-121v12h-11v12h-9v-12h-43v-12h-214v12h-22v12h-20v10h-23v10h-12v23h-8v23h-7v124l17 9h-10v22h8v23h16v3l17 9h-9v11h21v12h21v9h21v12h32v11h42v12h64v11h97v11h13v14h8v32h-11v11h-10v11h-10v12h-22v11h-20v-11h-22v-12
h-21v-11h-12v-1q-1 0 -1 1v1q-1 -2 -1.5 -3.5t-0.5 -6.5l-24 -2h17q0 -2 -0.5 -7t-1.5 -7l-3 -18l-23 -2h16q0 1 -2 -5h2q0 -1 -0.5 -2t-0.5 -2l-24 -2h17v-11h-119v11h-11v11h-6v103l16 8h-10v22h22v11h21v12h21v11h21v10h55v12h214v-12h21v-10h22v-11h12v-6l1 9h22v10z
M353 195h4v34h-4v11h-83v-11h-34v-12h-20v-11h-26q0 -2 -0.5 -4.5t-0.5 -4.5l-23 -2h17v-10h-10v-38h21v-8h22v-12h62v12h22v8h21v12h22v11h10v25zM758 367h-27v10h-11v12h-11v24h-21v11h-11v11h-33v11h-18v-11l-24 1q-2 -4 -2 -10l-24 -2h17v-11h-10v-13h-18l-3 -3h3
l-16 -8h7q0 -1 -0.5 -2t-0.5 -2l-10 -8h5v-10h-10q-1 0 -5 -6h2q-3 -5 -3 -9l-15 -8h115v10h101v4l16 8l-10 1h17z" />
    <glyph glyph-name="ccedilla" unicode="&#xe7;" horiz-adv-x="588" 
d="M409 574v-12h32v-10h20v-11h11v-12h12v-11h9v-11h12v-22h9v-56h12l-5 -75l-23 -2h16v-23h-9v-11h-119v11h-21v23h-11v67h-10v11h-11v11h-33v12h-20v-12h-21v-11h-21v-11h-10v-12l-16 1l-1 -1q-1 -1 -1 -8l-23 -2h15q0 -1 -0.5 -4.5t-0.5 -5.5l-24 -2h17v-11h-9l-1 1
q-1 -1 -1 -3q-1 -2 -1 -5h1q-1 -3 -2 -6.5t-1 -6.5l-24 -2h17v-34h-9v-69h9v-33h12v-10h9v-22h12v-14h9v-11h23v-12h21v-8h116v8h21v12h31v11h121v-11h10l-6 -80l-15 -8h6l-3 -3h3v-5l-23 -2h17v-13h-23v-10h-30v-10h-23v-12h-52v-12h-32l17 -55h-8q2 -15 4 -28t5 -21
l-3 -13v-16h-6v-2l-79 -19l-15 3q-5 -2 -13.5 -4.5t-10.5 -2.5l-10 38h-8l-28 109h-38v11h-43v12h-34v12h-9v10h-10v10h-11v13h-11v10h-11v13h-11v22h-10v23h-11v32h-11v34h-10v133h10q0 16 2 34t2 25l17 8h-10v22h11l3 6h-2q0 1 0.5 3.5t0.5 4.5q0 3 1 6q1 0 1 -6l16 8h-10
v23h15v4l17 8h-10v11h15v3l17 8h-10v11h10v11h9v11h26v4l17 8h-9v11h31v10h34v12h203zM545 71h-2h3h-1z" />
    <glyph glyph-name="egrave" unicode="&#xe8;" horiz-adv-x="601" 
d="M354 664h-6l22 -10l-5 -8h-5q2 -3 4 -5q1 -1 2 -1l-35 -66h68v-12h20v-10h22v-11h12v-12h19v-11h12v-11h9v-11h12v-22h11v-12h10v-23h11v-32h6v-143l-23 -2h17v-10h-32v-12h-277v-11h-55v-13h12v-21h9v-11h13v-14h9v-11h22v-12h21v-8h43v-12h20v12h64v8h33v12h30v11h110
v-11h11l-5 -80l-16 -8h10v-10h-11v-13h-22v-10h-21v-10h-43v-12h-43v-12h-54v-11h-171v11h-43v12h-32v12h-20v10h-12v10h-10v13h-21v10h-11v23h-11v12h-11v23h-11v56h-10v154h10q0 11 2 26t2 22l17 8h-10v22h11l3 6h-2q0 1 0.5 3.5t0.5 4.5q0 3 1 6q1 0 1 -6l17 8h-10v23h15
v4l17 8h-10v11h10l3 6h-2q0 1 0.5 3.5t0.5 4.5q0 3 1 6q1 0 1 -6l17 8h-7l3 3h-3l17 8h-9v11h20v12h23v11h20v10h22v12h55l-156 96l4 5h5l-26 18l11 17h3l-8 7l47 81l8 -6l8 16l97 -59l-2 -6h-6l19 -12q0 -1 1 -1l2 8l113 -67zM403 374h-28v11h-10v12h-11v22h-21v11h-11v11
h-33v12h-18v-12h-26q0 -2 -0.5 -5t-0.5 -5l-22 -1h16v-11h-14q0 -1 -0.5 -4.5t-0.5 -5.5l-24 -2h17v-10h-9v-12h-13v-11h-9l-1 1q-1 -1 -1 -3q-1 -2 -1 -5h1q-1 -2 -1.5 -7.5t-0.5 -8.5h98v11h100v9l24 2h-17zM164 351h16v12zM88 507h3q-2 -2 -3 -2v2z" />
    <glyph glyph-name="eacute" unicode="&#xe9;" horiz-adv-x="601" 
d="M162 562h22v12h31l-29 55h1q-4 5 -9 11t-4 6l-6 6l29 16h-8q0 1 -0.5 1.5t-0.5 1.5h-2l89 47h8l39 26h-4q-4 4 -4 5l88 53l12 11l1 -3l2 1l1 -7l3 3l51 -90l-7 -7h3l11 -19l2 -1l-28 -15h6l2 -4l-165 -97h103v-12h20v-10h22v-11h12v-12h19v-11h12v-11h9v-11h12v-22h11
v-12h10v-23h11v-32h6v-143l-23 -2h17v-10h-32v-12h-277v-11h-55v-13h12v-21h9v-11h13v-14h9v-11h22v-12h21v-8h43v-12h20v12h64v8h33v12h30v11h110v-11h11l-5 -80l-16 -8h10v-10h-11v-13h-22v-10h-21v-10h-43v-12h-43v-12h-54v-11h-171v11h-43v12h-32v12h-20v10h-12v10h-10
v13h-21v10h-11v23h-11v12h-11v23h-11v56h-10v154h10q0 11 2 26t2 22l17 8h-10v22h11l3 6h-2q0 1 0.5 3.5t0.5 4.5q0 3 1 6q1 0 1 -6l17 8h-10v23h15v4l17 8h-10v11h10l3 6h-2q0 1 0.5 3.5t0.5 4.5q0 3 1 6q1 0 1 -6l17 8h-7l3 3h-3l17 8h-9v11h20v12h23v11h20v10zM403 374
h-28v11h-10v12h-11v22h-21v11h-11v11h-33v12h-18v-12h-26q0 -2 -0.5 -5t-0.5 -5l-22 -1h16v-11h-14q0 -1 -0.5 -4.5t-0.5 -5.5l-24 -2h17v-10h-9v-12h-13v-11h-9l-1 1q-1 -1 -1 -3q-1 -2 -1 -5h1q-1 -2 -1.5 -7.5t-0.5 -8.5h98v11h100v9l24 2h-17zM164 351h16v12zM88 507h3
q-2 -2 -3 -2v2zM463 672q0 -3 -1 -3q0 1 -1 2zM314 749l-1 -1q0 1 1 1z" />
    <glyph glyph-name="ecircumflex" unicode="&#xea;" horiz-adv-x="601" 
d="M294 781q5 2 16 2l31 12v-22h-2l89 -160l-6 -6l8 -11l-25 -15h8l-23 -13h9v-6h20v-10h22v-11h12v-12h19v-11h12v-11h9v-11h12v-22h11v-12h10v-23h11v-32h6v-143l-23 -2h17v-10h-32v-12h-277v-11h-55v-13h12v-21h9v-11h13v-14h9v-11h22v-12h21v-8h43v-12h20v12h64v8h33v12
h30v11h110v-11h11l-5 -80l-16 -8h10v-10h-11v-13h-22v-10h-21v-10h-43v-12h-43v-12h-54v-11h-171v11h-43v12h-32v12h-20v10h-12v10h-10v13h-21v10h-11v23h-11v12h-11v23h-11v56h-10v154h10q0 11 2 26t2 22l17 8h-10v22h11l3 6h-2q0 1 0.5 3.5t0.5 4.5q0 3 1 6q1 0 1 -6l17 8
h-10v23h15v4l17 8h-10v11h10l3 6h-2q0 1 0.5 3.5t0.5 4.5q0 3 1 6q1 0 1 -6l17 8h-7l3 3h-3l17 8h-9v11h20v12h23v11h20v10h22v8h9l-17 9l-2 3h8l-25 15l7 10h9q-8 3 -14 3h-2l93 162h-2v27l7 -4v7zM403 374h-28v11h-10v12h-11v22h-21v11h-11v11h-33v12h-18v-12h-26
q0 -2 -0.5 -5t-0.5 -5l-22 -1h16v-11h-14q0 -1 -0.5 -4.5t-0.5 -5.5l-24 -2h17v-10h-9v-12h-13v-11h-9l-1 1q-1 -1 -1 -3q-1 -2 -1 -5h1q-1 -2 -1.5 -7.5t-0.5 -8.5h98v11h100v9l24 2h-17zM282 574h22l-10 20zM164 351h16v12zM88 507h3q-2 -2 -3 -2v2zM157 610l-2 -4
q0 3 2 4z" />
    <glyph glyph-name="edieresis" unicode="&#xeb;" horiz-adv-x="601" 
d="M332 707v21h21v12h21v10h76v-10h32v-12h11v-11h5v-130l-23 -2h14q0 -1 -0.5 -4.5t-0.5 -5.5l-23 -2h17v-11h-11v-12h-30v-9h12v-12h19v-11h12v-11h9v-11h12v-22h11v-12h10v-23h11v-32h6v-143l-23 -2h17v-10h-32v-12h-277v-11h-55v-13h12v-21h9v-11h13v-14h9v-11h22v-12
h21v-8h43v-12h20v12h64v8h33v12h30v11h110v-11h11l-5 -80l-16 -8h10v-10h-11v-13h-22v-10h-21v-10h-43v-12h-43v-12h-54v-11h-171v11h-43v12h-32v12h-20v10h-12v10h-10v13h-21v10h-11v23h-11v12h-11v23h-11v56h-10v154h10q0 11 2 26t2 22l17 8h-10v22h11l3 6h-2q0 1 0.5 3.5
t0.5 4.5q0 3 1 6q1 0 1 -6l17 8h-10v23h15v4l17 8h-10v11h10l3 6h-2q0 1 0.5 3.5t0.5 4.5q0 3 1 6q1 0 1 -6l17 8h-7l3 3h-3l17 8h-9v11h20v12h23v9h-10v12h-32v23h-10v10h-11v122h11v11h10v12h32v10h76v-10h32v-12h11v-11h9v-122h-9q0 -1 -1 -2t-2 -3h1q-2 -3 -2.5 -7.5
t-0.5 -7.5l-20 -1h115v11h-9v33h-12v89h12zM403 374h-28v11h-10v12h-11v22h-21v11h-11v11h-33v12h-18v-12h-26q0 -2 -0.5 -5t-0.5 -5l-22 -1h16v-11h-14q0 -1 -0.5 -4.5t-0.5 -5.5l-24 -2h17v-10h-9v-12h-13v-11h-9l-1 1q-1 -1 -1 -3q-1 -2 -1 -5h1q-1 -2 -1.5 -7.5
t-0.5 -8.5h98v11h100v9l24 2h-17zM164 351h16v12zM88 507h3q-2 -2 -3 -2v2z" />
    <glyph glyph-name="igrave" unicode="&#xec;" horiz-adv-x="577" 
d="M310 665h-9l19 -9l-5 -9h-3l7 -7l-38 -70h20v-12h22v-32h7v-86l-23 -2h16v-294h12v-10h21v-12h170v-11h22v-99h-10v-12h-21v-11h-120v11h-276v-11h-85v11h-22v23h-12l4 58l17 8h-9v22h10v11h107v12h20v10h22v283h-32v11h-10v-11h-107v11h-10v11h-8v79l17 9h-9v11h84v10
h97v10h8l-166 103l4 5h5l-27 18l9 18h5q-2 1 -5 4q-1 1 -2 1l38 66l13 -1l3 5h8q-8 2 -9.5 10.5t-1.5 19.5l108 -68l-3 -5h-5l14 -9v6l122 -70z" />
    <glyph glyph-name="iacute" unicode="&#xed;" horiz-adv-x="577" 
d="M98 558h97v12h21l-38 74l3 3h3q-2 2 -2 4.5t-2 4.5l18 9h-8l-3 7l88 46l5 -1l39 29h-5q-1 1 -1 2l102 64l6 -20q2 1 5 4q1 1 2 1l44 -80l-7 -7h4l6 -10h-1q4 -8 6 -10l-31 -15h6l3 -3l2 -2l-171 -100h12v-12h22v-32h7v-86l-23 -2h16v-294h12v-10h21v-12h170v-11h22v-99
h-10v-12h-21v-11h-120v11h-276v-11h-85v11h-22v23h-12l4 58l17 8h-9v22h10v11h107v12h20v10h22v283h-32v11h-10v-11h-107v11h-10v11h-8v79l17 9h-9v11h84v10zM463 672q0 -3 -2 -3q-1 0 -1 1zM313 748l-1 -1v2zM481 690v-1q-1 0 -1 1h1z" />
    <glyph glyph-name="icircumflex" unicode="&#xee;" horiz-adv-x="577" 
d="M252 776h12q5 0 7 1h-5l33 15v-24h-2q12 -21 23 -42.5t23 -43.5l41 -75l-5 -5h4q2 -4 4 -6.5t4 -6.5l-27 -15h6l-54 -34h7v-14h7v-86l-23 -2h16v-294h12v-10h21v-12h170v-11h22v-99h-10v-12h-21v-11h-120v11h-276v-11h-85v11h-22v23h-12l4 58l17 8h-9v22h10v11h107v12h20
v10h22v283h-32v11h-10v-11h-107v11h-10v11h-8v79l17 9h-9v11h84v10h65q-6 3 -14 9t-13 8h6l-24 15l8 12h6l-14 6l91 159h-2v25l7 -4v3zM244 570h9v17zM370 570l2 5z" />
    <glyph glyph-name="idieresis" unicode="&#xef;" horiz-adv-x="577" 
d="M292 707v21h21v12h21v10h74v-10h34v-12h12v-11h3v-130l-22 -2h14q0 -1 -0.5 -4.5t-0.5 -5.5l-23 -2h17v-11h-10v-12h-109v-24h7v-86l-23 -2h16v-294h12v-10h21v-12h170v-11h22v-99h-10v-12h-21v-11h-120v11h-276v-11h-85v11h-22v23h-12l4 58l17 8h-9v22h10v11h107v12h20
v10h22v283h-32v11h-10v-11h-107v11h-10v11h-8v79l17 9h-9v13h100h-22v12h-33v23h-10v10h-10v122h10v11h10v12h33v10h76v-10h31v-12h12v-11h9v-122h-10l-2 -5h1q-2 -3 -2.5 -7.5t-0.5 -7.5l-23 -2h16v-3h102v15h-9v33h-12v89h12zM195 558v4h-27v-4h27zM301 562v-4h21v4h-21z
" />
    <glyph glyph-name="eth" unicode="&#xf0;" horiz-adv-x="542" 
d="M88 643l24 2h-16q0 2 -1.5 1t-1.5 1l31 16h-9l-2 7l35 20h-19v12h-43v11h-21v22h-11l4 56l17 9h-10v23h43v12h86v-12h43v-11h32v-12h21v-11h23l95 58l8 -19l13 6l46 -87l-7 -7h2l9 -11l-37 -21h6q1 -2 1 -3t1 -2l-44 -25h23v-11h11v-24h10v-11h10v-22h12v-20h11v-47h12
v-45h8v-45h6v-254h-23h17v-57h-8q0 -1 -1.5 -4t-2.5 -6h1l-3 -12v1l-23 -2h17v-23h-11v-22h-12v-10h-10q0 -1 -1 -4l-2 -6h1q-2 -8 -2 -11l-23 -2h17v-11h-22v-11h-11v-11h-20v-12h-32v-11h-33v-13h-130v13h-51v11h-23v12h-21v11h-11v11h-21v11h-11v23h-11v10h-12v22h-9v35
h-9v33h-8v169l17 8h-9v34h9v23h9q0 1 1 2t3 6h-1q0 1 0.5 2.5t0.5 2.5t1 2l16 8h-9v22h11v10h13q1 0 2 1v2l4 2l-2 -2l2 2l13 6h-6l4 4h-3l-1 -1v2l16 8h-10v10h11v11h21v11h33v12h170v14h-11v20h-11v24h-9v22h-11l-91 -51l-19 1q-1 -1 -2 -1h-1l-10 5h-18zM152 253h11v-68
h11v-12h9v-22h11v-10h11v-12h22v-10h21v-12h30v12h21v10h15v3l17 9h-10q0 -1 0.5 1.5t1 5.5t1.5 5.5l1 2.5v-2l17 9h-9v22h9v23h11v91h-11v11h-9v11h-12v22h-22v11h-9v12h-12v10h-22v13h-8v-13h-21v-10h-22v-12l-14 1q0 -1 -1 -3t-1 -7l-23 -2h16l-2 -5h1q-2 -3 -3 -7.5
t-1 -7.5l-22 -2h15q0 -1 -0.5 -4t-0.5 -5l-23 -2h17v-46h-11v-11zM451 704v-2l1 -2q-1 0 -1 1q-1 1 -1 2zM77 464h3l-2 -2q-1 0 -1 2zM480 730q0 -1 -1 -1z" />
    <glyph glyph-name="ntilde" unicode="&#xf1;" 
d="M293 558h32v12h162v-12h11v-10h20v-11h23v-11h10v-10h10v-13h11v-22h11v-33h11v-314h10v-12h54v-11h20v-111h-20v-11h-151v11h-106v23h-10l4 58l16 8h-7v2l17 8h-9v12h10v-2q1 0 6 5h-3l17 8h-9v12h10v133h10v46h-10v58h-10v22h-12v10h-9v13h-11v11h-22v11h-8v-11h-23
v-11h-31v-13h-22v-10h-33v-22h-10q0 -24 -2.5 -47.5t-2.5 -47.5l-16 -7h9v-69h12v-66h10v-12h55v-11h21v-12h10v-10h10v-66h-10v-11h-10v-12h-268v12h-11v11h-11v66h11q0 1 1 2l2 6h-1l2 6l17 8h-10v11h20v12h11v282h-11v11h-74v11h-11v88h11v11h21v11h53v10h129v-10h12v-11
h20v11h42v10zM118 730h30v13h173v-13h84v13h149v-13h12v-11h6v-102l-16 -8h10v-22h-42v-12h-396v12h-10v11h-11v121h11v11zM219 516q0 -2 1 -2l4 2h-5zM401 89h3v-1l1 1l-2 -1q-1 0 -1 -1q-1 0 -1 2z" />
    <glyph glyph-name="ograve" unicode="&#xf2;" horiz-adv-x="613" 
d="M103 517l16 9h-10v11h22v11h22v10h20v12h43l-155 95l4 6h6l-25 16l9 18h3l-7 7l53 88l6 -6l4 9l98 -59l-4 -6h-6l37 -23l12 8l87 -58l-3 -6h-7l22 -11l-5 -8h-5l5 -5l-29 -54h40v-11h53v-12h33v-10h32v-11h10v-11h12v-10h9v-13h12v-11h9v-22h13v-12h10v-22h12v-22h9v-56
h5v-126l-10 -8h5v-34h-9q0 -2 -1 -11t-2 -19t-2 -17.5l-1 -7.5v2l-23 -2h17v-23h-10v-11h-13v-12h-12q0 1 -1 1q-2 0 -3 -1l-2 -2q1 0 1 1q2 0 2 -6l-23 -2h17v-12h-9v-11h-27q0 -2 -0.5 -5.5t-0.5 -5.5l-22 -2h17v-10h-9v-11h-24v-11h-21v-12h-43v-11h-171v11h-33v12h-31
v11h-22v11h-10v10h-22v13h-10v11h-10v12h-11v21h-10v23h-13v33h-9v23h-8v191l17 9h-9v34h9q0 1 1 2t3 5h-2l2 6l18 9h-9v22h12q1 0 1 3l17 9h-9v22h10v11h22q0 -2 1 -2q2 4 2 7l17 8h-6v1zM423 271l17 9h-21v46h-11v23h-11v10h-10v34h-10v10h-12v13h-9v11h-22v11h-21v11h-64
v-11h-25q0 -2 -0.5 -4.5t-0.5 -4.5l-24 -2h15q-1 -2 -1 -4.5v-4.5l-23 -2h17v-13h-15l-4 -4h1q2 0 2 -4l-22 -2h17v-22h-11q0 -2 -0.5 -7t-1.5 -7l-3 -18l-23 -2h17v-44h-11v-26h11v-45h11v-11h11v-21h10v-11h11v-12h11v-11h10v-12h11v-10h21v-12h62v12h22v10h26v4l16 8h-9
v11h10v23h10v-1q0 1 1 3q0 2 2 6h-1l2 6v-1l17 8h-10v23h11zM100 516h4l-2 -1q-1 0 -1 -1q-1 0 -1 2z" />
    <glyph glyph-name="oacute" unicode="&#xf3;" horiz-adv-x="613" 
d="M173 570h44v11h35q-6 14 -15.5 32t-16.5 31l3 2l-5 8l21 11h-8l-2 7l88 46l4 -1l40 29h-3l-3 3l75 40l4 -1l10 2l18 17l52 -90l-7 -7h4l11 -20l-34 -16q4 0 8 0.5t5 0.5q0 -2 0.5 -2.5t0.5 -1.5t1 -1l-155 -91h8v-9h53v-12h33v-10h32v-11h10v-11h12v-10h9v-13h12v-11h9
v-22h13v-12h10v-22h12v-22h9v-56h5v-126l-10 -8h5v-34h-9q0 -2 -1 -11t-2 -19t-2 -17.5l-1 -7.5v2l-23 -2h17v-23h-10v-11h-13v-12h-12q0 1 -1 1q-2 0 -3 -1l-2 -2q1 0 1 1q2 0 2 -6l-23 -2h17v-12h-9v-11h-27q0 -2 -0.5 -5.5t-0.5 -5.5l-22 -2h17v-10h-9v-11h-24v-11h-21
v-12h-43v-11h-171v11h-33v12h-31v11h-22v11h-10v10h-22v13h-10v11h-10v12h-11v21h-10v23h-13v33h-9v23h-8v191l17 9h-9v34h9q0 1 1 2t3 5h-2l2 6l18 9h-9v22h12q1 0 1 3l17 9h-9v22h10v11h22q0 -2 1 -2q2 4 2 7l17 8h-6l16 10h-10v11h22v11h22v10h20v12zM423 271l17 9h-21
v46h-11v23h-11v10h-10v34h-10v10h-12v13h-9v11h-22v11h-21v11h-64v-11h-25q0 -2 -0.5 -4.5t-0.5 -4.5l-24 -2h15q-1 -2 -1 -4.5v-4.5l-23 -2h17v-13h-15l-4 -4h1q2 0 2 -4l-22 -2h17v-22h-11q0 -2 -0.5 -7t-1.5 -7l-3 -18l-23 -2h17v-44h-11v-26h11v-45h11v-11h11v-21h10
v-11h11v-12h11v-11h10v-12h11v-10h21v-12h62v12h22v10h26v4l16 8h-9v11h10v23h10v-1q0 1 1 3q0 2 2 6h-1l2 6v-1l17 8h-10v23h11zM100 516h4l-2 -1q-1 0 -1 -1q-1 0 -1 2zM355 749l-2 -1v1q0 1 1 1q0 -1 1 -1z" />
    <glyph glyph-name="ocircumflex" unicode="&#xf4;" horiz-adv-x="613" 
d="M297 787l16 3q5 2 16.5 6t13.5 5l1 -22h-2q11 -20 22 -40.5t21 -40.5l42 -78l-5 -5h5q0 -7 5 -10l2 -4l-50 -31h25v-12h33v-10h32v-11h10v-11h12v-10h9v-13h12v-11h9v-22h13v-12h10v-22h12v-22h9v-56h5v-126l-10 -8h5v-34h-9q0 -2 -1 -11t-2 -19t-2 -17.5l-1 -7.5v2
l-23 -2h17v-23h-10v-11h-13v-12h-12q0 1 -1 1q-2 0 -3 -1l-2 -2q1 0 1 1q2 0 2 -6l-23 -2h17v-12h-9v-11h-27q0 -2 -0.5 -5.5t-0.5 -5.5l-22 -2h17v-10h-9v-11h-24v-11h-21v-12h-43v-11h-171v11h-33v12h-31v11h-22v11h-10v10h-22v13h-10v11h-10v12h-11v21h-10v23h-13v33h-9
v23h-8v191l17 9h-9v34h9q0 1 1 2t3 5h-2l2 6l18 9h-9v22h12q1 0 1 3l17 9h-9v22h10v11h22q0 -2 1 -2q2 4 2 7l17 8l-6 -1l1 1h-1l16 10h-10v11h22v11h22v10h20v12h35l-28 18h5l-24 16l7 10h7l-13 7l91 158h-2v26l7 -4v7zM423 271l17 9h-21v46h-11v23h-11v10h-10v34h-10v10
h-12v13h-9v11h-22v11h-21v11h-64v-11h-25q0 -2 -0.5 -4.5t-0.5 -4.5l-24 -2h15q-1 -2 -1 -4.5v-4.5l-23 -2h17v-13h-15l-4 -4h1q2 0 2 -4l-22 -2h17v-22h-11q0 -2 -0.5 -7t-1.5 -7l-3 -18l-23 -2h17v-44h-11v-26h11v-45h11v-11h11v-21h10v-11h11v-12h11v-11h10v-12h11v-10
h21v-12h62v12h22v10h26v4l16 8h-9v11h10v23h10v-1q0 1 1 3q0 2 2 6h-1l2 6v-1l17 8h-10v23h11zM286 581h23l-12 21zM100 516l3 -1l-2 -1q-1 0 -1 2zM435 602v-3q-1 0 -1 2z" />
    <glyph glyph-name="otilde" unicode="&#xf5;" horiz-adv-x="613" 
d="M173 570h44v10h-147v12h-11v10h-8v112l17 9h-9v11h31v12h172v-12h86v12h149v-12h11v-11h11v-110h-11v-21h-43v-12h-109v-10h53v-12h33v-10h32v-11h10v-11h12v-10h9v-13h12v-11h9v-22h13v-12h10v-22h12v-22h9v-56h5v-126l-10 -8h5v-34h-9q0 -2 -1 -11t-2 -19t-2 -17.5
l-1 -7.5v2l-23 -2h17v-23h-10v-11h-13v-12h-12q0 1 -1 1q-2 0 -5 -3q1 0 1 1q2 0 2 -6l-23 -2h17v-12h-9v-11h-27q0 -2 -0.5 -5.5t-0.5 -5.5l-22 -2h17v-10h-9v-11h-24v-11h-21v-12h-43v-11h-171v11h-33v12h-31v11h-22v11h-10v10h-22v13h-10v11h-10v12h-11v21h-10v23h-13v33
h-9v23h-8v191l17 9h-9v34h9q0 1 1 2t3 5h-2l2 6l18 9h-9v22h12q1 0 1 3l17 9h-9v22h10v11h22q0 -2 1 -2q2 4 2 7l17 8h-5l1 1q-1 -1 -2 -1v1l16 9h-10v11h22v11h22v10h20v12zM423 271l17 9h-21v46h-11v23h-11v10h-10v34h-10v10h-12v13h-9v11h-22v11h-21v11h-64v-11h-25
q0 -2 -0.5 -4.5t-0.5 -4.5l-24 -2h15q-1 -2 -1 -4.5v-4.5l-23 -2h17v-13h-15l-4 -4h1q2 0 2 -4l-22 -2h17v-22h-11q0 -2 -0.5 -7t-1.5 -7l-3 -18l-23 -2h17v-44h-11v-26h11v-45h11v-11h11v-21h10v-11h11v-12h11v-11h10v-12h11v-10h21v-12h62v12h22v10h26v4l16 8h-9v11h10v23
h10v-1q0 1 1 3q0 2 2 6h-1l2 6v-1l17 8h-10v23h11zM100 516h4l-2 -1q-1 0 -1 -1q-1 0 -1 2z" />
    <glyph glyph-name="odieresis" unicode="&#xf6;" horiz-adv-x="613" 
d="M333 711v21h21v12h22v10h75v-10h32v-12h12v-13h4v-123l-16 -8h7q0 -1 -0.5 -2.5t-0.5 -2.5l-15 -7h9v-11h-11v-12h-30v-5h32v-11h10v-11h12v-10h9v-13h12v-11h9v-22h13v-12h10v-22h12v-22h9v-56h5v-126l-10 -8h5v-34h-9q0 -2 -1 -11t-2 -19t-2 -17.5l-1 -7.5v2l-23 -2h17
v-23h-10v-11h-13v-12h-12q0 1 -1 1q-2 0 -5 -3q1 0 1 1q2 0 2 -6l-23 -2h17v-12h-9v-11h-27q0 -2 -0.5 -5.5t-0.5 -5.5l-22 -2h17v-10h-9v-11h-24v-11h-21v-12h-43v-11h-171v11h-33v12h-31v11h-22v11h-10v10h-22v13h-10v11h-10v12h-11v21h-10v23h-13v33h-9v23h-8v191l17 9
h-9v34h9q0 1 1 2t3 5h-2l2 6l18 9h-9v22h12q1 0 1 3l17 9h-9v22h10v11h22q0 -2 1 -2q2 4 2 7l17 8h-6l16 10h-10v11h22v11h31l-9 5h-20v12h-32v23h-10v10h-11v121h11v13h10v12h32v10h77v-10h31v-12h11v-13h9v-121h-10q0 -1 -1 -2.5t-2 -3.5h1q-2 -6 -2 -8l-4 -3h99v7h-9v32
h-12v91h12zM423 271l17 9h-21v46h-11v23h-11v10h-10v34h-10v10h-12v13h-9v11h-22v11h-21v11h-64v-11h-25q0 -2 -0.5 -4.5t-0.5 -4.5l-24 -2h15q-1 -2 -1 -4.5v-4.5l-23 -2h17v-13h-15l-4 -4h1q2 0 2 -4l-22 -2h17v-22h-11q0 -2 -0.5 -7t-1.5 -7l-3 -18l-23 -2h17v-44h-11
v-26h11v-45h11v-11h11v-21h10v-11h11v-12h11v-11h10v-12h11v-10h21v-12h62v12h22v10h26v4l16 8h-9v11h10v23h10v-1q0 1 1 3q0 2 2 6h-1l2 6v-1l17 8h-10v23h11zM100 516h4l-2 -1q-1 0 -1 -1q-1 0 -1 2z" />
    <glyph glyph-name="divide" unicode="&#xf7;" horiz-adv-x="493" 
d="M153 231h38h-171v12h-13v11h-10v126h10v9h33v13h122l-9 4h-11v34h-11v67h11q0 8 1.5 15t1.5 11l18 8h-10v11h10v12h133v-12h10v-11h23v-34h10l-5 -65l-22 -2h17q0 -2 -0.5 -7t-1.5 -7l-4 -18l-23 -2h17v-4h140v-13h12v-9h11v-114h-11v-23h-45v-13h-168h50v-11h23v-22h5
v-100l-22 -2h17v-13h-16q0 -1 -0.5 -2.5t-0.5 -2.5l-16 -7h10v-9h-143v9h-10v12h-11v36h-11v66h11q0 3 2 11l1 4l18 8h-10v24zM304 389v4h-8v-4h8z" />
    <glyph glyph-name="oslash" unicode="&#xf8;" horiz-adv-x="613" 
d="M103 517l16 9h-10v11h22v11h22v10h20v12h44v11h123v2h14q0 4 1 6t2 3l17 9h-10v26h11l2 8l19 8h-10v9h112v-9h10v-9h12l-6 -82l-15 -8h9v-15h-11q-1 -1 -1 -6v-7h9v-13h12v-11h9v-22h13v-12h10v-22h12v-22h9v-56h5v-126l-10 -8h5v-34h-9q0 -2 -1 -11t-2 -19t-2 -17.5
l-1 -7.5v2l-23 -2h17v-23h-10v-11h-13v-12h-12q0 1 -1 1q-2 0 -3 -1l-2 -2q1 0 1 1q2 0 2 -6l-23 -2h17v-12h-9v-11h-27q0 -2 -0.5 -5.5t-0.5 -5.5l-22 -2h17v-10h-9v-11h-24v-11h-21v-12h-43v-9h-128v-23h-10v-36h-13v-34h-14l-4 -6l-21 -2h17v-10h-33v-7h-72l-4 7h-12v10
h-8v71l18 8h-10v35h10q0 2 3 10h-1q2 10 2 14l25 2h-17v14h-17v13h-10v11h-10v12h-11v21h-10v23h-13v33h-9v23h-8v191l17 9h-9v34h9q0 1 1 2t3 5h-2l2 6l18 9h-9v22h12v1l1 2l17 9h-9v22h10v11h22q0 -2 1 -2q2 4 2 7l17 8h-6v1zM286 436v13h-37v-11h-25q0 -2 -0.5 -4.5
t-0.5 -4.5l-24 -2h15q-1 -2 -1 -4.5v-4.5l-23 -2h17v-13h-15l-4 -4h1q2 0 2 -4l-22 -2h17v-22h-11q0 -2 -0.5 -7t-1.5 -7l-3 -18l-23 -2h17v-44h-11v-26h11v-45h11v-2v-1q0 -1 0.5 -2.5t0.5 -3.5l18 8h-9v17h10q0 4 1 6t2 3l18 8h-9q0 1 1 3q0 2 0.5 3l1.5 3h-1q0 2 0.5 3
t0.5 3t1 3v-1l17 8h-10v36h10v-2l3 9h-1l2 10l18 8h-10v18h11q0 1 1 3q0 2 0.5 3l1.5 3h-1q0 2 0.5 3t0.5 3t1 3l18 8h-9q0 7 1 11l2 6l16 8h-9v26h12zM423 271l17 9h-21v46h-11v23h-2v-19h-9v-26h-13q0 -2 -1 -5.5t-2 -8.5l-2 -12v1l-24 -2h16l-4 -6h2q-2 -2 -2 -8l-23 -2
h17v-27h-9q0 -1 -1 -5l-2 -8t-2 -7.5l-1 -3.5v1l-24 -2h17q0 -1 -1 -2t-1.5 -2.5t-1.5 -2.5h1q-1 -2 -1 -4l-16 -7h10v-25h-13v-26h-10v-18h16v12h22v10h26v4l16 8h-9v11h10v23h10v-1q0 1 1 3q0 2 2 6h-1l2 6v-1l17 8h-10v23h11zM100 516h4l-2 -1q-1 0 -1 -1q-1 0 -1 2z" />
    <glyph glyph-name="ugrave" unicode="&#xf9;" 
d="M37 550h74v11h120v-11h9v-177h-9v-149h9v-31h12v-11h10v-24h11v-12h22v-10h32v-12h29v12h23v10h35v4l16 8h-9v11h14v2q0 1 1 2l17 9h-10v224h-11v12h-11v11h-54v11h-7v80l17 8h-10v11h54v11h54v11h97v-11h11v-33h6v-109l-23 -2h17v-237h11v-11h21v-12h53v-22h10v-77h-10
v-11h-42v-11h-22v-11h-32v-12h-97v12h-22v11h-10v-11h-30v-12h-55v-10h-128v10h-34v12h-21v11h-9v11h-12v11h-22v23h-9v12h-12v32h-10v69h-12l4 56l13 11h-17l4 56l17 10h-21v102h-10v11h-53v11h-10v11h-11v66h11v22h21v11zM379 663h-3l4 -3h-4l15 -7l-6 -10h-3l8 -6
l-42 -79h-4v-16l-11 4q0 -3 0.5 -6.5t0.5 -5.5v-6l-226 139l5 7h6l-29 15l12 18h-1q-1 2 -2.5 3t-2.5 3l49 86l2 -1v8q0 2 1 4l108 -64l-4 -5h-6l15 -9v8l121 -72z" />
    <glyph glyph-name="uacute" unicode="&#xfa;" 
d="M37 550h74v11h120v-11h9v-177h-9v-149h9v-31h12v-11h10v-24h11v-12h22v-10h32v-12h29v12h23v10h35v4l16 8h-9v11h14v2q0 1 1 2l17 9h-10v224h-11v12h-11v11h-54v11h-7v80l17 8h-10v11h54v11h54v11h97v-11h11v-33h6v-109l-23 -2h17v-237h11v-11h21v-12h53v-22h10v-77h-10
v-11h-42v-11h-22v-11h-32v-12h-97v12h-22v11h-10v-11h-30v-12h-55v-10h-128v10h-34v12h-21v11h-9v11h-12v11h-22v23h-9v12h-12v32h-10v69h-12l4 56l13 11h-17l4 56l17 10h-21v102h-10v11h-53v11h-10v11h-11v66h11v22h21v11zM259 644l2 3q0 1 -2 7l20 11h-8l-2 7l87 46h8
l38 28h-4q-2 2 -3 2l74 41l3 -1q2 1 5 1t7 1l18 17l51 -90l-7 -7h3l11 -19l2 -1l-34 -16q4 0 8 0.5t5 0.5q0 -2 0.5 -2.5t0.5 -1.5t1 -1l-194 -113l-13 1q-2 -1 -5 -1.5t-5 -1.5q-3 -1 -5 -2l-9 -3l-11 14zM395 748l-2 -1v1q0 1 1 1q0 -1 1 -1z" />
    <glyph glyph-name="ucircumflex" unicode="&#xfb;" 
d="M37 550h74v11h120v-11h9v-177h-9v-149h9v-31h12v-11h10v-24h11v-12h22v-10h32v-12h29v12h23v10h35v4l16 8h-9v11h14v2q0 1 1 2l17 9h-10v224h-11v12h-11v11h-54v11h-7v80l17 8h-10v11h54v11h54v11h97v-11h11v-33h6v-109l-23 -2h17v-237h11v-11h21v-12h53v-22h10v-77h-10
v-11h-42v-11h-22v-11h-32v-12h-97v12h-22v11h-10v-11h-30v-12h-55v-10h-128v10h-34v12h-21v11h-9v11h-12v11h-22v23h-9v12h-12v32h-10v69h-12l4 56l13 11h-17l4 56l17 10h-21v102h-10v11h-53v11h-10v11h-11v66h11v22h21v11zM320 784l13 3q5 2 16.5 6t13.5 5l1 -21h-2
q11 -20 22 -40.5t21 -40.5l43 -79l-5 -7h3q2 -3 4 -5t4 -5l-26 -15h6l-91 -58v30h-3l-24 40l-21 -39h-5v-31l-92 58h6l-23 19l3 8h4q-1 0 -3 2q-1 1 -3 1l91 161h-2v26l8 -4v6zM434 585l2 1zM197 586l1 -1h-1v1z" />
    <glyph glyph-name="udieresis" unicode="&#xfc;" 
d="M366 705v20h21v12h21v10h76v-10h33v-12h11v-10h10v-133h-10v-12h-14q-2 0 -7 -5h3q1 0 1 -4h61v-11h11v-33h6v-109l-23 -2h17v-237h11v-11h21v-12h53v-22h10v-77h-10v-11h-42v-11h-22v-11h-32v-12h-97v12h-22v11h-10v-11h-30v-12h-55v-10h-128v10h-34v12h-21v11h-9v11
h-12v11h-22v23h-9v12h-12v32h-10v69h-12l4 56l13 11h-17l4 56l17 10h-21v102h-10v11h-53v11h-10v11h-11v66h11v22h21v11h74v11h22v21h-9v11h-12v122h12v10h9v12h34v10h76v-10h30v-12h12v-10h10v-122h-10q0 1 -1 1q-2 0 -3 -4.5t-1 -6.5h1q-2 -8 -2 -11l-23 -2h17v-11h-30
q0 -3 -1.5 -6t-1.5 -6v-174h-9v-149h9v-31h12v-11h10v-24h11v-12h22v-10h32v-12h29v12h23v10h35v4l16 8h-9v11h14v2q0 1 1 2l17 9h-10v224h-11v12h-11v11h-54v11h-7v80l17 8h-10v11h54v8h-23v12h-22v23h-10v33h-12v90h12z" />
    <glyph glyph-name="yacute" unicode="&#xfd;" horiz-adv-x="682" 
d="M283 538h14l-35 69l3 -1l-5 8l18 13h-5l-2 7l87 46l6 -1l22 14h-1l17 14h-4q-1 1 -1 2l-1 1l107 64v-7l1 1l4 -8l1 1v-4l46 -80l-7 -7h3l12 -18l-34 -16q4 0 8 0.5t5 0.5l2 -6l-143 -84h41v12h184v-12h10v-21h10v-66h-10v-22h-32v-10h-33v-12h-10q-2 -6 -3 -10
q-3 -8 -3 -12l-23 -2h17v-32h-9q0 -7 -2.5 -16.5t-2.5 -15.5l-23 -2h17v-24h-10q0 -1 -1 -6l-2 -10t-2 -9.5l-1 -4.5v4l-15 -7h9v-21h-10q0 -1 -1 -6.5t-2 -12t-2 -11.5l-1 -5v7l-15 -7h9v-12h-9v-32h-11v-23h-10v-22h-11q0 -2 -0.5 -7t-1.5 -7l-3 -18l-23 -2h17v-11h-10
v-22h-12q-2 0 -4 -8h1q-1 -2 -1 -4.5t-1 -4.5q-1 -3 -1 -6v1l-7 -1h-1l-15 -1h13l-2 -2q1 0 1 1q2 0 2 -6l-23 -2h17v-35h-11v2q-1 0 -2 -5t-2 -7h1q-2 -8 -2 -10l-22 -2h17v-22h-10q0 -1 -1 -2t-2 -3h1q-2 -3 -2.5 -8t-0.5 -7l-23 -2h17v-34h-11v-23h-13v-10h-8v-23h-10
v-22h-27q0 -2 -0.5 -5t-0.5 -5l-23 -1h17v-11h-24q0 -2 -0.5 -5t-0.5 -5l-23 -2h16v-11h-42v-11h-109v11h-30v11h-12v12h-10v87h10l3 6h-2q1 3 1.5 7.5t1.5 4.5v-4l17 9h-9v12h138v21h10l3 5h-2q0 3 2 7q1 2 1 3l17 8h-10v12h11v2t2 6h-1l2 6v-1l17 8h-10v23h11v21h10v-1
l1 1q1 1 1 2t2 3h-3q0 3 2 7q1 2 2 3l16 8h-9v24h-12v22h-10v23h-11v22h-10v11h-11v22h-11v22h-10v12h-11v24h-12v11h-10v21h-10v33h-11v24h-11v22h-11v23h-9v21h-11v24h-12v12h-10v10h-63v22h-12l4 57l17 9h-9v21h63v12h119v-12h85v-9zM300 526v-75l-23 -2h17v-11h-32v-24
h10v-22h11v-22h11v-24h12v-23h10v-22h8v-10h13v-34h11v-9q0 2 0.5 4t0.5 4t1 4l16 8h-9v33h10q2 1 2 3t2 5h-1l2 6l16 8h-9v23h11v34h9v34h10v24h-52v11h-12v11h-9v57l-15 9h-21zM397 34h1q1 0 1 -1h-4q1 1 2 1zM396 710l-2 -1v1q0 1 1 1q0 -1 1 -1z" />
    <glyph glyph-name="thorn" unicode="&#xfe;" horiz-adv-x="659" 
d="M120 793v10h131v-10h9v-22h12l-5 -65l-23 -2h16v-110h-9v-58h29v8h174v-8h31v-11h22v-12h12v-11h20v-12h11v-10h10v-12h11v-24h11v-9h10v-22h10v-24h11v-67h11v-133h-11q0 -9 -2 -19l-3 -24l-23 -2h17v-33h-10q0 -2 -1 -3q-2 -4 -2 -5h1q-1 -3 -2 -6.5t-1 -6.5l-22 -2h17
v-11h-13l-1 1l-1 -1q-1 -1 -2 -1.5t-2 -1.5h3v-5l-23 -2h17v-12h-10v-11h-16q0 -1 -0.5 -4.5t-0.5 -5.5l-22 -2h17v-10h-21v-12h-10v-11h-33v-12h-32v-11h-181l-13 -6q1 -4 5.5 -8.5t6.5 -9.5l7 -19h-30h16q2 -8 5.5 -16.5t5.5 -16.5l-25 -1h16l11 -39l-19 -7h11
q4 -14 6 -22t2 -12.5v-7t2 -6.5h-2l2 -2l-17 -11h8q0 -1 0.5 -1.5t0.5 -2.5h-1v-3q0 -2 -2 -2h-1l-36 -13h10q1 -2 1 -3t1 -3q0 -2 1 -3l-52 -13l-14 1l-25 -9v10q-1 0 -1 -0.5t-1 -0.5q-1 -1 -2 -1l-36 94l28 2h-16q-2 6 -4 11.5t-2 7.5l-5 16l10 9h-4l-14 34l28 2h-16
q0 5 -3 13.5t-3 12.5q0 1 1 1l9 8h-5q-3 6 -3 15l-2 9l11 10h-4q-2 5 -2 7v4v7l13 8h-9v112q0 5 -5.5 22t-16.5 38h23v49l-13 27l32 2h-17q-1 5 -2.5 10.5t-2.5 10.5h1l-6 20l9 7h-5q-1 4 -4.5 16.5t-2.5 16.5q1 0 1 -1q0 -2 1 -4l7 7h-2l-3 16l10 7h-5l-11 33l23 6h-12
q0 7 -3 15.5t-3 10.5h1l9 8h-5q0 2 -1 6.5t-2 9.5l-2 10l9 8h-4l-13 36h27h-16q-2 5 -5.5 12.5t-3.5 11.5l28 2h-15l-11 36h23h-15q-3 8 -6.5 17t-5.5 17l27 1h-15q-3 8 -6.5 15.5t-5.5 15.5l21 2h-17v11h-64v12h-11v11h-10v66h10v23h21v10h54v12h31zM462 301h-9v22h-11v22
h-10v13h-12v11h-11v11h-11v9h-10v14h-33v11h-51v-11h-22v-14h-22v-20h-9v-226h9v-11h12v-11h10v-12h42v-11h21v11h21v12h22v11h10v11h23q0 2 2 5h-2q0 3 2 7q1 2 1 3l17 8h-9v11h10v3.5t1 4.5l2 6l17 8h-9v22h9v80z" />
    <glyph glyph-name="ydieresis" unicode="&#xff;" horiz-adv-x="682" 
d="M380 697v21h20v12h22v10h75v-10h33v-12h11v-11h4v-130l-23 -2h15v-10l-24 -2h17v-4h96v-12h10v-21h10v-66h-10v-22h-32v-10h-33v-12h-10q-2 -6 -3 -10q-3 -8 -3 -12l-23 -2h17v-32h-9q0 -7 -2.5 -16.5t-2.5 -15.5l-23 -2h17v-24h-10q0 -1 -1 -6l-2 -10t-2 -9.5l-1 -4.5v4
l-15 -7h9v-21h-10q0 -1 -1 -6.5t-2 -12t-2 -11.5l-1 -5v7l-15 -7h9v-12h-9v-32h-11v-23h-10v-22h-11q0 -2 -0.5 -7t-1.5 -7l-3 -18l-23 -2h17v-11h-10v-22h-12q-2 0 -4 -8h1q-1 -2 -1 -4.5t-1 -4.5q-1 -3 -1 -6v1l-6 -1q-1 0 -1 0.5t-1 0.5l-1 -1l-14 -1h13l-2 -2q1 0 1 1
q2 0 2 -6l-23 -2h17v-35h-11q0 2 -1 2t-2 -4t-1 -8h1q-2 -8 -2 -10l-22 -2h17v-22h-11l-2 -5h1q-2 -3 -2.5 -8t-0.5 -7l-23 -2h17v-34h-11v-23h-13v-10h-8v-23h-10v-22h-27q0 -2 -0.5 -5t-0.5 -5l-23 -1h17v-11h-24q0 -2 -0.5 -5t-0.5 -5l-23 -2h16v-11h-42v-11h-109v11h-30
v11h-12v12h-10v87h10l3 6h-2q1 3 1.5 7.5t1.5 4.5v-4l17 9h-9v12h138v21h10l3 5h-2q0 3 2 7q1 2 1 3l17 8h-10v12h11v2t2 6h-1l2 6v-1l17 8h-10v23h11v21h10q-1 0 4 5h-3q0 3 2 7q1 2 2 3l16 8h-9v24h-12v22h-10v23h-11v22h-10v11h-11v22h-11v22h-10v12h-11v24h-12v11h-10
v21h-10v33h-11v24h-11v22h-11v23h-9v21h-11v24h-12v12h-10v10h-63v22h-12l4 57l17 9h-9v21h63v12h68v16h-9v10h-12v122h12v11h9v12h33v10h76v-10h32v-12h11v-11h10v-122h-11l-2 -5h1q-2 -3 -2.5 -7.5t-0.5 -7.5l-23 -2h17v-11h-32v-5h27v-9h23l-6 -87l-23 -2h17v-11h-32v-24
h10v-22h11v-22h11v-24h12v-23h10v-22h8v-10h13v-34h11v-9q0 2 0.5 4t0.5 4t1 4l16 8h-9v33h10q2 1 2 3t2 5h-1l2 6l16 8h-9v23h11v34h9v34h10v24h-52v11h-12v11h-9v66h9v21h74l-8 5h-21v23h-10v32h-11v90h11zM399 33h-19q11 0 13 0.5t3 0.5h3v-1z" />
    <glyph glyph-name="Amacron" unicode="&#x100;" horiz-adv-x="777" 
d="M96 915h32v12h176v-12h166v12h154v-12h10v-11h11v-72h-11v-23h-43v-15h-177h27v-22h10v-35h12v-23h11v-34h11v-35h11v-35h11v-34h11v-35h11v-33h11v-36h11v-23h10v-22h12v-23h11v-45h11v-25h11v-24h10v-45h12v-23h10v-35h12v-22h10v-23h12v-23h23v-12h32v-11h21v-103h-10
v-11h-297v11h-34l5 82l16 8h-9v13h44v11h33v25h-10v35h-12v21h-11v12h-12v12h-153v11h-11v-11h-26q0 -2 -0.5 -5t-0.5 -5l-23 -2h17v-45h-10v-36h10v-12h66v-11h11l-6 -82l-10 -8h5v-13h-121v-11h-176v11h-17v94l17 9h-9v11h22v13h24l17 8h-10v14h11q0 6 2 14t2 12l18 8h-10
v11h10q0 7 2 15.5t2 11.5l17 8h-10q0 6 2 14t2 12l17 8h-9q0 6 2 14t2 12l16 8h-10v24h11q0 1 1 2l2 6h-1l2 8l18 9h-10v22h10q0 9 2 19.5t2 18.5l17 8h-10l4 6h-3l3 12q1 0 1 -4l16 8h-9l3 5h-2q0 3 2 7q1 2 1 3l17 8h-9v36h9v21h10q0 7 2.5 15.5t2.5 11.5l16 8h-9v46h11
q0 6 2 14t2 12l17 9h-10v35h11l3 6h-2q0 1 0.5 3.5t0.5 5.5q0 4 1 7q1 0 1 -7l18 8h-10v46h10v47h40h-219v13h-12v11h-11v84h11v11zM298 367h11v-8h104h-1l1 1l10 7l-4 4h-12v45h-10v35h-13v34h-9v24h-11v11h-11v-23h-11q0 -2 -1 -9.5t-2 -15.5q-1 -10 -2 -21v2l-23 -2h17
q0 -1 -1 -4l-2 -6h1q-1 -3 -2 -7.5t-2 -4.5v1l-22 -2h17q0 -7 -2 -15l-3 -18l-23 -2h17v-22h-11v-4z" />
    <glyph glyph-name="amacron" unicode="&#x101;" horiz-adv-x="636" 
d="M164 562h53v12h215v-12h21v-10h21v-11h11v-12h11v-11h12v-22h10v-178h-10v-171h73v-8h10v-12h12l-6 -81l-15 -8h9v-10h-43v-12h-30v-12h-140v12h-12v12h-8v-12h-45v-12h-212v12h-23v12h-21v10h-21v10h-12v23h-9v23h-8v124l17 9h-9v22h9l3 6h-2q1 3 1.5 7.5t1.5 4.5v-4
l17 9h-9v12h10v11h20v12h23v9h20v12h33v11h43v12h64v11h100v9l24 2h-17v11h10v35h-10v11h-12v11h-10v12h-21v11h-20v-11h-22v-12h-20v-11h-11v-11h-12q0 -2 -0.5 -7t-1.5 -7l-3 -18l-24 -2h15q-1 -2 -1 -4.5v-4.5l-23 -2h17v-11h-118v11h-11v11h-8v103l17 8h-9v22h23v11h20
v12h21v11h22v10zM44 692h32v12h173v-12h159v12h150v-12h11v-11h11l-5 -64l-15 -8h9v-21h-43v-12h-471v12h-11v10h-10v83h10v11zM348 186l17 9h-9v34h-12v11h-83v-11h-33v-12h-21v-11h-24q0 -2 -0.5 -4.5t-0.5 -4.5l-23 -2h16v-10h-9v-38h21v-8h20v-12h64v12h21v8h21v12h21
v11h10zM214 385l1 1z" />
    <glyph glyph-name="Abreve" unicode="&#x102;" horiz-adv-x="777" 
d="M60 140l17 8h-10v14h11q0 6 2 14t2 12l18 8h-10v11h10q0 7 2 15.5t2 11.5l17 8h-10q0 6 2 14t2 12l17 8h-9q0 6 2 14t2 12l16 8h-10v24h11q0 1 1 2l2 6h-1l2 8l18 9h-10v22h10q0 9 2 19.5t2 18.5l17 8h-10l4 6h-3l3 12q1 0 1 -4l16 8h-9l3 5h-2q0 3 2 7q1 2 1 3l17 8h-9
v36h9v21h10q0 7 2.5 15.5t2.5 11.5l16 8h-9v46h11q0 6 2 14t2 12l17 9h-10v35h11l3 6h-2q0 1 0.5 3.5t0.5 5.5q0 4 1 7q1 0 1 -7l18 8h-10v46h10v45l24 2q-20 0 -34 7t-16 11h10q-8 3 -13.5 6.5t-6.5 5.5h8q-13 6 -13 7h8q-15 1 -16 17h-6l-6 84l43 31l22 -2h6q5 0 9 -2h5
l-2 -1h27v-38h-7q12 -9 12 -12h-9l10 -5h-9q6 -1 8.5 -0.5t6.5 -1.5q2 0 6.5 7.5t21.5 13.5h-11v36q2 0 8.5 0.5t6.5 4.5l81 1l1 -10h-13l35 -11l-7 -52q0 -13 -1.5 -16.5t-10.5 -10.5h6q0 -11 -22 -20h11q-2 -7 -7 -21q-3 -7 -6 -15q-3 1 -6 4q-3 -1 -7 -1.5l-12 -1.5h6
l25 -23h-16q-2 0 -3 -0.5t-3 -0.5h10v-15h10v-35h12v-23h11v-34h11v-35h11v-35h11v-34h11v-35h11v-33h11v-36h11v-23h10v-22h12v-23h11v-45h11v-25h11v-24h10v-45h12v-23h10v-35h12v-22h10v-23h12v-23h23v-12h32v-11h21v-103h-10v-11h-297v11h-34l5 82l16 8h-9v13h44v11h33
v25h-10v35h-12v21h-11v12h-12v12h-153v11h-11v-11h-26q0 -2 -0.5 -5t-0.5 -5l-23 -2h17v-45h-10v-36h10v-12h66v-11h11l-6 -82l-10 -8h5v-13h-121v-11h-176v11h-17v94l17 9h-9v11h22v12h24v1zM298 367h11v-8h104h-1l1 1l10 7l-4 4h-12v45h-10v35h-13v34h-9v24h-11v11h-11
v-23h-11q0 -2 -1 -9.5t-2 -15.5q-1 -10 -2 -21v2l-23 -2h17q0 -1 -1 -4l-2 -6h1q-1 -3 -2 -7.5t-2 -4.5v1l-22 -2h17q0 -7 -2 -15l-3 -18l-23 -2h17v-22h-11v-4zM420 827q-2 0 -2.5 0.5t-1.5 0.5t-1 -1h5z" />
    <glyph glyph-name="abreve" unicode="&#x103;" horiz-adv-x="636" 
d="M438 647v-7q0 -8 -1.5 -10.5t-12.5 -9.5h8q-2 -5 -7.5 -10t-16.5 -9h12q-2 -5 -3.5 -13.5t-2.5 -13.5h18v-12h21v-10h21v-11h11v-12h11v-11h12v-22h10v-178h-10v-171h73v-8h10v-12h12l-6 -81l-15 -8h9v-10h-43v-12h-30v-12h-140v12h-12v12h-8v-12h-45v-12h-212v12h-23v12
h-21v10h-21v10h-12v23h-9v23h-8v124l17 9h-9v22h9l3 6h-2q1 3 1.5 7.5t1.5 4.5v-4l17 9h-9v12h10v11h20v12h23v9h20v12h33v11h43v12h64v11h100v9l24 2h-17v11h10v35h-10v11h-12v11h-10v12h-21v11h-20v-11h-22v-12h-20v-11h-11v-11h-12q0 -2 -0.5 -7t-1.5 -7l-3 -18l-24 -2
h15q-1 -2 -1 -4.5v-4.5l-23 -2h17v-11h-118v11h-11v11h-8v103l17 8h-9v22h23v11h20v12h21v11h22v10h53v12h10l-11 9h6q-7 3 -7 5q-8 4 -10 18h-6l-7 82l42 29q7 0 11.5 -0.5t7.5 -0.5h5h-2q1 -1 3 -1h7q1 0 2 -0.5t3 -0.5h31v-41h-7l11 -6l2 -3h-5l4 -5q3 0 3 -0.5t2 -2.5
q4 0 12 2h-10q2 7 21 18h-7v37q2 0 8 0.5t6 3.5l80 1l1 -10h-12l35 -9zM398 574h7q-2 1 -3 1t-2 1zM214 385l1 1zM348 186l17 9h-9v34h-12v11h-83v-11h-33v-12h-21v-11h-24q0 -2 -0.5 -4.5t-0.5 -4.5l-23 -2h16v-10h-9v-38h21v-8h20v-12h64v12h21v8h21v12h21v11h10z" />
    <glyph glyph-name="Aogonek" unicode="&#x104;" horiz-adv-x="777" 
d="M60 140l17 8h-10v14h11q0 6 2 14t2 12l18 8h-10v11h10q0 7 2 15.5t2 11.5l17 8h-10q0 6 2 14t2 12l17 8h-9q0 6 2 14t2 12l16 8h-10v24h11q0 1 1 2l2 6h-1l2 8l18 9h-10v22h10q0 9 2 19.5t2 18.5l17 8h-10l4 6h-3l3 12q1 0 1 -4l16 8h-9l3 5h-2q0 3 2 7q1 2 1 3l17 8h-9
v36h9v21h10q0 7 2.5 15.5t2.5 11.5l16 8h-9v46h11q0 6 2 14t2 12l17 9h-10v35h11l3 6h-2q0 1 0.5 3.5t0.5 5.5q0 4 1 7q1 0 1 -7l18 8h-10v46h10v45h26v4l17 8h-10v11h99v-11h11v-12h11v-22h10v-35h12v-23h11v-34h11v-35h11v-35h11v-34h11v-35h11v-33h11v-36h11v-23h10v-22
h12v-23h11v-45h11v-25h11v-24h10v-45h12v-23h10v-35h12v-22h10v-23h12v-23h23v-12h32v-11h21v-103h-10v-10l-77 -4q-5 -4 -10.5 -8.5t-11.5 -8.5h8v-19h-33l-6 -4h9v-18h-4v-5h-4v-11h-5v-4l-24 -2h24v-9h5v-6h4v-5h2v20h7v3l36 8h84v-11h6v-87h-6v-23h-4v-10h-5v-5h-7v-10
h-14v-3l-34 -10l-99 3q-14 0 -18 1t-13 2l-4 3h7q-4 1 -10.5 1h-8.5l-8 12h14q-1 0 -1 0.5t-1 0.5h-2h-18l-8 9h-8v9h-2l-10 10l-1 5h-5l-1 12h2l-4 7h-8l-3 32l3 100q0 5 1.5 10.5t1.5 10.5l8 3h-41v11h-34l5 82l16 8h-9v13h44v11h33v25h-10v35h-12v21h-11v12h-12v12h-153
v11h-11v-11h-26q0 -2 -0.5 -5t-0.5 -5l-23 -2h17v-45h-10v-36h10v-12h66v-11h11l-6 -82l-10 -8h5v-13h-121v-11h-176v11h-17v94l17 9h-9v11h22v12h24v1zM298 367h11v-8h103l11 8l-4 4h-12v45h-10v35h-13v34h-9v24h-11v11h-11v-23h-11q0 -2 -1 -9.5t-2 -15.5q-1 -10 -2 -21v2
l-23 -2h17q0 -1 -1 -4l-2 -6h1q-1 -3 -2 -7.5t-2 -4.5v1l-22 -2h17q0 -7 -2 -15l-3 -18l-23 -2h17v-22h-11v-4zM615 -108v2h-2z" />
    <glyph glyph-name="aogonek" unicode="&#x105;" horiz-adv-x="636" 
d="M412 -223v5h12q-3 1 -8.5 1h-9.5l-4 4h7q-3 1 -7.5 1h-6.5l-11 10h11q-3 1 -7.5 1h-6.5l-4 5h4q-1 0 -2.5 0.5t-3.5 0.5h-4l-10 13h10q-5 2 -7.5 2h-3.5l-10 11l-8 1l-1 12h2l-4 6h-6v27h-4v108h4v14h4v14h5v3h-29v-12h-212v12h-23v12h-21v10h-21v10h-12v23h-9v23h-8v124
l17 9h-9v22h9l3 6h-2q1 3 1.5 7.5t1.5 4.5v-4l17 9h-9v12h10v11h20v12h23v9h20v12h33v11h43v12h64v11h100v9l24 2h-17v11h10v35h-10v11h-12v11h-10v12h-21v11h-20v-11h-22v-12h-20v-11h-11v-11h-12q0 -2 -0.5 -7t-1.5 -7l-3 -18l-24 -2h15q-1 -2 -1 -4.5v-4.5l-23 -2h17v-11
h-118v11h-11v11h-8v103l17 8h-9v22h23v11h20v12h21v11h22v10h53v12h215v-12h21v-10h21v-11h11v-12h11v-11h12v-22h10v-178h-10v-171h73v-8h10v-12h12l-6 -81l-15 -8h9v-10h-43v-12h-7l-42 -33h6v-18h-29l-7 -6h6l-4 -12v-10h-4v-10h-5v-4l-23 -2h23v-8h5v-5h4l1 -9v22h7
l33 10h51h33v-10h7v-84h-8q0 -5 -1 -9.5t-1 -9.5v-7l-22 -11h10v-10h-13v-9h-14v-4h-142zM214 385l1 1zM348 186l17 9h-9v34h-12v11h-83v-11h-33v-12h-21v-11h-24q0 -2 -0.5 -4.5t-0.5 -4.5l-23 -2h16v-10h-9v-38h21v-8h20v-12h64v12h21v8h21v12h21v11h10z" />
    <glyph glyph-name="Cacute" unicode="&#x106;" horiz-adv-x="613" 
d="M399 140l17 8h-10v14h10l3 5h-2q0 3 2 7q1 2 1 3l18 8h-10v11h11q0 9 2 20.5t2 17.5l17 8h-10v34h11v12h10v10h100v-10h17v-198l-16 -8h10v-12h-13h-1h-2l-3 -3h3l-16 -8h10v-13h-23v-10h-11v-10h-21v-13h-23v-11h-44v-12h-43v-11h-131v11h-56v12h-34v11h-21v13h-22v10
h-10v10h-12v13h-10v11h-12v12h-9v24h-12v12h-11v11h-12v34h-12v24h-11v33h-8v59h-9v208l18 8h-9v46h8q0 7 2 15.5t2 11.5l17 8h-10q0 7 3 15.5t2 10.5l16 8h-9q0 1 1 2l2 6h-1q0 1 0.5 2.5t0.5 2.5t1 2l17 9h-9v23h15v3l17 9h-9v21h10q1 -1 1 -2q2 6 2 7l17 8h-9v11h14v4
l17 8h-9v11h10v12h11v12h26v3l16 8h-10v10h23v12h33v12h69l-31 59l5 2l-5 10l17 10h-6l-3 7l111 63l3 -6l25 16h-6l-3 5l105 62v-8l5 4l3 -5l2 1l1 -6l46 -83l-6 -6h3l11 -18l-29 -15h6l5 -7l-150 -88h9v-9h55v-12h99v-10h11v-23h6v-76l-23 -2h17v-61h6v-77l-23 -2h17v-11
h-11v-11h-110v11h-11v23h-11v59h-11v22h-12v11h-10v12h-11v12h-22v12h-65v-12h-22v-12h-27q0 -2 -0.5 -5t-0.5 -5l-23 -2h17v-11h-15q-2 -4 -2 -10l-23 -2h17v-24h-10v-11h-12v-23h-10v-34h-9v-46h-13v-176h13v-43h9v-36h10v-12h12v-22h10v-12h11v-11h12v-14h23v-9h20v-12
h23v-11h33v11h22v12h26v1zM560 893l-1 -2v-1l-1 1z" />
    <glyph glyph-name="cacute" unicode="&#x107;" horiz-adv-x="588" 
d="M172 562h34v12h51q-7 14 -17 33.5t-16 33.5l2 -1l-4 8l18 12h-5l-3 6l119 74v-11l14 10h-4l-3 4l85 51l17 16l4 -11l1 1l53 -90l-8 -7h4q3 -5 6 -9.5t5 -9.5l-28 -14h7l3 -5l-154 -91h56v-12h32v-10h20v-11h11v-12h12v-11h9v-11h12v-22h9v-56h12l-5 -75l-23 -2h16v-23h-9
v-11h-119v11h-21v23h-11v67h-10v11h-11v11h-33v12h-20v-12h-21v-11h-21v-11h-10v-12l-16 1l-1 -1q-1 -1 -1 -8l-23 -2h15q0 -1 -0.5 -4.5t-0.5 -5.5l-24 -2h17v-11h-9v1q-1 0 -1.5 -3t-1.5 -5h1q-1 -3 -2 -6.5t-1 -6.5l-24 -2h17v-34h-9v-69h9v-33h12v-10h9v-22h12v-14h9
v-11h23v-12h21v-8h116v8h21v12h31v11h121v-11h10l-6 -80l-15 -8h6l-3 -3h3v-5l-23 -2h17v-13h-23v-10h-30v-10h-23v-12h-52v-12h-33v-11h-192v11h-43v12h-34v12h-9v10h-10v10h-11v13h-11v10h-11v13h-11v22h-10v23h-11v32h-11v34h-10v133h10q0 16 2 34t2 25l17 8h-10v22h11
l3 6h-2q0 1 0.5 3.5t0.5 4.5q0 3 1 6q1 0 1 -6l16 8h-10v23h15v4l17 8h-10v11h15v3l17 8h-10v11h10v11h9v11h26v4l17 8h-9v11h31v10zM545 71h-2h3h-1zM358 743l-1 -1q0 1 1 1z" />
    <glyph glyph-name="Ccaron" unicode="&#x10c;" horiz-adv-x="613" 
d="M399 140l17 8h-10v14h10v-1l3 6h-2q0 3 2 7q1 2 1 3l18 8h-10v11h11q0 9 2 20.5t2 17.5l17 8h-10v34h11v12h10v10h100v-10h17v-198l-16 -8h10v-12h-13l-1 1l-1 -1q-1 -1 -2 -1.5t-2 -1.5h3l-16 -8h10v-13h-23v-10h-11v-10h-21v-13h-23v-11h-44v-12h-43v-11h-131v11h-56
v12h-34v11h-21v13h-22v10h-10v10h-12v13h-10v11h-12v12h-9v24h-12v12h-11v11h-12v34h-12v24h-11v33h-8v59h-9v208l18 8h-9v46h8q0 7 2 15.5t2 11.5l17 8h-10q0 7 3 15.5t2 10.5l16 8h-9q0 1 1 2l2 6h-1q0 1 0.5 2.5t0.5 2.5t1 2l17 9h-9v23h15v3l17 9h-9v21h10q1 -1 1 -2
q2 6 2 7l17 8h-9v11h14v4l17 8h-9v11h10v12h11v12h26v3l16 8h-10v10h23v12h33v12h91q-14 23 -27 49t-27 51l-30 55l6 7h-5q-1 2 -2 3.5t-2 3.5l20 19h-5v3l94 57v-28h2l25 -48l18 29l19 13h-7v34l93 -57l-1 -3h-7l24 -16l-5 -11h-7l12 -6l-93 -163h2v-4h54v-12h99v-10h11
v-23h6v-76l-23 -2h17v-61h6v-77l-23 -2h17v-11h-11v-11h-110v11h-11v23h-11v59h-11v22h-12v11h-10v12h-11v12h-22v12h-65v-12h-22v-12h-27q0 -2 -0.5 -5t-0.5 -5l-23 -2h17v-11h-15q-2 -4 -2 -10l-23 -2h17v-24h-10v-11h-12v-23h-10v-34h-9v-46h-13v-176h13v-43h9v-36h10
v-12h12v-22h10v-12h11v-11h12v-14h23v-9h20v-12h23v-11h33v11h22v12h26v1z" />
    <glyph glyph-name="ccaron" unicode="&#x10d;" horiz-adv-x="588" 
d="M172 562h34v12h66l-78 145l5 7h-4q-1 2 -2 3.5t-2 3.5l21 19h-5l91 55v-24h2l24 -45l17 28l19 11h-7v30l92 -55h-8l24 -16l-5 -11h-3q3 -3 8 -3l-84 -148h32v-12h32v-10h20v-11h11v-12h12v-11h9v-11h12v-22h9v-56h12l-5 -75l-23 -2h16v-23h-9v-11h-119v11h-21v23h-11v67
h-10v11h-11v11h-33v12h-20v-12h-21v-11h-21v-11h-10v-12h-15l-1 1q-1 -2 -1.5 -1.5t-0.5 -7.5l-23 -2h15q0 -1 -0.5 -4.5t-0.5 -5.5l-24 -2h17v-11h-9l-1 1q-1 -1 -1 -3q-1 -2 -1 -5h1q-1 -3 -2 -6.5t-1 -6.5l-24 -2h17v-34h-9v-69h9v-33h12v-10h9v-22h12v-14h9v-11h23v-12
h21v-8h116v8h21v12h31v11h121v-11h10l-6 -80l-15 -8h6l-3 -3h3v-5l-23 -2h17v-13h-23v-10h-30v-10h-23v-12h-52v-12h-33v-11h-192v11h-43v12h-34v12h-9v10h-10v10h-11v13h-11v10h-11v13h-11v22h-10v23h-11v32h-11v34h-10v133h10q0 16 2 34t2 25l17 8h-10v22h11l3 6h-2
q0 1 0.5 3.5t0.5 4.5q0 3 1 6q1 0 1 -6l16 8h-10v23h15v4l17 8h-10v11h15v3l17 8h-10v11h10v11h9v11h26v4l17 8h-9v11h31v10zM545 71h-2h3h-1z" />
    <glyph glyph-name="Dcaron" unicode="&#x10e;" horiz-adv-x="685" 
d="M13 782h10v12h143v-12h56v12h8q-11 19 -21 38t-21 39l-42 77l3 6h-1q-1 2 -2 3.5t-2 3.5l21 19h-5l94 55v-19h-2l28 -53l21 33l18 9h-9v30l93 -54l-8 -1l25 -16l-6 -11h-10l16 -6l-95 -165h93v-10h33v-11h23v-12h22v-12h22v-11h11v-12h9v-11h12v-13h11v-10h11v-11h11v-12
h11v-23h11v-14h11v-21h10v-35h11v-46h12v-57h6v-152l-16 -8h10q0 -5 -0.5 -16.5t-1.5 -23t-2 -20.5l-1 -9v2l-7 -2v1l-1 -4t-2 -9.5t-1.5 -11t-0.5 -7.5l-23 -2h17v-36h-10v-24h-11v-21h-15q0 -1 -0.5 -4.5t-0.5 -5.5l-23 -2h17v-12h-13q-2 0 -7 -5h3q0 1 1 1v-1l-16 -7h10
v-23h-28q0 -2 -0.5 -5t-0.5 -6l-22 -2h15q-1 -1 -1 -8l-23 -2h17v-10h-22v-13h-13v-11h-65v-12h-384v12h-11v11h-10v90h21v13h33v11h25v3l18 9h-9v438h26h-26v70h-13v12h-32v12h-43v10h-9v83l18 8h-9v10zM484 461h-12v36h-9v34h-12v12h-11v22h-11v12h-11v25h-22v10h-11v12
h-11v11h-11v12h-43v12h-45v-12h-15q0 -1 -0.5 -4.5t-0.5 -5.5l-23 -2h17v-496h12v-12h65v12h33v9h22v14h23v23h11v-1q1 0 1.5 0.5l4.5 4.5h-2l16 7h-10v11h11q0 -2 0.5 1.5t1 8t1.5 8.5l1 4v-6l17 8h-10q1 0 4 8h-1l2 8l16 8h-9v33h9q0 5 2.5 13t2.5 13l16 8h-9v139zM525 46
l1 1z" />
    <glyph glyph-name="dcaron" unicode="&#x10f;" horiz-adv-x="753" 
d="M518 811h25v12h97v-12h32v-11h22v-22h11v-89h-11l-3 -33q-1 -8 -1.5 -16t-0.5 -13l-16 -7h9v-178l-13 1q-1 -2 -1.5 -3.5t-0.5 -6.5l-23 -2h16v-10h-117v10h-11v11h-11v-272h9v-23h55v-8h17v-93l-16 -8h9v-10h-44v-12h-30v-12h-161v-11h-205v11h-21v12h-21v12h-11v10h-21
v10h-11v13h-10v10h-12v23h-9v12h-12v23h-9v44h-8v181l17 8h-9v33h9q0 6 2 14t2 12l17 8h-9v23h9v10h16v4l17 8h-6l3 3h-3l15 8h-9v11h10v11h11v11h22v11h20v12h22v11h203v112h-32v11h-49v97l24 2h-17v13h21v11h53v12h33v11h119zM516 800l-2 -3l7 3h-5zM71 474h4l-2 -1
q-1 0 -1 -1q-1 0 -1 2zM157 272h11v-45h10v-21h11v-11h12v-25h9v-11h12v-12h9v-8h22v-12h72v12h29h-1l1 1l15 7h-10v12h10q0 23 2 46.5t2 46.5l17 8h-10v103h-11v44h-20v12h-24v11h-30v11h-9v-11h-33v-11h-22v-12h-21q-1 0 -1 -1l-2 -4h1q-2 -3 -2.5 -7.5t-0.5 -7.5l-23 -2
h14q-1 -2 -1 -4.5v-4.5l-23 -2h17v-11h-11q0 -1 -1 -4l-2 -6h1l-3 -12v1l-22 -2h17v-33h-11v-35z" />
    <glyph glyph-name="Dcroat" unicode="&#x110;" horiz-adv-x="685" 
d="M14 447h7v7h26v11h54v112h26h-26v70h-13v12h-32v12h-43v10h-9v83l18 8h-9v10h10v12h143v-12h56v12h87v-12h109v-10h33v-11h23v-12h22v-12h22v-11h11v-12h9v-11h12v-13h11v-10h11v-11h11v-12h11v-23h11v-14h11v-21h10v-35h11v-46h12v-57h6v-152l-16 -8h10q0 -5 -0.5 -16.5
t-1.5 -23t-2 -20.5l-1 -9v2l-7 -2v1l-1 -4t-2 -9.5t-1.5 -11t-0.5 -7.5l-23 -2h17v-36h-10v-24h-11v-21h-15q0 -1 -0.5 -4.5t-0.5 -5.5l-23 -2h17v-12h-13q-2 0 -7 -5h3q0 1 1 1v-1l-16 -7h10v-23h-28q0 -2 -0.5 -5t-0.5 -6l-22 -2h15q-1 -1 -1 -8l-23 -2h17v-10h-22v-13
h-13v-11h-65v-12h-384v12h-11v11h-10v90h21v13h33v11h25v3l18 9h-9v178h-70v11h3h-5q-1 0 -2 1l-4 6h-9v112zM484 461h-12v36h-9v34h-12v12h-11v22h-11v12h-11v25h-22v10h-11v12h-11v11h-11v12h-43v12h-45v-12h-15q0 -1 -0.5 -4.5t-0.5 -5.5l-23 -2h17v-181h6v11h135v-13h-6
q0 -1 1 -1h4l5 -4h14v-102h-9v-18h-34v-10h-116v-178h12v-12h65v12h33v9h22v14h23v23h11v-1q1 0 1.5 0.5l4.5 4.5h-2l16 7h-10v11h11q0 -2 0.5 1.5t1 8t1.5 8.5l1 4v-6l17 8h-10q1 0 4 8h-1l2 8l16 8h-9v33h9q0 5 2.5 13t2.5 13l16 8h-9v139zM525 46l1 1z" />
    <glyph glyph-name="dcroat" unicode="&#x111;" horiz-adv-x="637" 
d="M366 810h33v11h120v-34h9v-108h67v-10h10v-9h7v-99h-7v-18h-34v-8h-52v-365h9v-23h55v-8h21l-6 -93l-15 -8h9v-10h-43v-12h-30v-12h-161v-11h-204v11h-22v12h-21v12h-11v10h-20v10h-12v13h-11v10h-11v23h-9v12h-12v23h-10v44h-8v181l17 8h-9v33h10q0 6 2 14t2 12l17 8h-9
v23h10q0 -2 1 -2q0 1 1 1l2 1h-1v2l16 8h-9v12h12v-2q2 0 2 1t5 4h-4l17 8h-9v11h9v11h11v11h21v11h21v12h23v11h59v108h7v9h26v10h28v93l24 2h-17v13h22v11h52v12zM154 272h11v-45h11v-21h11v-11h11v-25h9v-11h11v-12h12v-8h21v-12h73v12h26l16 8h-9v12h9q0 23 2.5 46.5
t2.5 46.5l16 8h-9v103h-12v44h-21v12h-21v11h-32v11h-9v-11h-32v-11h-21v-12h-23q-1 0 -1 -1l-2 -4h1q-2 -3 -2.5 -7.5t-0.5 -7.5l-22 -2h14q-1 -2 -1 -4.5v-4.5l-23 -2h17v-11h-11q0 -1 -1 -4l-2 -6h1l-3 -12v1l-23 -2h17v-33h-11v-35z" />
    <glyph glyph-name="Emacron" unicode="&#x112;" horiz-adv-x="649" 
d="M36 902h32v12h177v-12h166v12h152v-12h12v-12h11v-72h-11v-24h-62h80v-12h11v-33h10v-102h-10q0 -2 -0.5 -12t-1.5 -21t-2 -20t-2 -9v11l-10 -8h5v-34h-10v-11h-111v22h-12v59h-10v23h-23v12h-65v12h-103q0 -2 -0.5 -5t-0.5 -5l-23 -2h17v-164h12v-11h53q0 1 1 3.5t2 4.5
h-1l2 8l18 8h-9v21h9q0 7 2 15.5t2 11.5l18 8h-9v12h88v-12h9v-23h12l-5 -65l-23 -2h16v-208h-97v13h-13v22h-9v23h-13v25h-9v10h-33v12h-11v-22h-15q-1 -1 -1 -4q0 -2 -1 -3l-16 -7h9v-173h12v-23h12v-12h132v12h43v9h25l4 4h-3l-1 -1v2l18 9h-10v23h11q0 9 2 21t2 17l16 8
h-10q0 5 2.5 13t2.5 13l16 8h-9v11h99v-11h10v-23h13v-216h-13v-13h-10v-11h-21v-12h-90v12h-462v11h-8v13h-13l5 69l18 8h-10v13h20v11h38v3l18 9h-10v9h10v511h-22v12h-54v10h-13v12h-10v89h10v13h54h-28v10h-8v77l17 8h-9v12z" />
    <glyph glyph-name="emacron" unicode="&#x113;" horiz-adv-x="601" 
d="M23 684h32v12h173v-12h159v12h150v-12h11v-11h12l-6 -68l-23 -2h17v-21h-42v-13h-107v-7h20v-10h22v-11h12v-12h19v-11h12v-11h9v-11h12v-22h11v-12h10v-23h11v-32h6v-143l-23 -2h17v-10h-32v-12h-277v-11h-55v-13h12v-21h9v-11h13v-14h9v-11h22v-12h21v-8h43v-12h20v12
h64v8h33v12h30v11h110v-11h11l-5 -80l-16 -8h10v-10h-11v-13h-22v-10h-21v-10h-43v-12h-43v-12h-54v-11h-171v11h-43v12h-32v12h-20v10h-12v10h-10v13h-21v10h-11v23h-11v12h-11v23h-11v56h-10v154h10q0 11 2 26t2 22l17 8h-10v22h11l3 6h-2q0 1 0.5 3.5t0.5 4.5q0 3 1 6
q1 0 1 -6l17 8h-10v23h15v4l17 8h-10v11h10l3 6h-2q0 1 0.5 3.5t0.5 4.5q0 3 1 6q1 0 1 -6l17 8h-7l3 3h-3l17 8h-9v11h20v12h23v11h20v10h22v7h-149v13h-12v10h-10v81h10v11zM403 374h-28v11h-10v12h-11v22h-21v11h-11v11h-33v12h-18v-12h-26q0 -2 -0.5 -5t-0.5 -5l-22 -1
h16v-11h-14q0 -1 -0.5 -4.5t-0.5 -5.5l-24 -2h17v-10h-9v-12h-13v-11h-9l-1 1q-1 -1 -1 -3q-1 -2 -1 -5h1q-1 -2 -1.5 -7.5t-0.5 -8.5h98v11h100v9l24 2h-17zM164 351h16v12zM88 507h3q-2 -2 -3 -2v2z" />
    <glyph glyph-name="Edotaccent" unicode="&#x116;" horiz-adv-x="649" 
d="M222 989l17 9h-9v12h10v11h43v12h77v-12h44v-11h12v-12h10v-22h13v-24h9v-68h-9v-34h-13v-11h-12h-1h-2l-4 -3h4l-16 -8h9v-12h-14q0 -1 -1 -4.5t-1 -5.5l-23 -2h17v-10h211v-12h11v-33h10v-102h-10q0 -2 -0.5 -12t-1.5 -21t-2 -20t-2 -9v11l-10 -8h5v-34h-10v-11h-111
v22h-12v59h-10v23h-23v12h-65v12h-103q0 -2 -0.5 -5t-0.5 -5l-23 -2h17v-164h12v-11h53q0 1 1 3.5t2 4.5h-1l2 8l18 8h-9v21h9q0 7 2 15.5t2 11.5l18 8h-9v12h88v-12h9v-23h12l-5 -65l-23 -2h16v-208h-97v13h-13v22h-9v23h-13v25h-9v10h-33v12h-11v-22h-15q-1 -1 -1 -4
q0 -2 -1 -3l-16 -7h9v-173h12v-23h12v-12h132v12h43v9h25l4 4h-3l-1 -1v2l18 9h-10v23h11q0 9 2 21t2 17l16 8h-10q0 5 2.5 13t2.5 13l16 8h-9v11h99v-11h10v-23h13v-216h-13v-13h-10v-11h-21v-12h-90v12h-462v11h-8v13h-13l5 69l18 8h-10v13h20v11h38v3l18 9h-10v9h10v511
h-22v12h-54v10h-13v12h-10v89h10v12h273v10h-31v12h-22v12h-13v11h-10v22h-8v71l17 9h-9q0 8 2 21t2 18l17 8h-6v1zM218 988h5l-4 -2q-1 0 -1 2z" />
    <glyph glyph-name="edotaccent" unicode="&#x117;" horiz-adv-x="601" 
d="M210 793h42v12h76v-12h42v-11h11v-11h11v-23h11v-23h11l-6 -64l-22 -2h17q0 -1 -1 -6l-2 -10q-1 -7 -2 -15v1l-23 -2h17v-12h-11v-10h-16q0 -1 -0.5 -4t-0.5 -5l-23 -2h15q0 -1 -0.5 -4.5t-0.5 -5.5l-22 -2h17v-8h49v-12h20v-10h22v-11h12v-12h19v-11h12v-11h9v-11h12
v-22h11v-12h10v-23h11v-32h6v-143l-23 -2h17v-10h-32v-12h-277v-11h-55v-13h12v-21h9v-11h13v-14h9v-11h22v-12h21v-8h43v-12h20v12h64v8h33v12h30v11h110v-11h11l-5 -80l-16 -8h10v-10h-11v-13h-22v-10h-21v-10h-43v-12h-43v-12h-54v-11h-171v11h-43v12h-32v12h-20v10h-12
v10h-10v13h-21v10h-11v23h-11v12h-11v23h-11v56h-10v154h10q0 11 2 26t2 22l17 8h-10v22h11l3 6h-2q0 1 0.5 3.5t0.5 4.5q0 3 1 6q1 0 1 -6l17 8h-10v23h15v4l17 8h-10v11h10l3 6h-2q0 1 0.5 3.5t0.5 4.5q0 3 1 6q1 0 1 -6l17 8h-7l3 3h-3l17 8h-9v11h20v12h23v11h20v10h22
v12h68v8h-32v12h-21v11h-11v10h-11v23h-7v69l17 8h-10q0 7 2.5 19.5t2.5 17.5l16 8h-6l3 3h-3l17 8h-10v11h11v11zM403 374h-28v11h-10v12h-11v22h-21v11h-11v11h-33v12h-18v-12h-26q0 -2 -0.5 -5t-0.5 -5l-22 -1h16v-11h-14q0 -1 -0.5 -4.5t-0.5 -5.5l-24 -2h17v-10h-9v-12
h-13v-11h-9l-1 1q-1 -1 -1 -3q-1 -2 -1 -5h1q-1 -2 -1.5 -7.5t-0.5 -8.5h98v11h100v9l24 2h-17zM164 351h16v12zM88 507h3q-2 -2 -3 -2v2zM189 760h3q-2 -2 -3 -2v2z" />
    <glyph glyph-name="Eogonek" unicode="&#x118;" horiz-adv-x="649" 
d="M301 -226q-13 0 -17.5 1t-12.5 2l-4 3h6q-4 1 -9.5 1h-7.5l-8 12h13q-1 0 -1 0.5t-1 0.5h-1h-20l-7 9h-8v9h-3l-9 10l-1 5h-5l-1 12h2l-4 7h-7v27h-4v110h4v11l10 8h-174v11h-8v13h-13l5 69l18 8h-10v13h20v11h38v3l18 9h-10v9h10v511h-22v12h-54v10h-13v12h-10v89h10v12
h583v-12h11v-33h10v-102h-10q0 -2 -0.5 -12t-1.5 -21t-2 -20t-2 -9v11l-10 -8h5v-34h-10v-11h-111v22h-12v59h-10v23h-23v12h-65v12h-103q0 -2 -0.5 -5t-0.5 -5l-23 -2h17v-164h12v-11h53q0 1 1 3.5t2 4.5h-1l2 8l18 8h-9v21h9q0 7 2 15.5t2 11.5l18 8h-9v12h88v-12h9v-23
h12l-5 -65l-23 -2h16v-208h-97v13h-13v22h-9v23h-13v25h-9v10h-33v12h-11v-22h-15q-1 -1 -1 -4q0 -2 -1 -3l-16 -7h9v-173h12v-23h12v-12h132v12h43v9h25l4 4h-3l-1 -1v2l18 9h-10v23h11q0 9 2 21t2 17l16 8h-10q0 5 2.5 13t2.5 13l16 8h-9v11h99v-11h10v-23h13v-216h-13
v-13h-10v-11h-21v-12h-90v12q-26 0 -52 -1t-55 -1l-23 -18h7v-19h-33l-6 -4h9v-18h-4v-5h-4v-11h-5v-4l-25 -2h25v-9h5v-6h4v-10h-5l4 -3h3v28h6v3l37 8h84v-11h6v-87h-6v-23h-4v-10h-11l-7 -8h5v-7h-12v-4l-36 -9z" />
    <glyph glyph-name="eogonek" unicode="&#x119;" horiz-adv-x="601" 
d="M270 -223v5h12q-3 1 -7.5 1h-8.5l-5 4h8q-3 1 -8 1h-7l-11 10l-4 1l-3 5h4q-1 0 -2.5 0.5t-3.5 0.5h-5l-10 13h13q-3 1 -8 1.5t-6 0.5l-9 11l-7 1l-1 12h2l-5 6h-7v31v98l3 25h-43v12h-32v12h-20v10h-12v10h-10v13h-21v10h-11v23h-11v12h-11v23h-11v56h-10v154h10
q0 11 2 26t2 22l17 8h-10v22h11l3 6h-2q0 1 0.5 3.5t0.5 4.5q0 3 1 6q1 0 1 -6l17 8h-10v23h15v4l17 8h-10v11h10l3 6h-2q0 1 0.5 3.5t0.5 4.5q0 3 1 6q1 0 1 -6l17 8h-7l3 3h-3l17 8h-9v11h20v12h23v11h20v10h22v12h215v-12h20v-10h22v-11h12v-12h19v-11h12v-11h9v-11h12
v-22h11v-12h10v-23h11v-32h6v-143l-23 -2h17v-10h-32v-12h-277v-11h-55v-13h12v-21h9v-11h13v-14h9v-11h22v-12h21v-8h43v-12h20v12h64v8h33v12h30v11h110v-11h11l-5 -80l-16 -8h10v-10h-11v-13h-22v-10h-21v-10h-43v-12h-43v-12h-34l-28 -21h6v-18h-28l-6 -6h5v-16h-4v-6
h-5v-10h-5v-4l-23 -2h23v-8h5v-5h5l1 -9v22h6l35 13l49 -3h35v-10h6v-84h-6v-23h-5v-2l-13 -12h5v-4h-4v-6h-13v-9h-13v-4h-143zM403 374h-28v11h-10v12h-11v22h-21v11h-11v11h-33v12h-18v-12h-26q0 -2 -0.5 -5t-0.5 -5l-22 -1h16v-11h-14q0 -1 -0.5 -4.5t-0.5 -5.5l-24 -2
h17v-10h-9v-12h-13v-11h-9l-1 1q-1 -1 -1 -3q-1 -2 -1 -5h1q-1 -2 -1.5 -7.5t-0.5 -8.5h98v11h100v9l24 2h-17zM164 351h16v12zM88 507h3q-2 -2 -3 -2v2z" />
    <glyph glyph-name="Ecaron" unicode="&#x11a;" horiz-adv-x="649" 
d="M0 782h10v12h258l-46 82l-24 42t-23 41l21 1h-16q0 2 -1.5 1.5t-1.5 1.5l22 23h-4l94 54v-18l26 -54l19 33l23 9h-12v30l94 -54h-7l24 -17l-6 -9h-10q3 -1 9.5 -1h9.5l-95 -165h229v-12h11v-33h10v-102h-10q0 -2 -0.5 -12t-1.5 -21t-2 -20t-2 -9v11l-10 -8h5v-34h-10v-11
h-111v22h-12v59h-10v23h-23v12h-65v12h-103q0 -2 -0.5 -5t-0.5 -5l-23 -2h17v-164h12v-11h53q0 1 1 3.5t2 4.5h-1l2 8l18 8h-9v21h9q0 7 2 15.5t2 11.5l18 8h-9v12h88v-12h9v-23h12l-5 -65l-23 -2h16v-208h-97v13h-13v22h-9v23h-13v25h-9v10h-33v12h-11v-22h-15q-1 -1 -1 -4
q0 -2 -1 -3l-16 -7h9v-173h12v-23h12v-12h132v12h43v9h25l4 4h-3l-1 -1v2l18 9h-10v23h11q0 9 2 21t2 17l16 8h-10q0 5 2.5 13t2.5 13l16 8h-9v11h99v-11h10v-23h13v-216h-13v-13h-10v-11h-21v-12h-90v12h-462v11h-8v13h-13l5 69l18 8h-10v13h20v11h38v3l18 9h-10v9h10v511
h-22v12h-54v10h-13v12h-10v89z" />
    <glyph glyph-name="ecaron" unicode="&#x11b;" horiz-adv-x="601" 
d="M162 562h22v12h63l-81 142l7 6h-4l-3 7l21 20h-5l93 56v-21h-2l26 -51l19 32l21 8h-11v32l92 -55l-8 -1l25 -16l-7 -11h-9l16 -6l-82 -142h44v-12h20v-10h22v-11h12v-12h19v-11h12v-11h9v-11h12v-22h11v-12h10v-23h11v-32h6v-143l-23 -2h17v-10h-32v-12h-277v-11h-55v-13
h12v-21h9v-11h13v-14h9v-11h22v-12h21v-8h43v-12h20v12h64v8h33v12h30v11h110v-11h11l-5 -80l-16 -8h10v-10h-11v-13h-22v-10h-21v-10h-43v-12h-43v-12h-54v-11h-171v11h-43v12h-32v12h-20v10h-12v10h-10v13h-21v10h-11v23h-11v12h-11v23h-11v56h-10v154h10q0 11 2 26t2 22
l17 8h-10v22h11l3 6h-2q0 1 0.5 3.5t0.5 4.5q0 3 1 6q1 0 1 -6l17 8h-10v23h15v4l17 8h-10v11h10l3 6h-2q0 1 0.5 3.5t0.5 4.5q0 3 1 6q1 0 1 -6l17 8h-7l3 3h-3l17 8h-9v11h20v12h23v11h20v10zM403 374h-28v11h-10v12h-11v22h-21v11h-11v11h-33v12h-18v-12h-26
q0 -2 -0.5 -5t-0.5 -5l-22 -1h16v-11h-14q0 -1 -0.5 -4.5t-0.5 -5.5l-24 -2h17v-10h-9v-12h-13v-11h-9l-1 1q-1 -1 -1 -3q-1 -2 -1 -5h1q-1 -2 -1.5 -7.5t-0.5 -8.5h98v11h100v9l24 2h-17zM164 351h16v12zM88 507h3q-2 -2 -3 -2v2z" />
    <glyph glyph-name="Gbreve" unicode="&#x11e;" horiz-adv-x="672" 
d="M459 902q0 -11 -3.5 -16t-12.5 -10h8q0 -5 -5 -11t-16 -11h10q-2 -5 -3 -9t-3 -8l-4 -8q-2 0 -3 0.5t-2 0.5q-6 -6 -23 -9h7q2 -2 8 -7.5t8 -7.5h15v-12h56v-12h98v-10h10v-23h12v-102h-12v-116h-10v-22h-22v-12h-77v12h-23v22h-10v57h-12v24h-10v23h-12v12h-11v12h-21
v12h-22v10h-43v-10h-23v-12h-33v-12h-15q0 -1 -0.5 -4.5t-0.5 -5.5l-23 -2h17v-11h-10v-12h-16l-2 -4l-2 -4l-20 -2h16q0 -1 -1 -4l-2 -6h1q-1 -2 -1 -6q0 -2 -1 -3v1l-16 -7h10v-23h-11v-23h-12v-22h-10v-58h-10v-117h10v-58h10v-34h12v-11h11v-24h10v-22h12v-12h22v-11h12
v-14h10v-9h33v-12h23v-11h32v11h22v12h23v9h25l4 4h-3l-1 -1v2l16 9h-9v58h-12v12h-11v11h-87v12h-10v104h20v8h297v-8h7v-102l-23 -2h16v-12h-21v-11h-22q0 -45 -2.5 -85t-2.5 -81l-16 -7h10v-13h-55v-10h-22v-10h-23v-13h-22v-11h-32v-12h-34v-11h-121v11h-65v12h-23v11
h-32v13h-22v10h-12v10h-10v13h-10v11h-12v12h-9v12h-13v24h-10v21h-12v13h-10v23h-11v45h-10v81h-9v163l18 8h-9v69h10q0 12 2 27.5t2 22.5l16 8h-9v21h10q0 1 1 2l2 6h-1l2 8l17 9h-9v24h10v-2l3 9h-1l2 6v-1l18 9h-9v13h9v11h16v4l16 8h-10v11h10v12h27v4l17 8h-10v11h23
v10h21v12h33v12h48q-22 7 -27.5 8t-7.5 9h8q-18 3 -18 12h5q-2 2 -4 3.5t-3 3.5h7q-16 2 -20 17h-5l-7 85l43 32l33 -2l5 -3h-8q1 -1 6 -1h32v-42h-11q9 -3 12 -4.5t4 -2.5h-11q18 -3 21 -6q2 3 7 7t13 10h-7v37q3 0 9 0.5t6 5.5l82 1l2 -11h-11l32 -11zM336 912q1 0 2 1
l-3 -1h1zM329 911q1 0 1.5 0.5t1.5 0.5h-4zM232 842h-2h-1q0 1 1 1q1 -1 2 -1z" />
    <glyph glyph-name="gbreve" unicode="&#x11f;" horiz-adv-x="636" 
d="M142 544h31v13h184v-13h31v-9h33v-11h21v-12h129v-10h10v-23h11l-5 -64l-23 -2h17v-10h-10v-14h-75q0 -26 -3 -54.5t-3 -54.5l-23 -2h17q0 -2 -1 -3q-2 -4 -2 -5h1q-1 -3 -2 -6.5t-1 -6.5l-23 -1h16v-22h-8v-24h-15q0 -1 -0.5 -4.5t-0.5 -5.5l-23 -1h17v-10h-21v-12h-22
v-11h-32v-12h-95v-13h-41h15v-5l-23 -2h16v-14h-27h252v-12h63v-10h22v-12h11v-10h11v-12h21v-11h11v-167h-11q0 -1 -1 -3q-2 -4 -2 -6h1q-1 -2 -1 -3.5t-1 -3.5t-1 -4l-23 -2h17v-24h-12q0 2 -1 2t-2.5 -1.5t-2.5 -1.5h1q2 0 2 -6l-23 -2h17v-13h-11v-11h-24l-1 -1l-4 -6
l-20 -2h17v-13h-21v-9h-32v-13h-31v-12h-56v-11h-149v11h-98v12h-30v13h-22v9h-22v13h-10v9h-11v24h-10v9h-11v36h-11v99h11q0 6 2.5 14t1.5 10l17 9h-10v12h10v21h15v4l16 8h-8l2 3l17 8h-10v89h11v23h14v4l17 8h-9v11h-12v11h-10v24h-11v10h-11v34h-10v155h10q0 6 2 14
t2 11l17 8h-10v24h11v12h10v10h25v3l17 9h-9v11h21v9zM384 660q0 -8 -4 -15t-14 -11h11q0 -12 -20 -20h9q-2 -8 -5 -17l-4 -10l-11 3q-7 -6 -16 -8h6l23 -23h-24q-9 0 -20 -0.5t-19 -0.5h-61q-20 0 -23.5 2.5t-5.5 7.5q-9 0 -12 6q-14 1 -17 3t-5 8h10q-17 7 -19 13h5l-5 5
h2q-8 1 -10.5 4.5t-3.5 11.5h-6l-6 83l43 33l22 -6q1 1 5.5 -0.5t5.5 -1.5h33v-40h-5q2 -2 6.5 -7t7.5 -10q1 0 1.5 0.5t1.5 0.5h-1q1 2 7 8l12 12h-5v35q2 0 8.5 0.5t6.5 5.5l79 1l3 -11h-13l35 -9zM441 -70h10q0 -2 1 -2q2 0 5 3q-1 0 -1 -1q-1 0 -1 2l16 9h-9v13h-12v12
h-9v10h-21v10h-22v12h-206q0 -2 -0.5 -5t-0.5 -5l-23 -2h15l-5 -4q1 1 2 1q2 0 2 -5l-23 -2h16v-10h-14q0 -1 -0.5 -4.5t-0.5 -5.5l-24 -2h17v-24h-27h27v-22h12v-13h10v-9h21v-13h55v-11h83v11h33v13h31v9h25v2q0 1 1 2l17 9h-7v1v-1l1 1l15 8h-9v13zM187 333h9v-22h11v-13
h10v-10h12v-12h31v-11h31v11h21v12h23q0 1 2 7h-1l2 8l17 8h-10v22h11v34h-11v22h-11v24h-11v12h-21v10h-22v12h-20v-12h-21v-10h-22v-12h-10q0 1 -1 1t-2 -4.5t-1 -6.5h1q-1 -2 -1 -5q0 -1 -1 -2v1l-11 -8h5v-22h-9v-34zM57 53l1 -1v-1q0 1 -1 2z" />
    <glyph glyph-name="Gcommaaccent" unicode="&#x122;" horiz-adv-x="672" 
d="M198 794h33v12h209v-12h56v-12h98v-10h10v-23h12v-102h-12v-116h-10v-22h-22v-12h-77v12h-23v22h-10v57h-12v24h-10v23h-12v12h-11v12h-21v12h-22v10h-43v-10h-23v-12h-33v-12h-15q0 -1 -0.5 -4.5t-0.5 -5.5l-23 -2h17v-11h-10v-12h-16l-2 -4l-2 -4l-20 -2h16q0 -1 -1 -4
l-2 -6h1q-1 -2 -1 -6q0 -2 -1 -3v1l-16 -7h10v-23h-11v-23h-12v-22h-10v-58h-10v-117h10v-58h10v-34h12v-11h11v-24h10v-22h12v-12h22v-11h12v-14h10v-9h33v-12h23v-11h32v11h22v12h23v9h25l4 4h-3l-1 -1v2l16 9h-9v58h-12v12h-11v11h-87v12h-10v104h20v8h297v-8h7v-102
l-23 -2h16v-12h-21v-11h-22q0 -45 -2.5 -85t-2.5 -81l-16 -7h10v-13h-55v-10h-22v-10h-23v-13h-22v-11h-32v-12h-34v-11h-5v-79h4v-35h6v-73h-6v-13h-11v-5h-16v-7h-82v7h-10l-8 5h-6v6h-5v86h5v29h6v59h5v31h-63v12h-23v11h-32v13h-22v10h-12v10h-10v13h-10v11h-12v12h-9
v12h-13v24h-10v21h-12v13h-10v23h-11v45h-10v81h-9v163l18 8h-9v69h10q0 12 2 27.5t2 22.5l16 8h-9v21h10q0 1 1 2l2 6h-1l2 8l17 9h-9v24h10v-1l1 2q0 2 2 6h-1l2 6v-1l18 9h-9v13h9v11h16v4l16 8h-10v11h10v12h27v4l17 8h-10v11h23v10h21v12z" />
    </font>
</defs>
</svg>
